<svg t="1722926044158" class="icon" viewBox="0 0 1024 1024" version="1.1" xmlns="http://www.w3.org/2000/svg" p-id="7194" width="24"><path d="M377.736087 1016.192174c-66.308195 0-128.782062-52.529377-190.988846-160.591535l-0.066515-0.116657c-29.260417-51.881624-51.544957-103.517655-66.23554-153.473417-14.95869-50.870598-22.543436-101.689007-22.543436-151.044088 0-46.338375 5.856381-89.149413 17.405415-127.244033 11.594059-38.239929 29.258371-72.864518 52.505841-102.910834 47.151903-60.395532 107.631346-90.991364 179.800016-90.991364 30.095435 0 65.668629 5.993504 108.751866 18.322297 18.86158 5.463432 33.440623 9.256828 44.710294 11.856026l0.055259-2.740414c1.220804-61.428048 17.634636-115.322515 48.7851-160.186306 31.423687-45.211714 84.156702-76.685543 156.738787-93.554746l15.134699-3.517103 3.332908 15.176654c0.428765 1.953492 0.864694 3.745301 1.266853 5.402033 0.714268 2.942005 1.388627 5.721305 1.826602 8.482185l0.190335 1.194198 0 1.209548c0 1.463328 0.11768 2.959402 0.25378 4.691859 0.163729 2.076288 0.348947 4.430916 0.348947 7.099698 0 25.930579-6.113231 54.816466-18.168802 85.85846l-0.054235 0.1361c-12.494569 31.281447-32.114418 60.425208-58.31208 86.62287-11.254322 11.254322-22.655999 20.738323-34.128285 28.399817 39.820937-12.904914 73.172533-19.186991 101.81078-19.186991 49.884131 0 95.133707 13.8351 134.490064 41.12156 21.375843 14.650675 43.128263 35.523051 64.586994 61.989843l9.475815 11.686157-11.493775 9.707083c-30.237675 25.536606-51.349505 47.324842-64.539922 66.61007l-0.060375 0.085958c-23.652699 34.076096-35.645848 72.236208-35.645848 113.420189 0 45.354977 12.785188 86.707804 37.999452 122.910331 24.955368 35.792181 53.601802 58.824757 85.140099 68.455091l14.829753 4.52813-4.677533 14.783705c-15.862269 50.133817-40.908712 101.092419-74.437339 151.455457-26.160823 39.830147-52.940746 70.311369-79.592756 90.592274-27.89942 21.228487-56.476269 31.993668-84.938508 31.993668-21.301142 0-49.179073-6.275937-87.732134-19.750833l-0.303922-0.109494c-31.40936-11.725042-60.370972-17.923208-83.754542-17.923208-21.875217 0-48.110741 6.16849-77.976956 18.3356C427.77269 1009.055636 399.584698 1016.192174 377.736087 1016.192174zM213.389018 840.34826c28.369118 49.2681 56.851822 86.447884 84.659145 110.50479 26.942629 23.308869 53.008284 34.639938 79.687924 34.639938 17.780969 0 42.012859-6.348592 72.02336-18.869766l0.11768-0.048095c33.587979-13.688767 63.741743-20.629853 89.623203-20.629853 27.353998 0 59.09491 6.66377 94.336552 19.805068 34.637892 12.096503 59.974953 17.978467 77.453023 17.978467 44.768623 0 91.503017-36.603663 138.906653-108.792798l0.054235-0.081864c28.817326-43.279712 51.007721-86.871533 66.085114-129.788995-32.301683-13.629415-61.363579-38.759769-86.556355-74.892711-28.873608-41.457204-43.512003-88.712461-43.512003-140.462079 0-47.542806 13.82589-91.577718 41.094954-130.881886 12.942777-18.910699 32.129768-39.502689 58.443064-62.689784-16.381086-18.766412-32.682353-33.753755-48.585555-44.654013-34.18866-23.702841-73.553203-35.697013-117.066229-35.697013-26.125007 0-58.820664 6.486738-97.17725 19.280112-39.84959 13.849426-69.916373 20.87033-89.37454 20.87033-15.190981 0-43.234687-5.983271-85.732593-18.292622-40.250726-11.518335-73.060993-17.124006-100.259448-17.124006-63.104223 0-113.989147 25.883507-155.560962 79.131245-42.089607 54.402027-63.451124 125.517715-63.451124 211.316823C128.600937 644.512013 156.335604 739.170906 213.389018 840.34826zM697.963389 37.388539c-56.82624 15.691377-98.108458 41.620933-122.835629 77.199243-24.701588 35.57524-38.965453 77.873602-42.499953 125.924991 16.797571-1.981121 30.404474-4.526083 40.59251-7.600095 18.798135-6.325056 38.158065-19.35993 57.544601-38.746466 23.217794-23.217794 40.539298-48.866964 51.484581-76.234265 10.655687-27.456329 16.058744-52.581566 16.058744-74.67577 0-1.462305-0.11768-2.959402-0.25378-4.691859C698.024787 38.181601 697.994088 37.789675 697.963389 37.388539z" fill="currentColor" p-id="7195"></path></svg>