<svg t="1722607932054" class="icon" viewBox="0 0 1024 1024" version="1.1" xmlns="http://www.w3.org/2000/svg" p-id="12967" width="24"><path d="M821.51955797 689.11327573V1046.84870656l-305.29527466-111.40978005L229.7338789 1046.84870656V689.11327573A417.04913123 417.04913123 0 0 1 107.17290041 393.26926507C107.17290041 162.19986147 294.51756999-25.11982706 525.62671843-25.11982706S944.0805376 162.19986147 944.0805376 393.26926507A417.04913123 417.04913123 0 0 1 821.51955797 689.11327573zM525.62671843 35.5338331c-197.59877575 0-357.79220935 160.16390827-357.79220934 357.73543197S328.02794269 751.00128939 525.62671843 751.00128939s357.79220935-160.15936626 357.79220936-357.73202432S723.22549419 35.5338331 525.62671843 35.5338331zM718.69461049 516.70121813a12.04374869 12.04374869 0 0 1-11.65084444 10.54935154H337.38495659a12.04374869 12.04374869 0 0 1-11.65084445-10.54935154l-32.47701333-290.58977564c-0.88573725-7.98866432 3.91768178-14.51018467 10.74239716-14.51018354h0.56777955l102.22310059 121.31640434 102.22310172-121.31640434h0.31795655a6.18085262 6.18085262 0 0 1 5.15544178-2.765089h19.80416455a6.18085262 6.18085262 0 0 1 5.15544178 2.765089h0.27253418l102.22310173 121.31640434 101.75752078-120.76679396c5.01917469 1.71583147 8.21009749 7.32549689 7.47198464 13.96057316zM348.59293241 563.19104h351.59205205a12.38668743 12.38668743 0 0 1 12.38895844 12.37760227v32.18176797a12.38668743 12.38668743 0 0 1-12.38895844 12.37760227H348.59293241a12.37760227 12.37760227 0 0 1-12.38895844-12.37760227v-32.18176797a12.37760227 12.37760227 0 0 1 12.38895844-12.37760227z" fill="currentColor" p-id="12968"></path></svg>