<svg t="1722608105237" class="icon" viewBox="0 0 1024 1024" fill="currentColor" version="1.1" xmlns="http://www.w3.org/2000/svg" p-id="13990" width="24"><path d="M513.962667 82.176c25.514667 0 46.165333 20.693333 46.165333 46.165333 0 22.442667-16.042667 41.472-38.741333 45.568l-7.424 0.64H188.245333a26.88 26.88 0 0 0-26.410666 21.248l-0.554667 5.717334V836.266667c0 13.098667 9.386667 24.234667 21.248 26.453333l5.717333 0.512h646.101334a26.88 26.88 0 0 0 26.453333-21.248l0.512-5.717333v-371.754667c0-25.514667 20.693333-46.165333 46.165333-46.165333 22.442667 0 41.472 16.042667 45.568 38.741333l0.64 7.424V836.266667c0 61.610667-46.933333 112.938667-108.330666 118.784l-11.008 0.512H188.245333a119.424 119.424 0 0 1-118.784-108.288l-0.512-11.008V201.514667c0-61.653333 46.933333-112.981333 108.288-118.826667l11.008-0.512z m294.186666-0.512l10.24 0.682667c11.349333 1.493333 22.186667 5.333333 32 11.392l7.253334 4.949333 7.722666 6.826667 61.184 61.141333a81.493333 81.493333 0 0 1 11.392 101.034667l-5.418666 7.594666-5.888 6.613334-154.282667 154.282666a81.493333 81.493333 0 0 1-39.594667 21.802667l-9.173333 1.578667-8.832 0.469333h-99.712c-19.029333 0-35.413333-12.416-41.002667-30.336l-1.450666-6.186667-0.512-6.4V317.44c0-15.402667 4.352-30.421333 12.586666-43.52l5.376-7.594667 5.930667-6.570666 154.154667-154.197334a81.493333 81.493333 0 0 1 48.384-23.381333l9.642666-0.512z m-0.384 87.722667l-149.76 149.632-0.085333 55.082666 54.357333 0.469334-0.682666 0.853333 151.338666-150.826667-55.168-55.210666z" p-id="13991"></path><path d="M704 768a42.666667 42.666667 0 0 0 0-85.333333h-384a42.666667 42.666667 0 1 0 0 85.333333h384z m-202.666667-170.666667a42.666667 42.666667 0 0 0 0-85.333333H320a42.666667 42.666667 0 0 0 0 85.333333h181.333333z m-106.666666-170.666666a42.666667 42.666667 0 0 0 0-85.333334H320a42.666667 42.666667 0 0 0 0 85.333334h74.666667z" p-id="13992"></path></svg>