<?xml version="1.0" standalone="no"?><!DOCTYPE svg PUBLIC "-//W3C//DTD SVG 1.1//EN" "http://www.w3.org/Graphics/SVG/1.1/DTD/svg11.dtd"><svg t="1754549899320" class="icon" viewBox="0 0 1024 1024" version="1.1" xmlns="http://www.w3.org/2000/svg" p-id="13628" xmlns:xlink="http://www.w3.org/1999/xlink" width="64" height="64"><path d="M705.194667 957.303467H139.810133A105.745067 105.745067 0 0 1 34.133333 851.626667V267.400533c0-58.368 47.377067-105.745067 105.6768-105.745066H705.194667c58.368 0 105.745067 47.377067 105.745066 105.745066v584.226134c0 58.299733-47.650133 105.6768-105.745066 105.6768zM139.810133 224.4608a43.076267 43.076267 0 0 0-42.871466 42.939733v584.226134c0 23.552 19.319467 42.871467 42.871466 42.871466H705.194667a43.076267 43.076267 0 0 0 42.939733-42.871466V267.400533a43.076267 43.076267 0 0 0-42.939733-42.939733H139.810133z" p-id="13629"></path><path d="M879.957333 863.6416h-68.266666a31.470933 31.470933 0 0 1-31.402667-31.402667c0-17.271467 14.1312-31.402667 31.402667-31.402666h68.266666c25.941333 0 47.104-21.162667 47.104-47.104V109.909333c0-25.941333-21.162667-47.104-47.104-47.104H287.402667c-25.941333 0-47.104 21.162667-47.104 47.104v60.416c0 17.271467-14.1312 31.402667-31.402667 31.402667a31.470933 31.470933 0 0 1-31.402667-31.402667V109.909333C177.493333 49.152 226.645333 0 287.402667 0h592.554666C940.714667 0 989.866667 49.152 989.866667 109.909333v644.096c0 60.416-49.425067 109.636267-109.909334 109.636267z" p-id="13630"></path><path d="M359.082667 746.9056a33.655467 33.655467 0 0 1-23.3472-9.284267L180.906667 589.141333a33.792 33.792 0 1 1 47.035733-48.674133l131.618133 126.5664 265.216-248.354133a33.792 33.792 0 1 1 46.148267 49.493333L382.293333 738.235733a36.386133 36.386133 0 0 1-23.3472 8.669867z" p-id="13631"></path></svg>