<?xml version="1.0" standalone="no"?><!DOCTYPE svg PUBLIC "-//W3C//DTD SVG 1.1//EN" "http://www.w3.org/Graphics/SVG/1.1/DTD/svg11.dtd"><svg t="1754548190020" class="icon" viewBox="0 0 1024 1024" version="1.1" xmlns="http://www.w3.org/2000/svg" p-id="12533" xmlns:xlink="http://www.w3.org/1999/xlink" width="64" height="64"><path d="M337.322667 149.333333a17.322667 17.322667 0 0 0-17.322667 17.322667v98.56a42.666667 42.666667 0 0 1-85.333333 0v-98.56A102.656 102.656 0 0 1 337.322667 64h520.021333A102.656 102.656 0 0 1 960 166.656v520.021333a102.656 102.656 0 0 1-102.656 102.656h-99.669333a42.666667 42.666667 0 1 1 0-85.333333h99.669333a17.322667 17.322667 0 0 0 17.322667-17.322667V166.656a17.322667 17.322667 0 0 0-17.322667-17.322667H337.322667z" fill="#333333" p-id="12534"></path><path d="M64 337.322667A102.656 102.656 0 0 1 166.656 234.666667h520.021333A102.656 102.656 0 0 1 789.333333 337.322667v520.021333a102.656 102.656 0 0 1-102.656 102.656H166.656A102.656 102.656 0 0 1 64 857.344V337.322667zM166.656 320a17.322667 17.322667 0 0 0-17.322667 17.322667v520.021333c0 9.557333 7.765333 17.322667 17.322667 17.322667h520.021333a17.322667 17.322667 0 0 0 17.322667-17.322667V337.322667a17.322667 17.322667 0 0 0-17.322667-17.322667H166.656z" fill="#333333" p-id="12535"></path></svg>