<svg width="24" viewBox="0 0 28 28" fill="none" xmlns="http://www.w3.org/2000/svg"><path d="M26.2001 1.77561C26.827 2.37838 27.2368 3.17404 27.3333 4.04203C27.3333 4.40369 27.2368 4.64482 27.0198 5.10292C26.8029 5.56102 24.1265 10.1903 23.3309 11.4682C22.8728 12.2156 22.6317 13.1077 22.6317 13.9757C22.6317 14.8678 22.8728 15.7358 23.3309 16.4833C24.1265 17.7611 26.8029 22.4145 27.0198 22.8727C27.2368 23.3308 27.3333 23.5478 27.3333 23.9094C27.2368 24.7774 26.8511 25.5731 26.2242 26.1517C25.6214 26.7786 24.8258 27.1885 23.9819 27.2608C23.6202 27.2608 23.3791 27.1644 22.9451 26.9474C22.5111 26.7304 17.7854 24.1264 16.5075 23.3308C16.411 23.2825 16.3146 23.2102 16.1941 23.162L9.877 19.4248C10.0216 20.6303 10.5521 21.7877 11.4201 22.6315C11.5889 22.8003 11.7576 22.945 11.9505 23.0896C11.8059 23.162 11.6371 23.2343 11.4924 23.3308C10.2145 24.1264 5.56114 26.8027 5.10304 27.0197C4.64494 27.2367 4.42793 27.3332 4.04215 27.3332C3.17416 27.2367 2.3785 26.8509 1.79984 26.2241C1.17295 25.6213 0.76307 24.8256 0.666626 23.9576C0.690737 23.596 0.787181 23.2343 0.980069 22.9209C1.19707 22.4628 3.87338 17.8093 4.66903 16.5315C5.12716 15.784 5.36826 14.916 5.36826 14.024C5.36826 13.1318 5.12716 12.2638 4.66903 11.5164C3.87338 10.1903 1.17295 5.5369 0.980069 5.0788C0.787181 4.76535 0.690737 4.40369 0.666626 4.04203C0.76307 3.17404 1.14885 2.37838 1.77573 1.77561C2.3785 1.14872 3.17416 0.762947 4.04215 0.666504C4.40381 0.690615 4.76547 0.787059 5.10304 0.979947C5.48882 1.14872 8.88843 3.12582 10.6968 4.18671L11.1067 4.42781C11.2513 4.52425 11.3719 4.59658 11.4683 4.64482L11.6612 4.76535L18.0988 8.57489C17.9542 7.12822 17.2067 5.80212 16.0494 4.91003C16.1941 4.8377 16.3628 4.76535 16.5075 4.6689C17.7854 3.87326 22.4388 1.17283 22.8969 0.979947C23.2103 0.787059 23.572 0.690615 23.9578 0.666504C24.8016 0.762947 25.5973 1.14872 26.2001 1.77561ZM14.3375 15.7117L15.7118 14.3374C15.9047 14.1445 15.9047 13.8552 15.7118 13.6623L14.3375 12.288C14.1446 12.0951 13.8553 12.0951 13.6624 12.288L12.2881 13.6623C12.0952 13.8552 12.0952 14.1445 12.2881 14.3374L13.6624 15.7117C13.8312 15.8805 14.1446 15.8805 14.3375 15.7117Z" fill="#FF694A"></path></svg>