<svg width="24" viewBox="0 0 28 28" fill="none" xmlns="http://www.w3.org/2000/svg"><path fill-rule="evenodd" clip-rule="evenodd" d="M10.0778 0.666692C9.59335 0.668914 9.38002 0.666692 9.38002 0.666692C5.97782 5.60662 4.06895 8.37547 0.666748 13.3154C0.666748 13.3154 4.92005 13.3154 8.68447 13.3154C9.36668 13.3154 10.1156 13.3398 10.8867 13.4154L8.50891 16.7353L0.666748 27.333H11.8222C11.8222 27.333 11.8289 27.3308 11.8333 27.3308C11.8289 27.3308 11.8222 27.333 11.8222 27.333C11.8222 27.333 27.3332 26.8574 27.3332 13.2443C27.3332 1.31779 13.4955 0.653358 10.0778 0.666692Z" fill="#3793EF"></path><path fill-rule="evenodd" clip-rule="evenodd" d="M11.7529 27.3329C11.7529 27.3329 18.1904 26.0996 18.1904 19.9872C18.1904 14.9797 14.2904 13.5799 10.8232 13.2378L8.4602 16.6001L0.666748 27.3329H11.7529ZM15.1163 24.1799C15.123 24.1687 15.1296 24.1597 15.1362 24.1507C15.1296 24.1597 15.123 24.1709 15.1163 24.1799Z" fill="#1560AB"></path><path fill-rule="evenodd" clip-rule="evenodd" d="M8.50903 16.7355C13.4312 16.7355 16.6511 19.0421 16 22.2754C15.3467 25.5087 11.8223 27.3331 11.8223 27.3331C11.8223 27.3331 18.3 26.1153 18.3 20.0799C18.3 15.1355 14.3756 13.7533 10.8868 13.4155L8.50903 16.7355Z" fill="#012447"></path><path fill-rule="evenodd" clip-rule="evenodd" d="M0.666748 13.3154C4.06895 8.37547 5.97782 5.60662 9.38224 0.666692C9.38224 0.666692 9.59557 0.668914 10.08 0.666692C13.4955 0.653358 27.3332 1.31779 27.3332 13.2443C27.3332 26.8596 11.8222 27.333 11.8222 27.333C11.8222 27.333 18.3 26.1174 18.3 20.0797C18.3 14.0421 12.4489 13.3154 8.68447 13.3154C4.92005 13.3154 0.666748 13.3154 0.666748 13.3154Z" fill="#3793EF"></path></svg>