<svg t="1722587676093" class="icon" viewBox="0 0 1024 1024" version="1.1" xmlns="http://www.w3.org/2000/svg" p-id="18158" width="24"><path d="M912.69 936.69H119c-14.89 0-27-12.11-27-27V584.31c0-8.28 6.72-15 15-15s15 6.72 15 15v322.38h787.69V584.31c0-8.28 6.72-15 15-15s15 6.72 15 15v325.38c0 14.89-12.11 27-27 27z" fill="currentColor" p-id="18159"></path><path d="M511.31 572.85c-24.85 0-45-20.15-45-45V142.11c0-24.85 20.15-45 45-45s45 20.15 45 45v385.75c0 24.84-20.15 44.99-45 44.99z" fill="currentColor" p-id="18160"></path><path d="M511.31 737.38l-179.96-213.8h359.92z" fill="currentColor" p-id="18161"></path><path d="M511.31 752.38c-4.43 0-8.63-1.95-11.48-5.34l-179.96-213.8a14.977 14.977 0 0 1-2.12-15.99 15 15 0 0 1 13.6-8.67h359.92a15 15 0 0 1 11.48 24.66l-179.96 213.8a15.052 15.052 0 0 1-11.48 5.34z m-147.73-213.8l147.73 175.5 147.73-175.5H363.58z" fill="currentColor" p-id="18162"></path><path d="M912.69 936.69H119c-14.89 0-27-12.11-27-27V584.31c0-8.28 6.72-15 15-15s15 6.72 15 15v322.38h787.69V584.31c0-8.28 6.72-15 15-15s15 6.72 15 15v325.38c0 14.89-12.11 27-27 27z" fill="currentColor" p-id="18163"></path><path d="M511.31 572.85c-24.85 0-45-20.15-45-45V142.11c0-24.85 20.15-45 45-45s45 20.15 45 45v385.75c0 24.84-20.15 44.99-45 44.99z" fill="currentColor" p-id="18164"></path><path d="M511.31 737.38l-179.96-213.8h359.92z" fill="currentColor" p-id="18165"></path><path d="M511.31 752.38c-4.43 0-8.63-1.95-11.48-5.34l-179.96-213.8a14.977 14.977 0 0 1-2.12-15.99 15 15 0 0 1 13.6-8.67h359.92a15 15 0 0 1 11.48 24.66l-179.96 213.8a15.052 15.052 0 0 1-11.48 5.34z m-147.73-213.8l147.73 175.5 147.73-175.5H363.58z" fill="currentColor" p-id="18166"></path></svg>