<svg t="1722592109753" class="icon" viewBox="0 0 1024 1024" version="1.1" xmlns="http://www.w3.org/2000/svg" p-id="9601" width="24"><path d="M884.736 336.384c-58.88-150.016-204.8-256.512-375.808-256.512s-317.44 106.496-376.32 256.512C235.52 253.952 366.08 204.8 508.416 204.8c142.336 0 272.896 49.152 376.32 131.584z m-376.32 432.64c-140.288 0-269.312-48.128-371.712-128.512 61.44 144.896 204.8 246.784 372.224 246.784s310.784-101.888 372.224-246.784c-102.912 80.896-232.448 128.512-372.736 128.512z" fill="#F57C00" p-id="9602"></path><path d="M98.304 143.872c0 24.576 19.968 44.544 44.544 44.544s44.544-19.968 44.544-44.544c0-24.576-19.968-44.544-44.544-44.544s-44.544 19.968-44.544 44.544zM743.936 62.976c0 33.792 27.136 60.928 60.928 60.928 33.792 0 60.928-27.136 60.928-60.928S838.656 2.048 804.864 2.048c-33.792 0-60.928 27.136-60.928 60.928zM126.464 943.616c0 43.008 34.816 78.336 78.336 78.336s78.336-34.816 78.336-78.336c0-43.008-34.816-78.336-78.336-78.336s-78.336 35.328-78.336 78.336z" fill="#9FA0A0" p-id="9603"></path><path d="M108.032 360.448h98.816v11.264h-13.824c-5.632 0-9.728 1.024-11.776 3.072-2.56 2.048-3.584 5.12-3.584 8.704v144.896c0 11.264-2.56 21.504-8.192 30.208-5.632 9.216-13.312 16.384-24.064 21.504-10.24 5.12-22.528 8.192-35.328 8.192-17.92 0-32.768-5.12-44.032-15.872-11.264-10.752-16.896-23.552-16.896-38.4 0-11.264 3.072-20.48 8.704-27.136 5.632-6.656 12.8-10.24 20.992-10.24 6.656 0 12.288 2.048 16.896 6.656 4.608 4.608 6.656 9.728 6.656 16.896 0 5.632-2.048 10.752-5.632 14.848s-7.68 6.144-12.8 6.144c-2.048 0-4.096-0.512-7.68-1.536-2.56-1.024-4.608-1.024-5.632-1.024-1.536 0-3.072 0.512-4.096 2.048-1.024 1.536-1.536 3.584-1.536 6.144 0 7.68 3.584 14.336 11.264 20.48 7.68 6.144 16.896 9.216 28.16 9.216 12.8 0 22.528-4.608 29.696-13.312s10.752-20.992 10.752-36.352v-143.36c0-4.096-1.536-6.656-4.096-8.704-2.56-2.048-7.168-3.072-13.824-3.072h-19.968l1.024-11.264zM271.36 439.808c2.048 10.752 3.584 20.992 4.096 30.72 7.168-11.264 14.336-18.944 22.016-23.552 7.68-4.608 16.384-7.168 25.088-7.168 9.728 0 18.944 3.072 27.648 8.704 8.704 6.144 15.872 14.848 21.504 26.112s8.192 24.576 8.192 38.912c0 23.04-6.656 41.984-19.968 56.32-11.264 12.288-24.576 17.92-39.936 17.92-8.704 0-16.896-2.048-24.064-6.656-7.168-4.608-13.312-11.264-18.944-20.48v57.344c0 4.608 1.024 7.68 3.072 9.216 2.56 2.56 6.656 3.584 11.264 3.584h10.24v10.752H225.28v-10.752h10.24c4.608 0 8.704-1.024 10.752-3.072 2.56-2.048 3.584-4.608 3.584-7.68V472.064c0-7.168-1.536-11.776-5.12-14.848-3.584-3.072-9.728-4.608-19.968-4.608v-10.24l46.592-2.56z m43.52 13.824c-10.752 0-20.48 5.12-27.648 15.872-7.68 10.752-11.264 26.112-11.264 46.08 0 20.48 3.584 35.328 11.264 45.056 7.168 9.728 16.896 14.336 28.16 14.336 10.752 0 18.944-4.096 24.576-12.288 7.168-10.752 11.264-26.624 11.264-47.616 0-22.016-3.072-37.888-9.728-47.104-7.68-9.728-15.872-14.336-26.624-14.336z m86.016-11.264h68.096v10.24h-6.144c-6.144 0-10.24 1.024-12.288 2.56-2.048 1.536-3.072 3.584-3.072 6.656 0 1.536 0.512 2.56 1.024 4.096l39.424 84.992 29.184-70.656c2.048-5.12 3.072-9.728 3.072-14.848 0-3.584-1.536-6.656-4.608-8.704-3.072-2.048-8.704-3.584-17.408-4.096v-10.24h58.88v10.24c-11.264 1.024-18.944 6.144-23.04 15.36l-52.224 121.856c-8.704 20.48-17.92 34.816-26.624 42.496-9.216 7.68-18.944 11.776-29.184 11.776-7.68 0-13.824-2.048-18.432-6.144-4.608-4.096-6.656-9.216-6.656-15.36 0-4.608 1.536-8.192 4.096-11.264 3.072-3.072 6.144-4.608 10.752-4.608 3.584 0 7.168 1.024 9.728 3.584 2.56 2.56 4.096 5.632 4.096 9.216 0 1.024 0 2.56-0.512 4.608-0.512 1.536-0.512 2.56-0.512 3.584 0 2.56 1.536 3.584 4.608 3.584 3.584 0 7.168-1.024 11.264-3.584 4.096-2.56 8.192-6.144 11.776-11.776s10.24-17.408 18.944-35.328L420.864 465.92c-2.048-4.096-4.096-7.168-7.168-9.216-3.072-2.048-7.168-3.072-12.8-4.096v-10.24z m206.848-57.856h10.24v57.856h45.568v13.824h-45.568v90.624c0 7.68 2.048 13.824 5.632 17.92 3.584 4.096 8.704 6.144 14.336 6.144 6.656 0 12.8-3.072 17.408-9.728 4.608-6.144 7.68-16.896 8.704-31.232h10.24c-0.512 18.944-5.12 32.768-12.8 41.984-8.192 9.216-18.432 13.824-31.232 13.824-11.776 0-20.992-3.072-27.648-9.728-6.656-6.144-9.728-14.848-9.728-25.088V456.192H568.32V445.44c11.264-2.048 19.968-6.656 25.6-13.824 8.192-11.264 13.312-26.624 13.824-47.104z m216.064 130.048h-101.376c0.512 21.504 4.608 36.864 12.288 45.568 8.704 9.728 19.456 14.848 33.28 14.848 19.968 0 35.84-11.264 47.616-33.792l9.728 4.096c-14.848 28.672-35.84 43.008-64 43.008-18.944 0-34.816-6.656-47.616-20.48-12.8-13.824-19.456-31.232-19.456-52.736 0-23.04 6.144-41.472 18.944-55.808 12.8-14.336 28.672-20.992 47.104-20.992 13.824 0 25.6 3.584 35.328 10.752 9.728 7.168 17.408 17.408 22.528 30.208 3.584 9.216 5.632 20.992 5.632 35.328z m-101.376-10.752h61.44c3.584 0 6.656-1.024 8.704-3.584 2.048-2.56 3.072-6.656 3.072-12.8 0-11.264-3.584-20.48-10.24-28.16s-14.848-11.776-24.576-11.776c-10.24 0-19.456 4.608-26.624 13.824-7.68 9.728-11.776 23.552-11.776 42.496z m120.832-61.44l51.2-2.56v57.344c5.632-18.944 11.776-33.28 19.456-43.008 7.68-9.728 16.896-14.336 28.672-14.336 7.68 0 13.824 2.56 18.432 7.168 4.608 4.608 6.656 10.752 6.656 18.944 0 6.144-1.536 11.264-4.608 14.848-3.072 3.584-7.168 5.12-11.776 5.12-4.608 0-8.192-1.536-10.752-4.608-2.56-3.072-4.096-7.168-4.096-12.288 0-3.584 1.024-6.656 2.56-9.216s2.048-4.096 2.048-4.608c0-1.536-1.024-2.048-3.072-2.048-4.096 0-8.704 2.56-13.824 7.168-7.168 6.656-12.8 15.872-16.896 27.648-6.144 18.432-9.216 32.768-9.216 44.032v30.208c0 3.584 1.024 6.144 3.584 7.68 2.56 2.048 6.656 2.56 12.288 2.56h17.92v11.264h-88.064v-11.264h13.824c4.608 0 8.192-1.024 10.752-2.56 2.56-2.048 3.584-4.096 3.584-6.656V473.088c0-6.656-1.536-11.776-4.608-14.848s-7.168-4.608-12.8-4.608h-12.288l1.024-11.264z" p-id="9604"></path></svg>