<?xml version="1.0" standalone="no"?><!DOCTYPE svg PUBLIC "-//W3C//DTD SVG 1.1//EN" "http://www.w3.org/Graphics/SVG/1.1/DTD/svg11.dtd"><svg t="1754567557043" class="icon" viewBox="0 0 1024 1024" version="1.1" xmlns="http://www.w3.org/2000/svg" p-id="9116" xmlns:xlink="http://www.w3.org/1999/xlink" width="64" height="64"><path d="M544 18.517333l379.392 218.965334a64 64 0 0 1 32 55.466666v438.101334a64 64 0 0 1-32 55.466666l-379.392 218.965334a64 64 0 0 1-64 0L100.693333 786.517333a64 64 0 0 1-32-55.381333V292.949333a64 64 0 0 1 32-55.466666L480 18.517333a64 64 0 0 1 64 0zM512 96L151.722667 303.957333v416L512 927.914667l360.192-207.957334V303.957333l-360.106667-207.872v-0.085333z m39.082667 294.741333c19.2 0 36.181333 3.498667 50.858666 10.496a80.384 80.384 0 0 1 34.133334 29.866667c8.106667 12.8 12.117333 27.562667 12.117333 44.458667 0 2.048-2.133333 3.413333-6.314667 3.84l-52.821333 3.498666h-1.706667c-3.584 0-5.290667-0.597333-5.290666-1.706666v-2.133334a31.573333 31.573333 0 0 0-8.533334-23.04 30.122667 30.122667 0 0 0-22.442666-8.533333 30.037333 30.037333 0 0 0-22.528 8.533333 31.573333 31.573333 0 0 0-8.533334 23.04v75.776c0 9.386667 2.901333 17.066667 8.533334 22.784 5.973333 5.888 14.08 9.045333 22.528 8.618667a30.122667 30.122667 0 0 0 22.528-8.618667 31.061333 31.061333 0 0 0 8.448-22.784c0-1.109333 0.597333-2.133333 1.877333-2.986666a7.68 7.68 0 0 1 5.12-0.853334l52.821333 2.816c4.266667 0.256 6.314667 0.853333 6.314667 1.706667v1.792a82.261333 82.261333 0 0 1-12.117333 44.714667 81.322667 81.322667 0 0 1-34.133334 30.122666c-15.957333 7.424-33.28 11.093333-50.858666 10.752-19.2 0-36.266667-3.84-50.944-11.264a82.176 82.176 0 0 1-34.133334-31.914666 92.16 92.16 0 0 1-12.117333-47.701334v-71.168c0-17.834667 4.010667-33.536 12.202667-47.104a82.602667 82.602667 0 0 1 34.133333-31.744 110.08 110.08 0 0 1 50.858667-11.264z m-286.208 2.816a8.533333 8.533333 0 0 1 8.106666 4.522667l42.666667 69.376c0.426667 0.938667 1.109333 1.365333 1.962667 1.365333 1.024 0 1.706667-0.426667 2.218666-1.365333l42.581334-69.290667c1.706667-3.072 4.266667-4.608 8.106666-4.608h52.394667c4.522667 0 6.741333 2.218667 6.741333 6.656V633.173333c0 4.522667-2.218667 6.656-6.741333 6.656h-52.821333c-4.437333 0-6.656-2.218667-6.656-6.656V509.013333c0-1.365333-0.426667-2.218667-1.28-2.389333-0.853333-0.256-1.536 0.170667-2.218667 1.365333l-21.845333 36.266667c-1.706667 3.072-4.266667 4.608-8.106667 4.608h-24.661333a8.533333 8.533333 0 0 1-8.106667-4.608l-21.76-36.266667c-0.682667-0.853333-1.365333-1.365333-2.133333-1.365333-0.853333 0-1.365333 0.768-1.365334 2.389333v124.330667c0 4.437333-2.218667 6.656-6.741333 6.656H212.48c-4.437333 0-6.656-2.218667-6.656-6.656V400.213333c0-4.437333 2.218667-6.656 6.656-6.656h52.48z m513.962666 0c16.64 0 31.317333 3.328 43.946667 9.984 12.714667 6.656 22.442667 16.213333 29.44 28.501334 6.826667 12.373333 10.24 26.453333 10.24 42.410666a73.386667 73.386667 0 0 1-41.557333 69.290667c-14.08 6.826667-29.610667 10.24-45.226667 9.984h-36.266667c-1.962667 0-2.901333 0.853333-2.901333 2.730667v76.8c0 4.522667-2.133333 6.656-6.656 6.656h-52.821333c-4.437333 0-6.656-2.218667-6.656-6.656v-232.96c0-4.522667 2.218667-6.741333 6.656-6.741334h101.802666z m-10.922666 56.576h-28.501334c-1.962667 0-2.901333 1.024-2.901333 2.901334v45.056c0 1.877333 0.938667 2.730667 2.901333 2.730666h28.501334a30.890667 30.890667 0 0 0 20.906666-6.826666 22.784 22.784 0 0 0 7.936-18.090667 23.722667 23.722667 0 0 0-7.936-18.688 30.378667 30.378667 0 0 0-20.906666-7.082667z" fill="#8C8C8C" p-id="9117"></path></svg>