<svg width="30" viewBox="0 0 28 15" fill="none" xmlns="http://www.w3.org/2000/svg"><path d="M19.6083 7.53223C19.9167 9.9518 20.2028 12.2236 20.4999 14.4929C20.5351 14.7647 20.4788 14.8606 20.1743 14.8759C18.3409 14.967 18.342 14.9742 17.6792 13.3047C17.4033 12.61 17.1343 11.9126 16.8404 11.2248C16.7757 11.1117 16.7519 10.9805 16.7727 10.8524C16.7936 10.7243 16.8579 10.6069 16.9551 10.5194C17.8225 9.57195 18.6672 8.59878 19.6083 7.53223Z" fill="#00A587"></path><path d="M8.83139 9.56006C9.094 10.892 9.35305 12.1439 9.58114 13.4013C9.65153 13.7906 9.96825 14.285 9.69727 14.5482C9.46358 14.7744 8.94476 14.4544 8.54595 14.469C7.4865 14.5084 6.99339 14.0187 6.82127 12.9906C6.72025 12.387 6.67555 11.969 7.18134 11.5015C7.77171 10.8887 8.32284 10.2403 8.83139 9.56006Z" fill="#00A587"></path><path d="M11.8229 11.9895C11.8229 11.2415 11.8113 10.4935 11.8285 9.74581C11.8352 9.45215 11.7522 9.35308 11.435 9.34273C9.27157 9.27226 7.10856 9.18685 4.94602 9.08644C4.60636 9.07088 4.47226 9.16576 4.40011 9.49616C4.06643 11.0261 3.6877 12.547 3.36177 14.0788C3.27025 14.5089 3.10342 14.6674 2.64621 14.6186C2.1389 14.5669 1.62817 14.5553 1.11898 14.584C0.73532 14.603 0.661412 14.4455 0.667037 14.1169C0.700124 11.8195 0.749051 9.52207 0.726527 7.22542C0.722371 6.51868 0.962259 5.8315 1.4069 5.27642C2.60362 3.64013 3.75634 1.97442 4.91575 0.312859C4.97829 0.199084 5.0767 0.108381 5.19618 0.0544157C5.31565 0.000450492 5.44971 -0.0138579 5.57816 0.0136481C9.90115 0.468688 14.2257 0.909538 18.552 1.33618C18.8226 1.36809 19.081 1.46528 19.3042 1.61911C21.8785 3.26509 24.4483 4.91696 27.0357 6.54285C27.4229 6.78526 27.4335 6.92378 27.0614 7.14299C26.9812 7.18555 26.9097 7.24211 26.8502 7.3099C26.1051 8.25706 25.2311 8.21448 24.1752 7.79473C22.8989 7.28879 21.553 6.95322 20.2443 6.52311C20.1198 6.47344 19.9847 6.45462 19.8511 6.46833C19.7174 6.48204 19.5892 6.52784 19.4777 6.60172C18.2739 7.33726 17.0647 8.06381 15.8499 8.78133C15.7405 8.839 15.647 8.92211 15.5777 9.02332C15.5083 9.1246 15.4651 9.24105 15.4518 9.36248C15.1853 10.9416 14.8805 12.5138 14.6355 14.0971C14.5651 14.5507 14.4008 14.6945 13.9425 14.6629C13.3606 14.6291 12.7771 14.6282 12.195 14.6602C11.8497 14.6754 11.7613 14.5563 11.7726 14.2325C11.7951 13.4848 11.7796 12.7361 11.7796 11.9881L11.8229 11.9895Z" fill="#00A587"></path></svg>