<svg t="1722594933679" class="icon" viewBox="0 0 1024 1024" fill="currentColor" version="1.1" xmlns="http://www.w3.org/2000/svg" p-id="16278" width="22"><path d="M352.7 107.5H57.5C25.7 107.5 0 132.7 0 163.8v282c0 31.1 25.7 56.4 57.5 56.4h295.2c31.8 0 57.5-25.2 57.5-56.4v-282c0.2-31.1-25.7-56.3-57.5-56.3z m-8.4 330.2H66V172.1h278.4v265.6z m8.4 191.5H57.5C25.7 629.2 0 654.5 0 685.6v282c0 31.1 25.7 56.4 57.5 56.4h295.2c31.8 0 57.5-25.2 57.5-56.4V685.7c0.2-31.1-25.7-56.5-57.5-56.5z m-8.4 330.3H66V693.9h278.4v265.6z m548.4-330.3H597.5c-31.8 0-57.5 25.2-57.5 56.4v282c0 31.1 25.7 56.4 57.5 56.4h295.2c31.8 0 57.5-25.2 57.5-56.4V685.7c0-31.1-25.7-56.5-57.5-56.5z m-8.4 330.3H605.9V693.9h278.3v265.6z m123-704.2L803.8 56c-11.3-11-26.1-16.6-40.8-16.6-14.7 0-29.5 5.5-40.7 16.5L513.6 260.4c-22.4 22.1-22.4 57.7 0 79.8l203.6 199.4c11.3 11 26 16.5 40.7 16.5 14.7 0 29.5-5.5 40.7-16.5l208.7-204.5c22.5-22.1 22.5-57.8 0-79.8zM758 488.2L566.1 300.3 763 107.5l191.8 187.8L758 488.2z" p-id="16279"></path></svg>