<?xml version="1.0" standalone="no"?><!DOCTYPE svg PUBLIC "-//W3C//DTD SVG 1.1//EN" "http://www.w3.org/Graphics/SVG/1.1/DTD/svg11.dtd"><svg t="1780648262407" class="icon" viewBox="0 0 1024 1024" version="1.1" xmlns="http://www.w3.org/2000/svg" p-id="7099" width="128" height="128" xmlns:xlink="http://www.w3.org/1999/xlink"><path d="M940.7 228.8c-16.6-34.2-38.6-65.4-65.1-92.6-11.1-11.5-24.3-20.6-39-26.9-14.5-6.3-30.2-9.5-46-9.6H670.8c-37.1-21.7-78.9-34-121.9-35.6-49.8-2.1-99.2 10.2-142.1 35.6H288.5c-53.8 0-98.7 7.9-133.5 23.1-31.8 13.8-55.8 34.1-71.5 60-10.2 16.9-16 39.8-17.8 70.1-1.4 23.1-0.3 50.6 3.1 81.6 6 54.1 18.1 108.7 26.6 139l1.8 6.3c7.5 26.9 18.9 67.7 35.2 105 21.3 48.9 45.4 79.6 73.6 94 10.4 5.3 21.8 8.4 33.4 9 1.2 0 2.4 0.1 3.5 0.1 11.3-0.1 22.4-2.3 32.8-6.6 23.6-9.6 43.1-27.2 54.8-49.9l7.2-13.7c2.7 2.5 5.6 5 8.5 7.3 12.5 10 26.1 18.6 40.5 25.6-10.2 8.3-21 15.9-32.3 22.5-1.1 0.6-2.2 1.3-3.3 1.9-18.1 10.5-28.1 30.9-25.1 51.5 2.6 20.7 17.7 37.6 37.9 42.4 15.6 3.7 31.5 5.5 47.5 5.5 7.9 0 15.7-0.4 23.5-1.4 15.1-1.8 29.9-5.2 44.2-10.2V834c0 16.8 3.3 33.4 9.7 48.9 6.1 14.9 15 28.4 26.3 39.9 11.1 11.4 24.4 20.5 39 26.8 15.1 6.5 31.3 9.9 47.7 9.8h0.1c16.4 0.1 32.6-3.2 47.7-9.7 14.6-6.3 27.9-15.4 39-26.9 11.3-11.5 20.2-25.1 26.3-39.9 6.4-15.5 9.7-32.2 9.7-49v-90.4c4.3 0.3 8.9 0.5 13.3 0.5 21.8-0.1 43.5-3.4 64.3-9.8 27.6-8.5 53.8-20.9 77.9-36.8 13.9-9.1 20.9-25.8 17.8-42.1-2.9-16.3-15.5-29.2-31.7-32.5-26.1-5-51.5-13.4-75.4-24.9l133.3-182.1c39.8-54.4 46.1-126.4 16.6-187zM256.8 631.5c-10.3 4.1-18.8 3.9-27.6-0.5-11.5-5.8-29.3-22.4-49.2-67.9-14.7-33.9-25.5-72.4-32.7-97.9l-1.8-6.4c-11.5-42.7-19.8-86.3-24.9-130.2-8.9-80.4 2.1-108.9 7.2-117.4 9.9-16.3 25.9-29.5 47.5-39 28.4-12.3 66.4-18.7 113.1-18.7H345c-29.7 36.4-48.7 82.5-55.4 134.9-1.4 11.3-2.5 23.1-3.2 35l-0.1 0.7v199.3l0.2 1c0.2 2.4 2.1 22.8 15.6 48.2l-17.7 33.6c-5.9 11.4-15.7 20.4-27.6 25.3z m95.6-77c-6.7-10.3-11.4-21.7-13.8-33.8V351H380c-0.3 2.1-0.5 4.2-0.5 6.3 0 18.2 14.4 33.1 32.2 33.1 17.8 0 32.2-14.7 32.2-32.9 0-1.1 0-2.1-0.2-3.2 23 8 38.4 29.8 38.3 54.2v38.3c0.1 45.9-11.7 91-34.1 130.9-6.3 11.2-13.4 21.9-21.3 32.1-16.6-6.1-32.2-14.7-46.3-25.5-10.9-8.2-20.3-18.3-27.9-29.8z m76.7 165.4c-15.4 1.8-31 1.2-46.2-1.6 20.4-12.2 39.4-26.8 56.4-43.5 12.7 9 22.9 21 29.8 34.9-12.8 5.2-26.3 8.6-40 10.2z m243.4-7.1v121.4c0.1 19-7.4 37.3-20.7 50.8-13.1 13.5-31.1 21-49.8 20.9h-0.1c-18.7 0.1-36.7-7.5-49.8-21-13.3-13.5-20.7-31.8-20.6-50.7v-81.1c0-47.6-21.9-91.1-57.5-118.6 6.9-9.6 13.3-19.6 19-29.9 27-48.2 41.1-102.5 41.1-157.7v-38.3c0-14.8-2.9-29.4-8.5-43.1-5.4-13.1-13.2-25-23.1-35.1-9.8-10.1-21.4-18.2-34.3-23.9-13.3-5.8-27.6-8.8-42-8.9h-85c0.1-0.7 0.2-1.6 0.3-2.4 3.8-30 12.5-57.1 25.7-80.8 11.9-21.5 28-40.3 47.4-55.4 36.4-28.4 83.4-43 132.3-41.1 48.9 1.9 94.5 20.1 128.6 51.3 18.1 16.5 32.7 36.5 42.9 58.7 10 22 16.3 45.6 18.5 69.7h-24.1c-27.2 0.1-53.3 11.2-72.2 30.8-19.3 19.8-30 46.4-29.9 74.1-0.1 36.1 7.2 71.8 21.5 105 14.1 33 34.8 62.7 61 87.2 6 5.6 12.2 11 18.7 16.1-0.2 0.2-0.3 0.4-0.5 0.6-25.1 27.8-39 64-38.9 101.4z m9.1-350c2.3 15.8 15.7 27.7 31.7 27.8 9.5 0 18.5-4.3 24.5-11.7l-0.1 143.5v1.6c0.8 12.6 0 25.2-2.3 37.6-2.5-2.1-4.9-4.3-7.2-6.5-41.6-38.8-65.4-94.5-65.4-152.6 0.1-15.3 7-29.9 18.8-39.7zM787.7 683c-20.9 6.2-41.1 8.7-60.4 7.3 3.8-15.8 11.4-30.3 22.3-42.3 2.1-2.4 4.4-5 6.6-7.8 21.9 11.8 44.9 21.1 68.8 27.9-11.9 6-24.4 11-37.3 14.9z m118.6-363.1c-2 23.1-10.3 45.2-23.9 63.9l-92.2 126 0.1-184.5c0.3-5.9 0.2-11.7-0.3-17.6v-0.1c-2.9-59.9-22.6-112.7-56.7-154.1h57.4c8.9 0 17.7 1.9 25.9 5.4 8.3 3.5 15.7 8.7 22 15.1 22.5 23.1 41.2 49.7 55.3 78.7 10.2 20.8 14.5 44.1 12.4 67.2z" p-id="7100"></path></svg>