<?xml version="1.0" standalone="no"?>
<!DOCTYPE svg PUBLIC "-//W3C//DTD SVG 1.1//EN" "http://www.w3.org/Graphics/SVG/1.1/DTD/svg11.dtd">
<svg t="1773311962240" class="icon" viewBox="0 0 1705 1024" version="1.1"
  xmlns="http://www.w3.org/2000/svg" p-id="1868" xmlns:xlink="http://www.w3.org/1999/xlink"
  width="79.921875" height="48">
  <path
    d="M480.589948 370.84696a160.296983 160.296983 0 0 0 6.48 50.476995 263.637972 263.637972 0 0 0 18.416998 40.585995 26.260997 26.260997 0 0 1 4.092999 12.959999 21.827998 21.827998 0 0 1-10.913999 16.711998l-34.105996 23.873998a28.307997 28.307997 0 0 1-15.005998 5.114999 23.532997 23.532997 0 0 1-16.711998-7.843999 129.601986 129.601986 0 0 1-20.463998-26.260997q-8.525999-14.324998-17.393998-34.105997a209.409978 209.409978 0 0 1-166.776983 78.442992 154.839983 154.839983 0 0 1-113.229987-40.585996 145.631984 145.631984 0 0 1-41.609996-109.137988 145.972984 145.972984 0 0 1 49.793995-115.959987 206.680978 206.680978 0 0 1 139.151985-43.995996 425.298954 425.298954 0 0 1 60.025993 4.434q31.376997 4.433 65.141993 12.277998v-41.609995a124.485987 124.485987 0 0 0-26.942997-90.71999 129.942986 129.942986 0 0 0-92.42699-26.261998 262.955972 262.955972 0 0 0-61.049993 7.503 435.871953 435.871953 0 0 0-61.048994 19.439998 155.180983 155.180983 0 0 1-19.780998 7.503999h-8.867999q-11.936999 0-11.936998-17.734998V69.009993a37.174996 37.174996 0 0 1 4.092999-19.780998 40.926996 40.926996 0 0 1 16.029999-11.936999 371.06996 371.06996 0 0 1 71.279992-25.579997A347.537963 347.537963 0 0 1 285.164969 0.8a204.634978 204.634978 0 0 1 148.359984 46.042995 187.23998 187.23998 0 0 1 47.065995 139.492985z m-230.213975 86.287991a182.80698 182.80698 0 0 0 58.661994-10.572999 123.803987 123.803987 0 0 0 53.545994-36.492996 89.35699 89.35699 0 0 0 19.099998-34.105996 192.015979 192.015979 0 0 0 5.455999-49.111995v-23.873998a489.417947 489.417947 0 0 0-52.181994-9.549999 421.887955 421.887955 0 0 0-53.204994-3.409999 130.965986 130.965986 0 0 0-84.240991 22.849997 79.807991 79.807991 0 0 0-26.943997 63.095994 80.148991 80.148991 0 0 0 20.804997 60.025993 81.853991 81.853991 0 0 0 59.002994 21.145998z m455.311951 61.389993a34.105996 34.105996 0 0 1-21.827997-5.456999 44.337995 44.337995 0 0 1-11.936999-22.168998L539.251942 52.299994a102.316989 102.316989 0 0 1-5.115999-22.849997 12.277999 12.277999 0 0 1 13.982998-13.983999h55.592994a34.105996 34.105996 0 0 1 22.168998 5.457 47.747995 47.747995 0 0 1 11.253999 22.168997l95.155989 375.16296 88.333991-375.16296a39.903996 39.903996 0 0 1 11.253999-21.827997 37.515996 37.515996 0 0 1 22.850997-5.457h45.701995a37.515996 37.515996 0 0 1 22.849998 5.457 39.903996 39.903996 0 0 1 10.914999 22.168997l89.01599 379.93796 98.22499-379.93796a47.406995 47.406995 0 0 1 11.594998-22.169997 34.105996 34.105996 0 0 1 22.169998-5.456h52.521994a12.277999 12.277999 0 0 1 13.982999 13.982999 46.383995 46.383995 0 0 1 0 8.867999 124.144987 124.144987 0 0 1-4.092 13.982998l-136.422985 438.599953a44.337995 44.337995 0 0 1-11.936999 22.169998 34.105996 34.105996 0 0 1-21.827998 5.455999h-49.793994a34.105996 34.105996 0 0 1-22.850998-5.797999 42.972995 42.972995 0 0 1-10.913999-22.849998l-88.33399-365.27396-87.309991 364.93196a42.972995 42.972995 0 0 1-10.914999 22.850998 34.105996 34.105996 0 0 1-22.849997 5.797999z m728.499922 15.006999a384.712959 384.712959 0 0 1-87.310991-9.890999 253.746973 253.746973 0 0 1-65.482993-22.849998 34.105996 34.105996 0 0 1-20.804997-31.719996v-28.647997q0-17.734998 12.959998-17.734998a30.694997 30.694997 0 0 1 10.572999 2.045999l14.323999 5.798a299.107968 299.107968 0 0 0 62.413993 19.781998 333.553964 333.553964 0 0 0 68.211992 6.819999 152.793984 152.793984 0 0 0 82.876992-18.756998 60.025994 60.025994 0 0 0 29.329996-53.546994 54.909994 54.909994 0 0 0-15.346998-39.561996 146.313984 146.313984 0 0 0-59.343994-30.012997l-82.194991-25.919997a175.644981 175.644981 0 0 1-88.33399-57.297994 134.376986 134.376986 0 0 1-28.307997-82.194991 126.190986 126.190986 0 0 1 15.347998-63.095993 152.452984 152.452984 0 0 1 40.585996-46.724995 179.736981 179.736981 0 0 1 57.979994-29.329997 252.382973 252.382973 0 0 1 71.279992-9.891999 302.517968 302.517968 0 0 1 38.199996 2.388q19.439998 2.387 36.832996 6.479999t32.399996 8.866999a145.631984 145.631984 0 0 1 23.874998 9.890999 54.227994 54.227994 0 0 1 16.711998 13.982998 32.059997 32.059997 0 0 1 5.115999 18.758998V88.109991q0 17.734998-12.959998 17.734998a60.025994 60.025994 0 0 1-21.827998-6.82 263.978972 263.978972 0 0 0-109.138988-21.828997 149.041984 149.041984 0 0 0-75.373992 16.029998 54.569994 54.569994 0 0 0-26.942997 50.476995 53.886994 53.886994 0 0 0 16.711998 40.243995 168.482982 168.482982 0 0 0 62.412993 31.377997l80.489992 24.214997a173.256981 173.256981 0 0 1 87.65199 54.569994 128.237986 128.237986 0 0 1 26.601998 81.852992 143.584985 143.584985 0 0 1-15.005999 65.823993 150.064984 150.064984 0 0 1-41.267995 50.135994 185.19398 185.19398 0 0 1-63.095994 31.717997 281.37297 281.37297 0 0 1-80.148991 9.889999z"
    fill="currentColor" p-id="1869"></path>
  <path
    d="M1541.279834 812.857913c-186.55898 137.786985-457.358951 211.114977-688.595926 211.114977A1249.635866 1249.635866 0 0 1 7.542999 702.354925c-17.393998-15.687998-2.046-37.174996 19.099998-25.237998A1697.785818 1697.785818 0 0 0 870.759906 901.191903a1679.02682 1679.02682 0 0 0 643.575931-131.989986c31.376997-13.299999 57.979994 20.804998 26.943997 43.655996z"
    fill="currentColor" p-id="1870"></path>
  <path
    d="M1619.039826 724.182922c-23.872997-30.694997-157.908983-14.323998-217.934977-7.161999-18.075998 2.046-21.145998-13.642999-4.774999-25.238997 106.750989-75.031992 282.05497-53.545994 302.176968-28.306997s-5.456999 200.882978-105.386989 284.782969c-15.346998 12.959999-30.012997 6.138999-23.191998-10.913999 22.509998-56.615994 72.986992-182.46598 49.112995-213.160977z"
    fill="currentColor" p-id="1871"></path>
  <path
    d="M480.589948 370.84696a160.296983 160.296983 0 0 0 6.48 50.476995 263.637972 263.637972 0 0 0 18.416998 40.585995 26.260997 26.260997 0 0 1 4.092999 12.959999 21.827998 21.827998 0 0 1-10.913999 16.711998l-34.105996 23.873998a28.307997 28.307997 0 0 1-15.005998 5.114999 23.532997 23.532997 0 0 1-16.711998-7.843999 129.601986 129.601986 0 0 1-20.463998-26.260997q-8.525999-14.324998-17.393998-34.105997a209.409978 209.409978 0 0 1-166.776983 78.442992 154.839983 154.839983 0 0 1-113.229987-40.585996 145.631984 145.631984 0 0 1-41.609996-109.137988 145.972984 145.972984 0 0 1 49.793995-115.959987 206.680978 206.680978 0 0 1 139.151985-43.995996 425.298954 425.298954 0 0 1 60.025993 4.434q31.376997 4.433 65.141993 12.277998v-41.609995a124.485987 124.485987 0 0 0-26.942997-90.71999 129.942986 129.942986 0 0 0-92.42699-26.261998 262.955972 262.955972 0 0 0-61.049993 7.503 435.871953 435.871953 0 0 0-61.048994 19.439998 155.180983 155.180983 0 0 1-19.780998 7.503999h-8.867999q-11.936999 0-11.936998-17.734998V69.009993a37.174996 37.174996 0 0 1 4.092999-19.780998 40.926996 40.926996 0 0 1 16.029999-11.936999 371.06996 371.06996 0 0 1 71.279992-25.579997A347.537963 347.537963 0 0 1 285.164969 0.8a204.634978 204.634978 0 0 1 148.359984 46.042995 187.23998 187.23998 0 0 1 47.065995 139.492985z m-230.213975 86.287991a182.80698 182.80698 0 0 0 58.661994-10.572999 123.803987 123.803987 0 0 0 53.545994-36.492996 89.35699 89.35699 0 0 0 19.099998-34.105996 192.015979 192.015979 0 0 0 5.455999-49.111995v-23.873998a489.417947 489.417947 0 0 0-52.181994-9.549999 421.887955 421.887955 0 0 0-53.204994-3.409999 130.965986 130.965986 0 0 0-84.240991 22.849997 79.807991 79.807991 0 0 0-26.943997 63.095994 80.148991 80.148991 0 0 0 20.804997 60.025993 81.853991 81.853991 0 0 0 59.002994 21.145998z m455.311951 61.389993a34.105996 34.105996 0 0 1-21.827997-5.456999 44.337995 44.337995 0 0 1-11.936999-22.168998L539.251942 52.299994a102.316989 102.316989 0 0 1-5.115999-22.849997 12.277999 12.277999 0 0 1 13.982998-13.983999h55.592994a34.105996 34.105996 0 0 1 22.168998 5.457 47.747995 47.747995 0 0 1 11.253999 22.168997l95.155989 375.16296 88.333991-375.16296a39.903996 39.903996 0 0 1 11.253999-21.827997 37.515996 37.515996 0 0 1 22.850997-5.457h45.701995a37.515996 37.515996 0 0 1 22.849998 5.457 39.903996 39.903996 0 0 1 10.914999 22.168997l89.01599 379.93796 98.22499-379.93796a47.406995 47.406995 0 0 1 11.594998-22.169997 34.105996 34.105996 0 0 1 22.169998-5.456h52.521994a12.277999 12.277999 0 0 1 13.982999 13.982999 46.383995 46.383995 0 0 1 0 8.867999 124.144987 124.144987 0 0 1-4.092 13.982998l-136.422985 438.599953a44.337995 44.337995 0 0 1-11.936999 22.169998 34.105996 34.105996 0 0 1-21.827998 5.455999h-49.793994a34.105996 34.105996 0 0 1-22.850998-5.797999 42.972995 42.972995 0 0 1-10.913999-22.849998l-88.33399-365.27396-87.309991 364.93196a42.972995 42.972995 0 0 1-10.914999 22.850998 34.105996 34.105996 0 0 1-22.849997 5.797999z m728.499922 15.006999a384.712959 384.712959 0 0 1-87.310991-9.890999 253.746973 253.746973 0 0 1-65.482993-22.849998 34.105996 34.105996 0 0 1-20.804997-31.719996v-28.647997q0-17.734998 12.959998-17.734998a30.694997 30.694997 0 0 1 10.572999 2.045999l14.323999 5.798a299.107968 299.107968 0 0 0 62.413993 19.781998 333.553964 333.553964 0 0 0 68.211992 6.819999 152.793984 152.793984 0 0 0 82.876992-18.756998 60.025994 60.025994 0 0 0 29.329996-53.546994 54.909994 54.909994 0 0 0-15.346998-39.561996 146.313984 146.313984 0 0 0-59.343994-30.012997l-82.194991-25.919997a175.644981 175.644981 0 0 1-88.33399-57.297994 134.376986 134.376986 0 0 1-28.307997-82.194991 126.190986 126.190986 0 0 1 15.347998-63.095993 152.452984 152.452984 0 0 1 40.585996-46.724995 179.736981 179.736981 0 0 1 57.979994-29.329997 252.382973 252.382973 0 0 1 71.279992-9.891999 302.517968 302.517968 0 0 1 38.199996 2.388q19.439998 2.387 36.832996 6.479999t32.399996 8.866999a145.631984 145.631984 0 0 1 23.874998 9.890999 54.227994 54.227994 0 0 1 16.711998 13.982998 32.059997 32.059997 0 0 1 5.115999 18.758998V88.109991q0 17.734998-12.959998 17.734998a60.025994 60.025994 0 0 1-21.827998-6.82 263.978972 263.978972 0 0 0-109.138988-21.828997 149.041984 149.041984 0 0 0-75.373992 16.029998 54.569994 54.569994 0 0 0-26.942997 50.476995 53.886994 53.886994 0 0 0 16.711998 40.243995 168.482982 168.482982 0 0 0 62.412993 31.377997l80.489992 24.214997a173.256981 173.256981 0 0 1 87.65199 54.569994 128.237986 128.237986 0 0 1 26.601998 81.852992 143.584985 143.584985 0 0 1-15.005999 65.823993 150.064984 150.064984 0 0 1-41.267995 50.135994 185.19398 185.19398 0 0 1-63.095994 31.717997 281.37297 281.37297 0 0 1-80.148991 9.889999z"
    fill="currentColor" p-id="1872"></path>
  <path
    d="M1541.279834 812.857913c-186.55898 137.786985-457.358951 211.114977-688.595926 211.114977A1249.635866 1249.635866 0 0 1 7.542999 702.354925c-17.393998-15.687998-2.046-37.174996 19.099998-25.237998A1697.785818 1697.785818 0 0 0 870.759906 901.191903a1679.02682 1679.02682 0 0 0 643.575931-131.989986c31.376997-13.299999 57.979994 20.804998 26.943997 43.655996z"
    fill="currentColor" p-id="1873"></path>
  <path
    d="M1619.039826 724.182922c-23.872997-30.694997-157.908983-14.323998-217.934977-7.161999-18.075998 2.046-21.145998-13.642999-4.774999-25.238997 106.750989-75.031992 282.05497-53.545994 302.176968-28.306997s-5.456999 200.882978-105.386989 284.782969c-15.346998 12.959999-30.012997 6.138999-23.191998-10.913999 22.509998-56.615994 72.986992-182.46598 49.112995-213.160977z"
    fill="currentColor" p-id="1874"></path>
</svg>