
<svg width="23" height="18" viewBox="0 0 23 18" fill="currentColor" xmlns="http://www.w3.org/2000/svg">
  <g clip-path="url(#clip0_176_4)">
  <path d="M20.5055 0H1.92239C1.41254 0 0.923574 0.202537 0.563056 0.563056C0.202537 0.923574 0 1.41254 0 1.92239L0 12.5981C0 13.1079 0.202537 13.5969 0.563056 13.9574C0.923574 14.3179 1.41254 14.5205 1.92239 14.5205H9.61196V16.7184H7.48451C7.31456 16.7184 7.15157 16.7859 7.0314 16.9061C6.91123 17.0263 6.84372 17.1893 6.84372 17.3592C6.84372 17.5292 6.91123 17.6921 7.0314 17.8123C7.15157 17.9325 7.31456 18 7.48451 18H14.937C15.1069 18 15.2699 17.9325 15.3901 17.8123C15.5103 17.6921 15.5778 17.5292 15.5778 17.3592C15.5778 17.1893 15.5103 17.0263 15.3901 16.9061C15.2699 16.7859 15.1069 16.7184 14.937 16.7184H12.848V14.5205H20.5055C21.0154 14.5205 21.5043 14.3179 21.8649 13.9574C22.2254 13.5969 22.4279 13.1079 22.4279 12.5981V1.92239C22.4279 1.41254 22.2254 0.923574 21.8649 0.563056C21.5043 0.202537 21.0154 4.66201e-09 20.5055 0ZM11.7394 16.7184H10.6821V14.5205H11.7394V16.7184ZM21.1463 12.5981C21.1463 12.768 21.0788 12.931 20.9586 13.0512C20.8385 13.1714 20.6755 13.2389 20.5055 13.2389H1.92239C1.83824 13.2389 1.75491 13.2223 1.67717 13.1901C1.59942 13.1579 1.52878 13.1107 1.46928 13.0512C1.40978 12.9917 1.36258 12.921 1.33037 12.8433C1.29817 12.7656 1.28159 12.6822 1.28159 12.5981V1.92239C1.28159 1.83824 1.29817 1.75491 1.33037 1.67717C1.36258 1.59942 1.40978 1.52878 1.46928 1.46928C1.52878 1.40978 1.59942 1.36258 1.67717 1.33037C1.75491 1.29817 1.83824 1.28159 1.92239 1.28159H20.5055C20.5897 1.28159 20.673 1.29817 20.7507 1.33037C20.8285 1.36258 20.8991 1.40978 20.9586 1.46928C21.0181 1.52878 21.0653 1.59942 21.0975 1.67717C21.1297 1.75491 21.1463 1.83824 21.1463 1.92239V12.5981Z" fill="currentColor"/>
  <g clip-path="url(#clip1_176_4)">
  <path d="M18.1746 10.2286C18.0875 10.3158 17.7486 10.0161 17.6341 9.84292C17.6544 10.0543 17.578 10.4758 17.473 10.4722C17.2762 10.4651 17.1485 9.89426 17.2237 9.51095C15.9852 8.80044 14.7264 9.42139 14.7264 9.42139C14.8815 9.44049 15.2454 9.4799 15.2359 9.6435C15.2359 9.75097 14.7586 10.0722 13.2815 9.95278C12.8174 10.3445 10.9441 11.1875 9.28444 10.9081C8.08652 10.631 7.44103 10.0734 7.10217 9.49304C7.40881 9.70917 8.69861 10.4376 11.2293 9.63394C14.1501 8.70849 15.0832 8.20099 17.5041 8.83029C17.5657 8.96605 17.6121 9.10822 17.6425 9.25421C18.0457 9.51572 18.2915 10.1116 18.1746 10.2286Z" fill="#B7E3FF"/>
  <path d="M16.9767 7.92986C17.193 8.20543 17.3715 8.50862 17.5077 8.83143C15.0868 8.20093 14.1537 8.71202 11.2329 9.63508C8.70221 10.4387 7.41241 9.71031 7.10219 9.49298C6.78249 8.91056 6.68054 8.2332 6.81465 7.58237C6.86834 7.52744 6.93396 7.46296 7.00078 7.40564C7.27759 7.65402 8.63301 8.70247 11.2782 8.04092C11.2782 8.04092 15.4101 6.99247 16.9767 7.92986Z" fill="#52AAFF"/>
  <path d="M15.5951 6.72024C16.1275 7.03293 16.5963 7.44332 16.9768 7.92989C15.4101 6.9925 11.2783 8.04095 11.2783 8.04095C8.63306 8.7025 7.27764 7.65405 6.99963 7.40328C7.69429 6.81531 8.50019 6.37345 9.36923 6.10406C10.0078 6.39188 10.7162 6.48812 11.4083 6.3811C12.6432 6.20557 14.0965 6.1781 15.5951 6.72024Z" fill="#0175F2"/>
  <path d="M15.0139 6.41337C15.2127 6.50567 15.4067 6.6081 15.595 6.72026C14.0964 6.17813 12.6431 6.20559 11.4106 6.38113C10.7177 6.48834 10.0085 6.3921 9.36914 6.10409C10.6017 5.70406 12.1921 5.53927 14.0344 6.04677C14.3692 6.14551 14.6965 6.26802 15.0139 6.41337Z" fill="#015BCB"/>
  <path d="M11.2854 4.29735C11.2854 4.35618 11.268 4.41371 11.2356 4.46276C11.2031 4.51182 11.1569 4.55022 11.1028 4.57319C10.8524 4.69691 10.6495 4.89956 10.5253 5.14996C10.5067 5.06081 10.4971 4.96998 10.4967 4.87889C10.4974 4.61402 10.5809 4.356 10.7353 4.14092C10.7459 4.12508 10.7575 4.10992 10.7699 4.09554C10.7972 4.06535 10.8306 4.04124 10.8678 4.02478C10.905 4.00832 10.9452 3.99988 10.9859 4.00001C11.0251 3.99969 11.064 4.00715 11.1003 4.02195C11.1366 4.03676 11.1697 4.05861 11.1975 4.08625C11.2254 4.11389 11.2475 4.14678 11.2625 4.18301C11.2776 4.21924 11.2854 4.2581 11.2854 4.29735Z" fill="#015BCB"/>
  <path d="M10.2557 5.45329C10.2553 5.49957 10.2525 5.54581 10.2473 5.59181C10.1031 5.44366 9.92434 5.3337 9.72713 5.27178H9.71281C9.66332 5.25628 9.61838 5.22887 9.58192 5.19196C9.54546 5.15505 9.51859 5.10977 9.50366 5.06006C9.48874 5.01035 9.48621 4.95774 9.4963 4.90683C9.50639 4.85592 9.52879 4.80826 9.56155 4.76802C9.5943 4.72778 9.63641 4.69619 9.68418 4.67601C9.73196 4.65582 9.78395 4.64766 9.83561 4.65224C9.88727 4.65682 9.93702 4.674 9.9805 4.70227C10.024 4.73054 10.0599 4.76905 10.0851 4.81443C10.1976 5.00844 10.2565 5.22895 10.2557 5.45329Z" fill="#015BCB"/>
  <path d="M11.5013 9.85007C11.6515 9.85007 11.7733 9.72817 11.7733 9.5778C11.7733 9.42744 11.6515 9.30554 11.5013 9.30554C11.351 9.30554 11.2292 9.42744 11.2292 9.5778C11.2292 9.72817 11.351 9.85007 11.5013 9.85007Z" fill="#0175F2"/>
  </g>
  </g>
  <defs>
  <clipPath id="clip0_176_4">
  <rect width="22.4121" height="18" fill="white"/>
  </clipPath>
  <clipPath id="clip1_176_4">
  <rect width="17" height="7" fill="white" transform="translate(4 4)"/>
  </clipPath>
  </defs>
  </svg>