<svg t="1722593604217" class="icon" viewBox="0 0 1523 1024" version="1.1" xmlns="http://www.w3.org/2000/svg" p-id="7059" width="18" height="18"><path d="M1076.936103 682.068355c-128.227488-0.898966-254.831844-39.604439-376.54183-114.9178-97.587736-60.430481-195.92461-91.020291-292.039041-91.020291-32.712368 0-65.29988 3.745691-96.68877 11.062274-93.267706 21.97472-147.87988 67.347524-149.503013 68.895743a79.408649 79.408649 0 0 1-52.239904 19.277823h-1.623133a76.162384 76.162384 0 0 1-53.263726-21.075754c-13.834085-13.234775-21.425352-30.58981-21.125697-48.843811 0.149828-18.503714 8.340405-35.858748 23.348141-48.594098l1.198621-1.023822 0.299655-0.124856c20.376559-16.48104 93.417533-70.319106 207.68608-98.986128a601.632887 601.632887 0 0 1 144.758471-17.729604c28.417309 0 57.109302 2.047644 85.676439 5.918192 96.863569 13.609344 193.702167 50.242202 288.018666 108.874752 98.636529 61.054763 199.070991 92.019142 298.731342 92.019142 154.422354 0 256.055436-74.289538 267.642107-83.15434a80.282644 80.282644 0 0 1 49.393179-16.580926c21.57518 0 42.401222 8.340405 57.284101 22.723859l0.449482 0.524397c27.218688 28.667022 24.097279 72.117037-7.441439 97.063339-7.441439 5.918192-45.372804 33.036995-103.55587 58.732435-58.607578 26.094981-152.624422 57.084331-266.892969 57.08433h-3.570892v-0.124856zM1071.017911 1023.975029c-127.203666-1.548219-252.609401-40.228721-372.970938-114.9178-97.138253-60.155797-195.025644-90.745607-291.165046-90.745607-33.311679 0-66.173874 3.745691-97.887391 11.062274-18.728455 4.369973-37.182226 10.013481-55.186514 16.830638l46.721252 29.815701c12.660436 8.090693 18.154116 22.623974 13.53443 36.133432-4.744542 13.484488-18.4288 22.623974-33.761161 22.623974h-1.348449l-229.835599-7.466411c-18.004288-0.649253-34.210644-9.638911-42.850705-24.172193a42.376251 42.376251 0 0 1 1.048793-45.872229l117.814467-179.044029a36.008576 36.008576 0 0 1 30.340097-15.831787c19.053082 0 34.535271 13.484488 35.559094 30.714666l1.648104 27.768056a593.741965 593.741965 0 0 1 217.200135-41.002831c124.53174 0 250.087302 38.705474 373.570248 114.9178 98.636529 61.054763 199.195847 92.044113 298.88117 92.044113 160.515345 0 262.872594-79.583448 267.192624-82.904627a79.158936 79.158936 0 0 1 49.243351-16.730754c22.024663 0 43.000533 8.615089 57.259129 23.797624 13.109918 13.7342 19.652392 31.463804 18.154116 49.867633a66.173874 66.173874 0 0 1-25.570584 47.045879l-0.449483 0.249712c-15.632017 11.836384-158.592557 115.691909-369.999356 115.691909h-7.141784V1023.975029z m296.808554-661.863599c-19.053082 0-34.685099-13.484488-35.559093-30.714666l-1.947759-37.007427c-60.255682 24.546762-145.932121 49.093523-248.28937 49.093524h-3.745691c-128.527144-1.023822-255.106528-39.579468-376.516859-114.9178-98.636529-60.929907-196.523921-91.769429-290.540765-91.769429-32.138029 0-64.12623 3.595863-95.51512 10.662733-84.502789 19.152967-137.916342 58.732435-152.324767 70.418991l-0.174799 0.149828a80.157787 80.157787 0 0 1-51.765449 18.503713c-20.676214 0-40.628262-7.716123-54.886859-21.325467-28.716964-27.393487-27.693142-70.968359 2.222443-97.06334C63.92646 113.772118 142.211401 49.521031 268.066619 17.882428a601.632887 601.632887 0 0 1 230.310053-11.686556c96.988425 13.634315 193.851994 50.267173 288.168494 108.874752 98.636529 60.929907 199.195847 91.894286 298.88117 91.894286a478.449596 478.449596 0 0 0 175.548051-33.411564L1222.144057 148.482187c-12.635464-8.090693-17.979317-22.723859-13.234775-36.108461 4.744542-13.484488 18.303943-22.499117 33.761162-22.499117h1.348448l230.135255 7.466411c18.154116 0.624282 34.210644 9.638911 42.850705 24.147221a42.376251 42.376251 0 0 1-1.048794 45.8972l-117.814467 178.919173c-6.392646 9.913595-17.85446 15.806816-30.340097 15.806816z" fill="currentColor" p-id="7060"></path></svg>