<svg width="24" viewBox="0 0 28 14" fill="none" xmlns="http://www.w3.org/2000/svg"><path d="M20.4811 0.333496C18.1947 0.333496 16.0885 1.61983 14.053 3.86738C12.0528 1.58449 9.91125 0.333496 7.51882 0.333496C3.55734 0.333496 0.666626 3.16061 0.666626 6.96658C0.666626 10.7726 3.55734 13.5643 7.51882 13.5643C9.95366 13.5643 11.8408 12.4229 13.947 10.1471C15.9825 12.43 18.0533 13.5714 20.4811 13.5714C24.4426 13.5643 27.3333 10.7832 27.3333 6.96658C27.3333 3.15 24.4426 0.333496 20.4811 0.333496ZM7.54712 9.57109C5.8685 9.57109 4.86841 8.46495 4.86841 7.00191C4.86841 5.53892 5.8685 4.401 7.54712 4.401C8.96065 4.401 10.1162 5.53892 11.3672 7.07262C10.1869 8.50028 8.93945 9.57109 7.54712 9.57109ZM20.361 9.57109C18.9686 9.57109 17.7918 8.46495 16.5408 7.00191C17.8272 5.46821 18.9333 4.401 20.361 4.401C22.0395 4.401 23.0291 5.55304 23.0291 7.00191C23.0291 8.45083 22.0395 9.57109 20.361 9.57109Z" fill="#484848"></path><path d="M16.937 12.6194L19.6016 9.43896C18.5415 9.12093 17.5626 8.16675 16.5483 6.98291L13.9545 10.1457C14.8036 11.131 15.8118 11.9671 16.937 12.6194Z" fill="#20A7C9"></path><path d="M14.0561 3.86229C13.2126 2.86291 12.2107 2.00806 11.0912 1.33203L8.4231 4.54787C9.43731 4.90125 10.335 5.81297 11.2891 6.97565L11.3951 7.04985L14.0561 3.86229Z" fill="#20A7C9"></path></svg>