<svg width="24" viewBox="0 0 28 28" fill="none" xmlns="http://www.w3.org/2000/svg"><path d="M13.2704 18.556H14.7297V14.5759H18.4003V13.1608H14.7297V9.18066H13.2704V13.1608H9.64404V14.5759H13.2704V18.556Z" fill="#E8762D"></path><path d="M6.50422 24.3051H7.74247V20.7673H11.015V19.6617H7.74247V16.0796H6.50422V19.6617H3.23169V20.7673H6.50422V24.3051Z" fill="#C72037"></path><path d="M20.2576 11.5246H21.4959V7.98671H24.8126V6.92535H21.4959V3.34326H20.2576V6.92535H16.9851V7.98671H20.2576V11.5246Z" fill="#5B879B"></path><path d="M13.4914 27.0912H14.5528V24.5705H16.8082V23.6418H14.5528V21.1211H13.4914V23.6418H11.2803V24.5705H13.4914V27.0912Z" fill="#5C6692"></path><path d="M6.54844 11.5246H7.69825V7.94249H11.015V6.92535H7.69825V3.34326H6.54844V6.92535H3.23169V7.94249H6.54844V11.5246Z" fill="#EB9129"></path><path d="M24.0166 16.8312H25.0779V14.3547H27.3333V13.3818H25.0779V10.9053H24.0166V13.3818H21.8054V14.3547H24.0166V16.8312Z" fill="#5C6692"></path><path fill-rule="evenodd" clip-rule="evenodd" d="M20.2576 24.3051H21.4959V20.7673H24.8126V19.6617H21.4959V16.0796H20.2576V19.6617H16.9851V20.7673H20.2576V24.3051Z" fill="#1F457E"></path><path d="M16.6314 3.9624V3.2106H14.4202V0.77832H13.6242V3.2106H11.413V3.9624H13.6242V6.39468H14.4202V3.9624H16.6314ZM2.87791 16.6545H3.67393V14.2222H5.8851V13.4704H3.67393V11.0824H2.87791V13.4704H0.666748V14.2664L2.87791 14.2222V16.6545Z" fill="#7199A6"></path></svg>