<svg t="1722926141155" class="icon" viewBox="0 0 1024 1024" version="1.1" xmlns="http://www.w3.org/2000/svg" p-id="9293" width="24"><path d="M602.997 253.974c-35.512 0-69.293 7.586-99.83 21.301l-84.355-146.117C474.334 101.397 536.92 85.73 602.997 85.73c26.36 0 52.115 2.501 77.1 7.256a152.012 152.012 0 0 0-0.633 13.77c0 81.993 66.847 148.84 148.839 148.84 32.186 0 62.009-10.308 86.39-27.79 56.676 64.896 93.48 147.492 100.82 238.224l-168.547 5.195C832.893 349.241 728.72 253.974 602.997 253.974z m225.306-40.46c-58.82 0-106.785-47.936-106.785-106.757C721.518 47.964 769.482 0 828.303 0c58.82 0 106.784 47.964 106.784 106.757 0 58.82-47.963 106.757-106.784 106.757zM357.435 499.509c0 77.621 36.337 146.997 92.876 192.047l-83.448 147.381c-71.96-50.217-127.317-122.671-155.985-207.274 39.305-26.827 65.225-71.987 65.225-123.001 0-53.049-28.009-99.748-70.008-126.107 26.497-89.55 82.569-166.623 156.864-219.781l88.864 143.479c-57.42 44.995-94.388 114.975-94.388 193.256zM127.237 615.446c-58.793 0-106.757-47.964-106.757-106.784 0-58.793 47.964-106.757 106.757-106.757 58.848 0 106.784 47.964 106.784 106.757 0 58.82-47.936 106.784-106.784 106.784z m475.76 129.598c126.328 0 230.886-96.175 244.189-219.038l168.628 2.666c-6.926 98.676-48.705 188.006-113.078 255.678-20.587-10.775-43.978-16.877-68.716-16.877-78.171 0-142.627 60.772-148.426 137.486a413.28 413.28 0 0 1-82.597 8.329c-64.785 0-126.217-15.063-180.887-41.807l83.97-146.447c29.768 12.864 62.56 20.01 96.917 20.01z m231.023 64.483c58.793 0 106.757 47.964 106.757 106.784 0 58.766-47.964 106.757-106.757 106.757-58.82 0-106.784-47.99-106.784-106.757 0-58.82 47.963-106.784 106.784-106.784z" fill="#FFFFFF" p-id="9294"></path></svg>