
<svg width="45" height="28" viewBox="0 0 45 28" fill="none" xmlns="http://www.w3.org/2000/svg">
  <path d="M36.9207 12.7574C37.4247 10.0908 36.9025 7.33225 35.4586 5.03446C34.0146 2.73667 31.7557 1.06943 29.1344 0.366836C26.5131 -0.335755 23.7231 -0.0217931 21.3235 1.24581C18.924 2.51341 17.092 4.641 16.1949 7.20224C15.3162 6.45673 14.2215 6.01283 13.0717 5.93579C11.9219 5.85876 10.7778 6.15266 9.80746 6.77429C8.83715 7.39592 8.09189 8.31247 7.68126 9.38917C7.27063 10.4659 7.21629 11.6459 7.52624 12.7558C5.51509 12.7812 3.59549 13.6004 2.18574 15.035C0.775995 16.4695 -0.00962326 18.4032 8.89905e-05 20.4144C0.00980125 22.4257 0.814057 24.3516 2.23759 25.7725C3.66113 27.1934 5.58856 27.994 7.59985 28H36.7206C38.7234 27.9976 40.6447 27.207 42.0692 25.7993C43.4938 24.3916 44.3071 22.4799 44.3334 20.4773C44.3597 18.4747 43.5968 16.5423 42.2097 15.0977C40.8225 13.6531 38.9226 12.8124 36.9207 12.7574ZM18.6456 7.5559C18.6737 7.51333 18.7041 7.47493 18.7365 7.4346C18.8102 7.35336 18.9003 7.28858 19.0007 7.24446C19.1012 7.20034 19.2099 7.17789 19.3196 7.17856C19.5033 7.17768 19.6815 7.24051 19.8241 7.35636C19.9666 7.47221 20.0645 7.63389 20.1012 7.81386C20.1378 7.99382 20.1109 8.18093 20.0251 8.3433C19.9392 8.50566 19.7997 8.63323 19.6304 8.70426V8.7065C18.9635 9.03622 18.4235 9.57601 18.0935 10.2428C17.9938 9.78122 17.9915 9.30396 18.0867 8.84148C18.182 8.379 18.3726 7.94148 18.6465 7.55686L18.6456 7.5559ZM16.1715 8.90589C16.3233 8.90603 16.4723 8.94703 16.6028 9.02457C16.7332 9.10211 16.8404 9.21335 16.9131 9.3466C17.2151 9.8619 17.3738 10.4485 17.373 11.0458C17.3726 11.169 17.366 11.2922 17.3532 11.4148C16.9655 11.0195 16.4855 10.7269 15.9565 10.5634C15.9444 10.5579 15.9316 10.5544 15.9184 10.5532C15.7263 10.4924 15.5624 10.3649 15.4561 10.1938C15.3498 10.0226 15.3083 9.81911 15.339 9.62001C15.3697 9.42092 15.4706 9.23937 15.6234 9.10816C15.7763 8.97696 15.9711 8.90476 16.1725 8.90461L16.1715 8.90589ZM38.4716 23.7564C38.2386 23.9891 37.3367 23.1918 37.0314 22.7297C37.0868 23.2926 36.8822 24.4164 36.6041 24.4058C36.0779 24.3853 35.74 22.8667 35.9374 21.8476C32.638 19.9548 29.2842 21.6095 29.2842 21.6095L29.2982 21.6136C29.7108 21.6661 30.6825 21.7714 30.6559 22.2051C30.6383 22.4915 29.3831 23.349 25.4499 23.0283C24.2129 24.0736 19.2204 26.3175 14.8007 25.581C11.5944 24.8302 9.87704 23.3451 8.98088 21.8044C8.97896 21.8002 8.9748 21.7942 8.97288 21.79C8.97096 21.7858 8.96904 21.7842 8.96904 21.7842C8.21944 20.4315 7.91506 18.8771 8.09914 17.3416C8.14174 16.9416 8.32992 16.5713 8.62787 16.3011L8.69988 16.237C10.5515 14.6724 12.6988 13.4961 15.0142 12.7782C19.0519 11.5004 23.3776 11.4478 27.4451 12.6272C28.3368 12.8888 29.2082 13.2151 30.0523 13.6036C30.5826 13.8481 31.0992 14.1209 31.6001 14.4211C33.0178 15.2538 34.2664 16.3457 35.2807 17.6398C35.8556 18.374 36.3306 19.1812 36.6931 20.0403C36.6953 20.0463 36.6973 20.0505 36.6995 20.0563C36.8583 20.4163 36.9773 20.7925 37.0544 21.1784V21.1803C38.1282 21.8607 38.7827 23.4479 38.4726 23.758L38.4716 23.7564Z" fill="#8D8D8D"/>
  <path d="M20.6934 22.7539C21.0935 22.7539 21.418 22.4295 21.418 22.0293C21.418 21.6291 21.0935 21.3047 20.6934 21.3047C20.2932 21.3047 19.9688 21.6291 19.9688 22.0293C19.9688 22.4295 20.2932 22.7539 20.6934 22.7539Z" fill="#8D8D8D"/>
  </svg>
  