<svg width="229" height="28" viewBox="0 0 229 28" fill="none" xmlns="http://www.w3.org/2000/svg">
  <g clipPath="url(#clip0_2_35)">
    <path d="M36.9207 12.7574C37.4247 10.0908 36.9025 7.33225 35.4586 5.03446C34.0146 2.73667 31.7557 1.06943 29.1344 0.366836C26.5131 -0.335755 23.7231 -0.0217931 21.3235 1.24581C18.924 2.51341 17.092 4.641 16.1949 7.20224C15.3162 6.45673 14.2215 6.01283 13.0717 5.93579C11.9219 5.85876 10.7778 6.15266 9.80746 6.77429C8.83715 7.39592 8.09189 8.31247 7.68126 9.38917C7.27063 10.4659 7.21629 11.6459 7.52624 12.7558C5.51509 12.7812 3.59549 13.6004 2.18574 15.035C0.775995 16.4695 -0.00962326 18.4032 8.89905e-05 20.4144C0.00980125 22.4257 0.814057 24.3516 2.23759 25.7725C3.66113 27.1934 5.58856 27.994 7.59985 28H36.7206C38.7234 27.9976 40.6447 27.207 42.0692 25.7993C43.4938 24.3916 44.3071 22.4799 44.3334 20.4773C44.3597 18.4747 43.5968 16.5423 42.2097 15.0977C40.8225 13.6531 38.9226 12.8124 36.9207 12.7574ZM18.6456 7.5559C18.6737 7.51333 18.7041 7.47493 18.7365 7.4346C18.8102 7.35336 18.9003 7.28858 19.0007 7.24446C19.1012 7.20034 19.2099 7.17789 19.3196 7.17856C19.5033 7.17768 19.6815 7.24051 19.8241 7.35636C19.9666 7.47221 20.0645 7.63389 20.1012 7.81386C20.1378 7.99382 20.1109 8.18093 20.0251 8.3433C19.9392 8.50566 19.7997 8.63323 19.6304 8.70426V8.7065C18.9635 9.03622 18.4235 9.57601 18.0935 10.2428C17.9938 9.78122 17.9915 9.30396 18.0867 8.84148C18.182 8.379 18.3726 7.94148 18.6465 7.55686L18.6456 7.5559ZM16.1715 8.90589C16.3233 8.90603 16.4723 8.94703 16.6028 9.02457C16.7332 9.10211 16.8404 9.21335 16.9131 9.3466C17.2151 9.8619 17.3738 10.4485 17.373 11.0458C17.3726 11.169 17.366 11.2922 17.3532 11.4148C16.9655 11.0195 16.4855 10.7269 15.9565 10.5634C15.9444 10.5579 15.9316 10.5544 15.9184 10.5532C15.7263 10.4924 15.5624 10.3649 15.4561 10.1938C15.3498 10.0226 15.3083 9.81911 15.339 9.62001C15.3697 9.42092 15.4706 9.23937 15.6234 9.10816C15.7763 8.97696 15.9711 8.90476 16.1725 8.90461L16.1715 8.90589ZM38.4716 23.7564C38.2386 23.9891 37.3367 23.1918 37.0314 22.7297C37.0868 23.2926 36.8822 24.4164 36.6041 24.4058C36.0779 24.3853 35.74 22.8667 35.9374 21.8476C32.638 19.9548 29.2842 21.6095 29.2842 21.6095L29.2982 21.6136C29.7108 21.6661 30.6825 21.7714 30.6559 22.2051C30.6383 22.4915 29.3831 23.349 25.4499 23.0283C24.2129 24.0736 19.2204 26.3175 14.8007 25.581C11.5944 24.8302 9.87704 23.3451 8.98088 21.8044C8.97896 21.8002 8.9748 21.7942 8.97288 21.79C8.97096 21.7858 8.96904 21.7842 8.96904 21.7842C8.21944 20.4315 7.91506 18.8771 8.09914 17.3416C8.14174 16.9416 8.32992 16.5713 8.62787 16.3011L8.69988 16.237C10.5515 14.6724 12.6988 13.4961 15.0142 12.7782C19.0519 11.5004 23.3776 11.4478 27.4451 12.6272C28.3368 12.8888 29.2082 13.2151 30.0523 13.6036C30.5826 13.8481 31.0992 14.1209 31.6001 14.4211C33.0178 15.2538 34.2664 16.3457 35.2807 17.6398C35.8556 18.374 36.3306 19.1812 36.6931 20.0403C36.6953 20.0463 36.6973 20.0505 36.6995 20.0563C36.8583 20.4163 36.9773 20.7925 37.0544 21.1784V21.1803C38.1282 21.8607 38.7827 23.4479 38.4726 23.758L38.4716 23.7564Z" fill="white"/>
    <path d="M20.6934 22.7539C21.0935 22.7539 21.418 22.4295 21.418 22.0293C21.418 21.6291 21.0935 21.3047 20.6934 21.3047C20.2932 21.3047 19.9688 21.6291 19.9688 22.0293C19.9688 22.4295 20.2932 22.7539 20.6934 22.7539Z" fill="white"/>
    <path d="M58.9307 6.81175C60.5114 6.81175 61.8928 7.12505 63.0749 7.75167C64.2569 8.37828 65.1683 9.26124 65.8092 10.4005C66.4643 11.5256 66.7918 12.8287 66.7918 14.3097C66.7918 15.7766 66.4643 17.0797 65.8092 18.219C65.1683 19.3583 64.2498 20.2412 63.0535 20.8678C61.8715 21.4944 60.4972 21.8077 58.9307 21.8077H53.3125V6.81175H58.9307ZM58.6957 18.6462C60.0771 18.6462 61.1523 18.2688 61.9213 17.514C62.6903 16.7592 63.0749 15.6911 63.0749 14.3097C63.0749 12.9283 62.6903 11.8531 61.9213 11.0841C61.1523 10.3151 60.0771 9.93057 58.6957 9.93057H56.9654V18.6462H58.6957Z" fill="white"/>
    <path d="M68.1069 15.8264C68.1069 14.6017 68.3348 13.5265 68.7905 12.6008C69.2604 11.6751 69.8942 10.9631 70.6917 10.4646C71.4892 9.96618 72.3793 9.71695 73.3619 9.71695C74.2021 9.71695 74.9356 9.88785 75.5622 10.2296C76.203 10.5714 76.6943 11.02 77.0361 11.5754V9.88785H80.689V21.8077H77.0361V20.1202C76.6801 20.6756 76.1817 21.1242 75.5408 21.466C74.9142 21.8077 74.1808 21.9786 73.3405 21.9786C72.3721 21.9786 71.4892 21.7294 70.6917 21.231C69.8942 20.7183 69.2604 19.9991 68.7905 19.0734C68.3348 18.1335 68.1069 17.0512 68.1069 15.8264ZM77.0361 15.8478C77.0361 14.9364 76.7798 14.2172 76.2671 13.6903C75.7687 13.1633 75.1563 12.8999 74.43 12.8999C73.7037 12.8999 73.0842 13.1633 72.5715 13.6903C72.0731 14.2029 71.8238 14.915 71.8238 15.8264C71.8238 16.7379 72.0731 17.4642 72.5715 18.0053C73.0842 18.5323 73.7037 18.7957 74.43 18.7957C75.1563 18.7957 75.7687 18.5323 76.2671 18.0053C76.7798 17.4784 77.0361 16.7592 77.0361 15.8478Z" fill="white"/>
    <path d="M89.9752 18.7103V21.8077H88.1167C86.7923 21.8077 85.7598 21.4873 85.0193 20.8465C84.2787 20.1914 83.9085 19.1304 83.9085 17.6636V12.9212H82.4559V9.88785H83.9085V6.98264H87.5613V9.88785H89.9539V12.9212H87.5613V17.7063C87.5613 18.0623 87.6468 18.3186 87.8177 18.4753C87.9886 18.632 88.2734 18.7103 88.6721 18.7103H89.9752Z" fill="white"/>
    <path d="M91.2836 15.8264C91.2836 14.6017 91.5115 13.5265 91.9672 12.6008C92.4372 11.6751 93.0709 10.9631 93.8684 10.4646C94.6659 9.96618 95.556 9.71695 96.5386 9.71695C97.3789 9.71695 98.1123 9.88785 98.7389 10.2296C99.3798 10.5714 99.8711 11.02 100.213 11.5754V9.88785H103.866V21.8077H100.213V20.1202C99.8568 20.6756 99.3584 21.1242 98.7175 21.466C98.0909 21.8077 97.3575 21.9786 96.5173 21.9786C95.5489 21.9786 94.6659 21.7294 93.8684 21.231C93.0709 20.7183 92.4372 19.9991 91.9672 19.0734C91.5115 18.1335 91.2836 17.0512 91.2836 15.8264ZM100.213 15.8478C100.213 14.9364 99.9565 14.2172 99.4438 13.6903C98.9454 13.1633 98.333 12.8999 97.6067 12.8999C96.8804 12.8999 96.2609 13.1633 95.7483 13.6903C95.2498 14.2029 95.0006 14.915 95.0006 15.8264C95.0006 16.7379 95.2498 17.4642 95.7483 18.0053C96.2609 18.5323 96.8804 18.7957 97.6067 18.7957C98.333 18.7957 98.9454 18.5323 99.4438 18.0053C99.9565 17.4784 100.213 16.7592 100.213 15.8478Z" fill="white"/>
    <path d="M110.161 11.5754C110.503 11.02 110.994 10.5714 111.635 10.2296C112.276 9.88785 113.01 9.71695 113.836 9.71695C114.818 9.71695 115.708 9.96618 116.506 10.4646C117.303 10.9631 117.93 11.6751 118.386 12.6008C118.856 13.5265 119.091 14.6017 119.091 15.8264C119.091 17.0512 118.856 18.1335 118.386 19.0734C117.93 19.9991 117.303 20.7183 116.506 21.231C115.708 21.7294 114.818 21.9786 113.836 21.9786C112.995 21.9786 112.262 21.8149 111.635 21.4873C111.009 21.1455 110.517 20.6969 110.161 20.1415V21.8077H106.508V6H110.161V11.5754ZM115.374 15.8264C115.374 14.915 115.117 14.2029 114.605 13.6903C114.106 13.1633 113.487 12.8999 112.746 12.8999C112.02 12.8999 111.4 13.1633 110.888 13.6903C110.389 14.2172 110.14 14.9364 110.14 15.8478C110.14 16.7592 110.389 17.4784 110.888 18.0053C111.4 18.5323 112.02 18.7957 112.746 18.7957C113.472 18.7957 114.092 18.5323 114.605 18.0053C115.117 17.4642 115.374 16.7379 115.374 15.8264Z" fill="white"/>
    <path d="M132.243 15.6555C132.243 15.9973 132.222 16.3534 132.179 16.7236H123.912C123.969 17.4642 124.204 18.0338 124.617 18.4326C125.044 18.8171 125.564 19.0093 126.176 19.0093C127.088 19.0093 127.722 18.6248 128.078 17.8558H131.966C131.766 18.6391 131.403 19.344 130.876 19.9706C130.363 20.5972 129.715 21.0886 128.932 21.4446C128.149 21.8006 127.273 21.9786 126.305 21.9786C125.137 21.9786 124.097 21.7294 123.186 21.231C122.274 20.7325 121.562 20.0205 121.05 19.0948C120.537 18.1691 120.281 17.0868 120.281 15.8478C120.281 14.6088 120.53 13.5265 121.028 12.6008C121.541 11.6751 122.253 10.9631 123.164 10.4646C124.076 9.96618 125.123 9.71695 126.305 9.71695C127.458 9.71695 128.484 9.95906 129.381 10.4433C130.278 10.9275 130.976 11.6182 131.474 12.5154C131.987 13.4126 132.243 14.4593 132.243 15.6555ZM128.505 14.6943C128.505 14.0676 128.291 13.5692 127.864 13.1989C127.437 12.8287 126.903 12.6435 126.262 12.6435C125.65 12.6435 125.13 12.8215 124.703 13.1776C124.29 13.5336 124.033 14.0392 123.934 14.6943H128.505Z" fill="white"/>
    <path d="M141.433 9.75968C142.829 9.75968 143.94 10.2154 144.766 11.1268C145.606 12.024 146.026 13.263 146.026 14.8438V21.8077H142.395V15.3351C142.395 14.5376 142.188 13.9181 141.775 13.4766C141.362 13.0352 140.807 12.8144 140.109 12.8144C139.411 12.8144 138.856 13.0352 138.443 13.4766C138.03 13.9181 137.823 14.5376 137.823 15.3351V21.8077H134.17V9.88785H137.823V11.4686C138.193 10.9417 138.692 10.5287 139.319 10.2296C139.945 9.91633 140.65 9.75968 141.433 9.75968Z" fill="white"/>
    <path d="M147.838 15.8264C147.838 14.6017 148.066 13.5265 148.522 12.6008C148.992 11.6751 149.625 10.9631 150.423 10.4646C151.22 9.96618 152.111 9.71695 153.093 9.71695C153.876 9.71695 154.589 9.88073 155.229 10.2083C155.884 10.5358 156.397 10.9773 156.767 11.5327V6H160.42V21.8077H156.767V20.0988C156.426 20.6684 155.934 21.1242 155.293 21.466C154.667 21.8077 153.933 21.9786 153.093 21.9786C152.111 21.9786 151.22 21.7294 150.423 21.231C149.625 20.7183 148.992 19.9991 148.522 19.0734C148.066 18.1335 147.838 17.0512 147.838 15.8264ZM156.767 15.8478C156.767 14.9364 156.511 14.2172 155.998 13.6903C155.5 13.1633 154.888 12.8999 154.161 12.8999C153.435 12.8999 152.816 13.1633 152.303 13.6903C151.804 14.2029 151.555 14.915 151.555 15.8264C151.555 16.7379 151.804 17.4642 152.303 18.0053C152.816 18.5323 153.435 18.7957 154.161 18.7957C154.888 18.7957 155.5 18.5323 155.998 18.0053C156.511 17.4784 156.767 16.7592 156.767 15.8478Z" fill="white"/>
    <path d="M167.184 14.3525C167.184 12.8999 167.512 11.5968 168.167 10.4433C168.822 9.27548 169.712 8.36404 170.837 7.70895C171.976 7.05385 173.237 6.7263 174.618 6.7263C176.241 6.7263 177.658 7.11793 178.869 7.9012C180.079 8.68447 180.962 9.79528 181.518 11.2336H179.189C178.776 10.3364 178.178 9.64575 177.395 9.16155C176.626 8.67735 175.7 8.43525 174.618 8.43525C173.578 8.43525 172.646 8.67735 171.82 9.16155C170.994 9.64575 170.346 10.3364 169.876 11.2336C169.406 12.1166 169.171 13.1562 169.171 14.3525C169.171 15.5345 169.406 16.5741 169.876 17.4713C170.346 18.3543 170.994 19.0378 171.82 19.522C172.646 20.0062 173.578 20.2483 174.618 20.2483C175.7 20.2483 176.626 20.0134 177.395 19.5434C178.178 19.0592 178.776 18.3685 179.189 17.4713H181.518C180.962 18.8954 180.079 19.9991 178.869 20.7824C177.658 21.5514 176.241 21.9359 174.618 21.9359C173.237 21.9359 171.976 21.6155 170.837 20.9746C169.712 20.3195 168.822 19.4152 168.167 18.2617C167.512 17.1081 167.184 15.8051 167.184 14.3525Z" fill="white"/>
    <path d="M186.355 6V21.8077H184.411V6H186.355Z" fill="white"/>
    <path d="M194.774 22C193.677 22 192.68 21.7508 191.783 21.2523C190.9 20.7539 190.203 20.049 189.69 19.1375C189.191 18.2118 188.942 17.1437 188.942 15.9332C188.942 14.737 189.199 13.6831 189.711 12.7717C190.238 11.846 190.95 11.1411 191.847 10.6569C192.745 10.1584 193.749 9.90921 194.859 9.90921C195.97 9.90921 196.974 10.1584 197.871 10.6569C198.769 11.1411 199.474 11.8389 199.986 12.7503C200.513 13.6618 200.777 14.7227 200.777 15.9332C200.777 17.1437 200.506 18.2118 199.965 19.1375C199.438 20.049 198.719 20.7539 197.807 21.2523C196.896 21.7508 195.885 22 194.774 22ZM194.774 20.2911C195.472 20.2911 196.127 20.1273 196.739 19.7997C197.352 19.4722 197.843 18.9809 198.213 18.3258C198.598 17.6707 198.79 16.8732 198.79 15.9332C198.79 14.9933 198.605 14.1958 198.235 13.5407C197.864 12.8856 197.38 12.4014 196.782 12.0881C196.184 11.7606 195.536 11.5968 194.838 11.5968C194.126 11.5968 193.471 11.7606 192.873 12.0881C192.289 12.4014 191.819 12.8856 191.463 13.5407C191.107 14.1958 190.929 14.9933 190.929 15.9332C190.929 16.8874 191.1 17.692 191.442 18.3471C191.798 19.0022 192.267 19.4935 192.851 19.8211C193.435 20.1344 194.076 20.2911 194.774 20.2911Z" fill="white"/>
    <path d="M213.714 10.1015V21.8077H211.77V20.0774C211.4 20.6756 210.88 21.1455 210.211 21.4873C209.556 21.8149 208.83 21.9786 208.032 21.9786C207.121 21.9786 206.302 21.7935 205.576 21.4232C204.849 21.0387 204.272 20.4691 203.845 19.7143C203.432 18.9595 203.226 18.0409 203.226 16.9586V10.1015H205.148V16.7023C205.148 17.8558 205.44 18.7459 206.024 19.3725C206.608 19.9849 207.406 20.2911 208.417 20.2911C209.456 20.2911 210.275 19.9706 210.873 19.3298C211.471 18.6889 211.77 17.7561 211.77 16.5314V10.1015H213.714Z" fill="white"/>
    <path d="M216.27 15.9119C216.27 14.7156 216.512 13.6689 216.997 12.7717C217.481 11.8603 218.143 11.1553 218.983 10.6569C219.838 10.1584 220.792 9.90921 221.846 9.90921C222.757 9.90921 223.605 10.1228 224.388 10.5501C225.171 10.9631 225.769 11.5113 226.182 12.1949V6H228.147V21.8077H226.182V19.6075C225.798 20.3053 225.228 20.8821 224.473 21.3378C223.718 21.7793 222.835 22 221.824 22C220.785 22 219.838 21.7437 218.983 21.231C218.143 20.7183 217.481 19.9991 216.997 19.0734C216.512 18.1478 216.27 17.0939 216.27 15.9119ZM226.182 15.9332C226.182 15.0503 226.004 14.2813 225.648 13.6262C225.292 12.9711 224.808 12.4726 224.196 12.1308C223.597 11.7748 222.935 11.5968 222.209 11.5968C221.483 11.5968 220.82 11.7677 220.222 12.1095C219.624 12.4513 219.147 12.9497 218.791 13.6048C218.435 14.2599 218.257 15.0289 218.257 15.9119C218.257 16.8091 218.435 17.5923 218.791 18.2617C219.147 18.9168 219.624 19.4223 220.222 19.7784C220.82 20.1202 221.483 20.2911 222.209 20.2911C222.935 20.2911 223.597 20.1202 224.196 19.7784C224.808 19.4223 225.292 18.9168 225.648 18.2617C226.004 17.5923 226.182 16.8162 226.182 15.9332Z" fill="white"/>
  </g>
  <defs>
    <clipPath id="clip0_2_35">
      <rect width="229" height="28" fill="white"/>
    </clipPath>
  </defs>
</svg>