<svg id="图层_1" width="150" data-name="图层 1" xmlns="http://www.w3.org/2000/svg" viewBox="0 0 255.022 51.636"><title>Databend LOGO</title><path d="M111.9,18.576a9.62,9.62,0,0,1,4.1,3.824,11.377,11.377,0,0,1,1.446,5.814,11.122,11.122,0,0,1-1.446,5.768,9.5,9.5,0,0,1-4.1,3.746,13.889,13.889,0,0,1-6.182,1.3h-6.3a.914.914,0,0,1-.914-.914V18.157a.913.913,0,0,1,.914-.913h6.3A13.612,13.612,0,0,1,111.9,18.576Zm-.239,15.469a7.892,7.892,0,0,0,2.066-5.831,8.159,8.159,0,0,0-2.066-5.924,7.9,7.9,0,0,0-5.943-2.131h-2.677a.914.914,0,0,0-.914.913V35.2a.914.914,0,0,0,.914.914h2.677A8.038,8.038,0,0,0,111.656,34.045Z" style="fill: rgb(255, 255, 255);"></path><path d="M121.311,25.707a7.975,7.975,0,0,1,2.987-3.119,8.1,8.1,0,0,1,4.179-1.113,7.741,7.741,0,0,1,3.607.8,7.308,7.308,0,0,1,2.464,1.991V22.671a.914.914,0,0,1,.913-.914h1.828a.914.914,0,0,1,.913.914V38.115a.914.914,0,0,1-.913.914h-1.828a.914.914,0,0,1-.913-.914V36.458a7.192,7.192,0,0,1-2.511,2.038,8.22,8.22,0,0,1-7.754-.33,8.145,8.145,0,0,1-2.972-3.2,9.721,9.721,0,0,1-1.1-4.654A9.45,9.45,0,0,1,121.311,25.707Zm12.49,1.567a5.256,5.256,0,0,0-7.167-2.021,5.107,5.107,0,0,0-1.954,1.974,6.1,6.1,0,0,0-.747,3.088,6.358,6.358,0,0,0,.747,3.134,5.215,5.215,0,0,0,1.97,2.053,5.11,5.11,0,0,0,2.59.706A5.131,5.131,0,0,0,133.8,33.5a6.283,6.283,0,0,0,.747-3.119A6.2,6.2,0,0,0,133.8,27.274Z" style="fill: rgb(255, 255, 255);"></path><path d="M147.151,24.672v9.561a1.82,1.82,0,0,0,.461,1.4,2.313,2.313,0,0,0,1.573.423H150.5a.913.913,0,0,1,.913.913v1.151a.914.914,0,0,1-.913.914H148.55A5.564,5.564,0,0,1,144.8,37.9a4.613,4.613,0,0,1-1.3-3.667V24.672h-1.153a.913.913,0,0,1-.913-.913V22.671a.914.914,0,0,1,.913-.914H143.5V18.376a.913.913,0,0,1,.913-.913h1.828a.913.913,0,0,1,.913.913v3.381H150.5a.914.914,0,0,1,.913.914v1.088a.913.913,0,0,1-.913.913Z" style="fill: rgb(255, 255, 255);"></path><path d="M154.292,25.707a7.982,7.982,0,0,1,2.987-3.119,8.1,8.1,0,0,1,4.179-1.113,7.738,7.738,0,0,1,3.607.8,7.308,7.308,0,0,1,2.464,1.991V22.671a.914.914,0,0,1,.913-.914h1.828a.914.914,0,0,1,.914.914V38.115a.914.914,0,0,1-.914.914h-1.828a.914.914,0,0,1-.913-.914V36.458a7.192,7.192,0,0,1-2.511,2.038,8.22,8.22,0,0,1-7.754-.33,8.145,8.145,0,0,1-2.972-3.2,9.721,9.721,0,0,1-1.1-4.654A9.45,9.45,0,0,1,154.292,25.707Zm12.49,1.567a5.256,5.256,0,0,0-7.167-2.021,5.114,5.114,0,0,0-1.954,1.974,6.1,6.1,0,0,0-.747,3.088,6.358,6.358,0,0,0,.747,3.134,5.222,5.222,0,0,0,1.97,2.053,5.11,5.11,0,0,0,2.59.706,5.131,5.131,0,0,0,4.561-2.712,6.283,6.283,0,0,0,.747-3.119A6.2,6.2,0,0,0,166.782,27.274Z" style="fill: rgb(255, 255, 255);"></path><path d="M182.081,22.274a7.914,7.914,0,0,1,3.575-.8,8.151,8.151,0,0,1,4.195,1.1,7.768,7.768,0,0,1,2.956,3.118,9.673,9.673,0,0,1,1.08,4.624,9.854,9.854,0,0,1-1.08,4.654,8.01,8.01,0,0,1-2.972,3.2,7.91,7.91,0,0,1-4.179,1.145,7.991,7.991,0,0,1-3.607-.784,6.905,6.905,0,0,1-2.5-2.006v1.594a.914.914,0,0,1-.913.914h-1.8a.914.914,0,0,1-.913-.914V16.747a.914.914,0,0,1,.913-.914h1.8a.914.914,0,0,1,.913.914v7.581A6.851,6.851,0,0,1,182.081,22.274Zm7.373,4.953a5.094,5.094,0,0,0-1.971-1.974,5.345,5.345,0,0,0-2.622-.675,5.2,5.2,0,0,0-4.56,2.7,6.185,6.185,0,0,0-.747,3.1A6.273,6.273,0,0,0,180.3,33.5a5.136,5.136,0,0,0,1.97,2.022,5.2,5.2,0,0,0,7.183-2.069,6.369,6.369,0,0,0,.747-3.134A6.108,6.108,0,0,0,189.454,27.227Z" style="fill: rgb(255, 255, 255);"></path><path d="M205.525,36.316a5.1,5.1,0,0,1-4.5-3.133.3.3,0,0,1,.191-.424l12.04-3.5a.912.912,0,0,0,.641-1.076c-.065-.28-.143-.572-.236-.874a8.873,8.873,0,0,0-2.368-3.941,7.862,7.862,0,0,0-3.852-2,10.314,10.314,0,0,0-8.828,2.6,7.6,7.6,0,0,0-2.117,3.87,9.436,9.436,0,0,0,.3,4.8,10.2,10.2,0,0,0,1.2,2.593l.009,0a7.955,7.955,0,0,0,3.017,2.985,9.049,9.049,0,0,0,4.5,1.112,8.518,8.518,0,0,0,5.164-1.52,7.9,7.9,0,0,0,2.263-2.514.921.921,0,0,0-.785-1.389h-1.981a.947.947,0,0,0-.791.463A4.259,4.259,0,0,1,205.525,36.316ZM200.7,26.58a4.812,4.812,0,0,1,2.814-2.045,5.434,5.434,0,0,1,3.76.15,3.985,3.985,0,0,1,1.824,1.522.925.925,0,0,1-.5,1.4l-7.436,2.162a.909.909,0,0,1-1.172-.872A4.508,4.508,0,0,1,200.7,26.58Z" style="fill: rgb(255, 255, 255);"></path><path d="M230.052,22.321a6.071,6.071,0,0,1,2.559,2.508,8.162,8.162,0,0,1,.922,4.012v9.274a.914.914,0,0,1-.914.914h-1.764a.914.914,0,0,1-.914-.914V29.374a4.971,4.971,0,0,0-1.175-3.557,4.214,4.214,0,0,0-3.21-1.239,4.266,4.266,0,0,0-3.226,1.239,4.929,4.929,0,0,0-1.192,3.557v8.741a.913.913,0,0,1-.913.914h-1.8a.914.914,0,0,1-.913-.914V22.671a.914.914,0,0,1,.913-.914h1.8a.913.913,0,0,1,.913.914v1.061a5.993,5.993,0,0,1,2.273-1.661,7.347,7.347,0,0,1,2.939-.6A7.943,7.943,0,0,1,230.052,22.321Z" style="fill: rgb(255, 255, 255);"></path><path d="M238.131,25.707a7.982,7.982,0,0,1,2.987-3.119,8.154,8.154,0,0,1,4.211-1.113,8.315,8.315,0,0,1,3.385.737,6.918,6.918,0,0,1,2.653,1.959V16.747a.914.914,0,0,1,.914-.914h1.828a.914.914,0,0,1,.913.914V38.115a.914.914,0,0,1-.913.914h-1.828a.914.914,0,0,1-.914-.914V36.427A6.76,6.76,0,0,1,248.9,38.5a7.731,7.731,0,0,1-3.607.815,7.907,7.907,0,0,1-4.179-1.145,8.116,8.116,0,0,1-2.987-3.2,9.722,9.722,0,0,1-1.1-4.654A9.45,9.45,0,0,1,238.131,25.707Zm12.489,1.567a5.154,5.154,0,0,0-4.56-2.7,5.255,5.255,0,0,0-2.606.675,5.107,5.107,0,0,0-1.954,1.974,6.088,6.088,0,0,0-.748,3.088,6.348,6.348,0,0,0,.748,3.134,5.215,5.215,0,0,0,1.97,2.053,5.107,5.107,0,0,0,2.59.706,5.128,5.128,0,0,0,4.56-2.712,6.273,6.273,0,0,0,.747-3.119A6.185,6.185,0,0,0,250.62,27.274Z" style="fill: rgb(255, 255, 255);"></path><path d="M32.236,4.252v0A2.21,2.21,0,0,0,31.371,0a2.179,2.179,0,0,0-1.624.713c-.09.113-.174.219-.252.337a9.448,9.448,0,0,0-1.54,7.477A9.446,9.446,0,0,1,32.236,4.252Z" style="fill: rgb(255, 255, 255);"></path><path d="M21.9,9.4a.319.319,0,0,1,.107.028,9.287,9.287,0,0,1,3.887,2.37,10.216,10.216,0,0,0,.056-1.028,9.325,9.325,0,0,0-1.281-4.729A2.347,2.347,0,1,0,21.9,9.4Z" style="fill: rgb(255, 255, 255);"></path><path d="M80.736,38.979v-.006a15.03,15.03,0,0,0-.989-3.123c0-.017-.011-.028-.016-.045A29.412,29.412,0,0,0,75.8,29.12a36.51,36.51,0,0,0-10.246-8.959,45.271,45.271,0,0,0-4.308-2.275,52.978,52.978,0,0,0-7.258-2.719,59.637,59.637,0,0,0-34.6.421A50.313,50.313,0,0,0,1.807,25.216c-.523.461-.989.9-1.382,1.315A20.678,20.678,0,0,0,2.554,40.658s0,.006.011.017.017.028.022.04c2.495,4.291,7.275,8.426,16.2,10.515,12.3,2.051,26.2-4.2,29.643-7.106,10.948.893,14.442-1.493,14.491-2.291.074-1.208-2.63-1.5-3.779-1.646l-.039-.012s9.336-4.606,18.52.663c-.552,2.837.391,7.064,1.855,7.121.775.03,1.344-3.1,1.19-4.666.854,1.287,3.365,3.506,4.014,2.858C85.546,45.288,83.724,40.868,80.736,38.979ZM35.191,43.352a2.017,2.017,0,1,1,2.017-2.017A2.017,2.017,0,0,1,35.191,43.352Z" style="fill: rgb(255, 255, 255);"></path></svg>