<svg t="1721790740383" class="icon" viewBox="0 0 1024 1024" version="1.1" xmlns="http://www.w3.org/2000/svg" p-id="5380" width="20" ><path d="M994.048 857.7024a36.4544 36.4544 0 0 0-70.6048 17.8688c5.5808 22.2208 9.4208 44.9024 11.4176 67.8912H89.1904c18.432-216.1152 199.5776-386.4064 420.096-387.7888 0.9216 0 1.7408 0.256 2.6624 0.256a256 256 0 1 0-256-256c0 84.8896 41.7792 159.5904 105.4208 206.1312C160.6144 570.0096 14.6944 758.1696 14.6944 979.8656c0 20.1216 16.3328 36.4544 36.4544 36.4544h921.6a36.4544 36.4544 0 0 0 36.4544-36.4544 494.1312 494.1312 0 0 0-15.1552-122.1632zM512 120.832c98.816 0 179.2 80.384 179.2 179.2s-80.384 179.2-179.2 179.2-179.2-80.384-179.2-179.2 80.384-179.2 179.2-179.2z" fill="#438CFF" p-id="5381"></path><path d="M579.7376 666.368a38.4 38.4 0 1 0-54.3232 54.3232l129.8432 129.792a38.2976 38.2976 0 0 0 54.272 0l274.6368-274.6368a38.4 38.4 0 1 0-54.3232-54.3232l-247.5008 247.5008-102.6048-102.656z" fill="#438CFF" p-id="5382"></path></svg>