<?xml version="1.0" standalone="no"?><!DOCTYPE svg PUBLIC "-//W3C//DTD SVG 1.1//EN" "http://www.w3.org/Graphics/SVG/1.1/DTD/svg11.dtd"><svg t="1723600475826" class="icon" viewBox="0 0 1024 1024" version="1.1" xmlns="http://www.w3.org/2000/svg" p-id="2903" xmlns:xlink="http://www.w3.org/1999/xlink" width="20" height="20"><path d="M949.76 884.3264a88.68864 88.68864 0 0 1-25.64096 62.67904 87.14752 87.14752 0 0 1-123.76576 0.16896l-164.29568-160.87552a382.4128 382.4128 0 0 1-26.43968 12.6208 382.83776 382.83776 0 0 1-300.032 0 383.38048 383.38048 0 0 1-122.48064-83.39968 391.296 391.296 0 0 1 0-550.36928 384.56832 384.56832 0 0 1 627.55328 123.648 391.00416 391.00416 0 0 1-40.704 376.57088l150.32832 156.56448a88.576 88.576 0 0 1 25.47712 62.39232z m-153.6512-444.04736c0-186.33216-150.41536-337.92-335.30368-337.92s-335.32928 151.6032-335.32928 337.92S275.89632 778.24 460.8 778.24s335.3088-151.64928 335.3088-337.96096z m-503.61344 168.90368a240.45568 240.45568 0 0 1 0-337.73568l34.63168 40.07424a183.46496 183.46496 0 0 0 0 257.50528z" p-id="2904" fill="#1677FF"></path></svg>