<svg width="602" height="380" viewBox="0 0 602 380" fill="none" xmlns="http://www.w3.org/2000/svg">
<g class="Page404carBody">
  <path d="M136.628 271.13H123.801V303.48H136.628V271.13Z" fill="#0079FF" stroke="black" stroke-width="0.562602" stroke-miterlimit="10" stroke-linecap="round" stroke-linejoin="round"/>
<path d="M300.739 23.7541C300.683 23.6978 300.627 23.6415 300.571 23.5853C300.514 23.529 300.402 23.4165 300.346 23.3602C300.233 23.2477 300.177 23.1352 300.064 23.0227C297.533 19.8721 297.251 15.3713 299.67 11.8831C302.596 7.66363 308.391 6.59469 312.61 9.52022C314.692 10.983 316.155 13.2897 316.548 15.8214C316.661 16.6653 316.661 17.5092 316.605 18.3531C316.436 19.6471 315.761 20.7723 315.48 22.01C315.311 22.8539 315.254 23.6978 315.367 24.598C315.423 25.1606 315.536 25.7794 315.648 26.342C315.93 27.5798 316.323 28.8175 316.83 29.9989C317.167 30.7866 317.505 31.5742 317.899 32.3619C317.955 32.4744 318.236 33.262 318.405 33.262C308.503 30.9554 302.596 25.6669 300.739 23.7541Z" fill="#0079FF" stroke="black" stroke-width="0.562602" stroke-miterlimit="10" stroke-linecap="round" stroke-linejoin="round"/>
<path d="M312.273 14.3586V14.3023C312.273 14.1898 312.273 14.1336 312.273 14.021C312.273 13.8523 312.273 13.6835 312.329 13.5147C312.329 13.2897 312.385 13.1209 312.385 12.8958C312.385 12.8396 312.385 12.8396 312.385 12.8396C313.285 6.87599 317.955 1.98134 324.2 1.13744C331.795 0.0684967 338.884 5.35696 339.953 13.0084C340.459 16.7778 339.39 20.716 336.971 23.6978C336.183 24.6542 335.283 25.5544 334.214 26.2858C332.639 27.411 330.726 27.8048 329.038 28.7612C327.913 29.3801 326.957 30.2802 326.113 31.2367C325.55 31.9118 324.988 32.5869 324.481 33.3183C323.412 34.8936 322.456 36.5814 321.668 38.2692C321.106 39.4507 320.599 40.6321 320.205 41.8699C320.149 42.0386 319.587 43.1638 319.699 43.3326C312.16 30.1677 312.048 18.2968 312.273 14.3586Z" fill="#0079FF" stroke="black" stroke-width="0.562602" stroke-miterlimit="10" stroke-linecap="round" stroke-linejoin="round"/>
<path opacity="0.53" d="M335.432 12.7116C336.421 11.6797 335.749 9.43143 333.932 7.69006C332.115 5.94868 329.84 5.37359 328.851 6.40554C327.862 7.4375 328.534 9.68571 330.351 11.4271C332.168 13.1685 334.443 13.7436 335.432 12.7116Z" fill="white"/>
<path d="M225.801 283.226C225.801 283.226 242.848 287.839 250.78 270.005H250.837C273.116 275.462 289.037 270.005 289.037 270.005V277.319C289.037 293.128 301.865 305.899 317.617 305.899C325.494 305.899 332.695 302.692 337.871 297.516C343.047 292.34 346.254 285.195 346.254 277.319V265.167C346.254 265.167 390.643 255.152 367.464 175.15H279.36C279.304 185.671 277.898 247.445 249.993 253.746C249.993 253.746 240.372 234.055 219.893 237.712C219.893 237.712 223.1 261.397 234.915 262.297C234.915 262.297 224 270.511 225.801 283.226Z" fill="#0079FF" stroke="black" stroke-width="0.562602" stroke-miterlimit="10" stroke-linecap="round" stroke-linejoin="round"/>
<path d="M250.837 270.005C251.512 268.486 252.131 266.855 252.637 264.998" stroke="black" stroke-width="0.562602" stroke-miterlimit="10" stroke-linecap="round" stroke-linejoin="round"/>
<path d="M285.943 182.802C285.943 182.802 285.943 183.308 285.943 184.208" stroke="black" stroke-width="0.562602" stroke-miterlimit="10" stroke-linecap="round" stroke-linejoin="round"/>
<path d="M289.037 270.005V269.161" stroke="black" stroke-width="0.562602" stroke-miterlimit="10"/>
<path d="M361.332 248.57C368.385 248.57 374.103 235.472 374.103 219.314C374.103 203.157 368.385 190.059 361.332 190.059C354.278 190.059 348.56 203.157 348.56 219.314C348.56 235.472 354.278 248.57 361.332 248.57Z" fill="white"/>
<path d="M395.482 113.433C395.482 113.433 413.091 139.425 390.306 164.63C367.52 189.834 259.894 193.435 254.325 151.015C248.699 108.594 253.987 45.0202 328.138 47.8333C402.289 50.6463 395.482 113.433 395.482 113.433Z" fill="#0079FF" stroke="black" stroke-width="0.562602" stroke-miterlimit="10" stroke-linecap="round" stroke-linejoin="round"/>
<path d="M396.438 197.204C396.157 195.91 379.672 166.992 367.858 178.582C356.831 189.44 360.938 186.402 359.531 187.19C359.531 187.19 377.647 205.643 384.961 214.701C387.718 218.077 392.95 217.627 395.2 213.913C397.057 210.65 398.182 205.474 396.438 197.204Z" fill="#FFE75C" stroke="black" stroke-width="0.531659" stroke-miterlimit="10" stroke-linecap="round" stroke-linejoin="round"/>
<path d="M369.208 176.5C378.435 173.462 385.917 169.412 390.249 164.63C409.209 143.701 400.264 122.209 396.663 115.514C396.663 115.514 387.268 118.552 386.536 140.55C386.536 140.55 386.311 147.47 377.478 157.822C368.645 168.174 369.208 176.5 369.208 176.5Z" fill="white"/>
<path d="M390.868 127.442C390.868 128.229 396.213 132.449 401.333 129.129" stroke="black" stroke-width="0.562602" stroke-miterlimit="10" stroke-linecap="round" stroke-linejoin="round"/>
<path d="M395.482 113.433C395.482 113.433 413.091 139.425 390.306 164.63C367.52 189.834 259.894 193.435 254.325 151.015C248.699 108.594 253.987 45.0202 328.138 47.8333C402.289 50.6463 395.482 113.433 395.482 113.433Z" stroke="black" stroke-width="0.562602" stroke-miterlimit="10" stroke-linecap="round" stroke-linejoin="round"/>
<path d="M367.351 116.808C374.28 116.808 379.897 109.554 379.897 100.606C379.897 91.6569 374.28 84.4026 367.351 84.4026C360.422 84.4026 354.805 91.6569 354.805 100.606C354.805 109.554 360.422 116.808 367.351 116.808Z" fill="white"/>
<path d="M369.771 115.346C375.799 115.346 380.685 109.023 380.685 101.224C380.685 93.4253 375.799 87.1029 369.771 87.1029C363.743 87.1029 358.856 93.4253 358.856 101.224C358.856 109.023 363.743 115.346 369.771 115.346Z" fill="black"/>
<path d="M374.384 100.099C375.782 100.099 376.916 98.6131 376.916 96.7798C376.916 94.9466 375.782 93.4605 374.384 93.4605C372.986 93.4605 371.852 94.9466 371.852 96.7798C371.852 98.6131 372.986 100.099 374.384 100.099Z" fill="white"/>
<path d="M371.627 175.881H275.816C275.816 175.881 270.303 197.26 324.087 197.26C377.872 197.26 371.627 175.881 371.627 175.881Z" fill="#FFE75C" stroke="black" stroke-width="0.531659" stroke-miterlimit="10" stroke-linecap="round" stroke-linejoin="round"/>
<path d="M313.06 200.186L364.538 195.46C382.204 193.829 397.619 203.674 398.857 217.402C400.095 231.129 386.817 243.619 369.095 245.25L318.236 249.92" fill="#0079FF"/>
<path d="M313.06 200.186L364.538 195.46C382.204 193.829 397.619 203.674 398.857 217.402C400.095 231.129 386.817 243.619 369.095 245.25L318.236 249.92" stroke="black" stroke-width="0.562602" stroke-miterlimit="10" stroke-linecap="round" stroke-linejoin="round"/>
<path d="M432.163 230.173V294.872C420.517 303.198 411.966 316.532 410.278 332.623C343.553 332.623 344.397 332.623 277.729 332.623C278.91 315.463 270.865 299.316 257.25 290.821V230.173H432.163Z" fill="#0079FF" stroke="black" stroke-width="0.562602" stroke-miterlimit="10" stroke-linecap="round" stroke-linejoin="round"/>
<path d="M200.427 230.173H257.194V290.877C256.35 290.315 255.45 289.865 254.55 289.358C236.096 279.738 211.792 285.251 197.952 303.367H127.233C127.233 262.916 159.976 230.173 200.427 230.173Z" fill="#0079FF" stroke="black" stroke-width="0.562602" stroke-miterlimit="10" stroke-linecap="round" stroke-linejoin="round"/>
<path d="M588.398 289.809V296.841H525.78V332.623H507.889C505.752 308.15 487.579 288.909 465.807 285.983C453.992 284.408 442.009 287.84 432.219 294.816V230.117H528.818C561.674 230.173 588.398 256.84 588.398 289.809Z" fill="#0079FF" stroke="black" stroke-width="0.562602" stroke-miterlimit="10" stroke-linecap="round" stroke-linejoin="round"/>
<path d="M186.194 332.623H130.496V303.367H197.671C195.251 306.63 192.157 311.469 189.738 317.882C187.544 323.565 186.587 328.741 186.194 332.623Z" fill="#FFE75C" stroke="black" stroke-width="0.531659" stroke-miterlimit="10" stroke-linecap="round" stroke-linejoin="round"/>
<path d="M601 332.623H525.78V296.841H586C596.127 296.841 601 305.055 601 315.126V332.623Z" fill="#FFE75C" stroke="black" stroke-width="0.531659" stroke-miterlimit="10" stroke-linecap="round" stroke-linejoin="round"/>
<path d="M564.825 290.877C569.672 290.877 573.601 283.648 573.601 274.731C573.601 265.813 569.672 258.584 564.825 258.584C559.978 258.584 556.048 265.813 556.048 274.731C556.048 283.648 559.978 290.877 564.825 290.877Z" fill="white" stroke="black" stroke-width="0.562602" stroke-miterlimit="10"/>

<path d="M466.426 230.117C466.426 230.117 423.625 182.5 422.5 182.5C421.712 182.5 404.839 184.375 395.5 185.5C392.743 185.838 391.6 188.934 393.344 191.185L423.893 230.117H466.426Z" fill="white" stroke="black" stroke-width="0.562602" stroke-miterlimit="10"/>
<path d="M475 230C475 230 429.031 182 427.894 182C427.099 182 410.563 183.84 401.131 184.843C398.346 185.178 397.04 188.355 398.801 190.474L432.042 230H475Z" fill="#0079FF" stroke="black" stroke-width="0.562602" stroke-miterlimit="10" stroke-linecap="round" stroke-linejoin="round"/>
<path d="M293.426 243.225H314.523" stroke="black" stroke-width="0.562602" stroke-miterlimit="10"/>
<path d="M293.512 260.248C295.272 260.248 296.816 260.592 298.144 261.28C299.488 261.968 300.52 262.952 301.24 264.232C301.976 265.496 302.344 266.968 302.344 268.648C302.344 270.328 301.976 271.8 301.24 273.064C300.52 274.312 299.488 275.28 298.144 275.968C296.816 276.656 295.272 277 293.512 277H287.656V260.248H293.512ZM293.392 274.144C295.152 274.144 296.512 273.664 297.472 272.704C298.432 271.744 298.912 270.392 298.912 268.648C298.912 266.904 298.432 265.544 297.472 264.568C296.512 263.576 295.152 263.08 293.392 263.08H291.016V274.144H293.392ZM303.995 270.304C303.995 268.96 304.259 267.768 304.787 266.728C305.331 265.688 306.059 264.888 306.971 264.328C307.899 263.768 308.931 263.488 310.067 263.488C311.059 263.488 311.923 263.688 312.659 264.088C313.411 264.488 314.011 264.992 314.459 265.6V263.704H317.843V277H314.459V275.056C314.027 275.68 313.427 276.2 312.659 276.616C311.907 277.016 311.035 277.216 310.043 277.216C308.923 277.216 307.899 276.928 306.971 276.352C306.059 275.776 305.331 274.968 304.787 273.928C304.259 272.872 303.995 271.664 303.995 270.304ZM314.459 270.352C314.459 269.536 314.299 268.84 313.979 268.264C313.659 267.672 313.227 267.224 312.683 266.92C312.139 266.6 311.555 266.44 310.931 266.44C310.307 266.44 309.731 266.592 309.203 266.896C308.675 267.2 308.243 267.648 307.907 268.24C307.587 268.816 307.427 269.504 307.427 270.304C307.427 271.104 307.587 271.808 307.907 272.416C308.243 273.008 308.675 273.464 309.203 273.784C309.747 274.104 310.323 274.264 310.931 274.264C311.555 274.264 312.139 274.112 312.683 273.808C313.227 273.488 313.659 273.04 313.979 272.464C314.299 271.872 314.459 271.168 314.459 270.352ZM325.037 266.464V272.896C325.037 273.344 325.141 273.672 325.349 273.88C325.573 274.072 325.941 274.168 326.453 274.168H328.013V277H325.901C323.069 277 321.653 275.624 321.653 272.872V266.464H320.069V263.704H321.653V260.416H325.037V263.704H328.013V266.464H325.037ZM329.565 270.304C329.565 268.96 329.829 267.768 330.357 266.728C330.901 265.688 331.629 264.888 332.541 264.328C333.469 263.768 334.501 263.488 335.637 263.488C336.629 263.488 337.493 263.688 338.229 264.088C338.981 264.488 339.581 264.992 340.029 265.6V263.704H343.413V277H340.029V275.056C339.597 275.68 338.997 276.2 338.229 276.616C337.477 277.016 336.605 277.216 335.613 277.216C334.493 277.216 333.469 276.928 332.541 276.352C331.629 275.776 330.901 274.968 330.357 273.928C329.829 272.872 329.565 271.664 329.565 270.304ZM340.029 270.352C340.029 269.536 339.869 268.84 339.549 268.264C339.229 267.672 338.797 267.224 338.253 266.92C337.709 266.6 337.125 266.44 336.501 266.44C335.877 266.44 335.301 266.592 334.773 266.896C334.245 267.2 333.813 267.648 333.477 268.24C333.157 268.816 332.997 269.504 332.997 270.304C332.997 271.104 333.157 271.808 333.477 272.416C333.813 273.008 334.245 273.464 334.773 273.784C335.317 274.104 335.893 274.264 336.501 274.264C337.125 274.264 337.709 274.112 338.253 273.808C338.797 273.488 339.229 273.04 339.549 272.464C339.869 271.872 340.029 271.168 340.029 270.352ZM350.055 265.648C350.487 265.008 351.079 264.488 351.831 264.088C352.599 263.688 353.471 263.488 354.447 263.488C355.583 263.488 356.607 263.768 357.519 264.328C358.447 264.888 359.175 265.688 359.703 266.728C360.247 267.752 360.519 268.944 360.519 270.304C360.519 271.664 360.247 272.872 359.703 273.928C359.175 274.968 358.447 275.776 357.519 276.352C356.607 276.928 355.583 277.216 354.447 277.216C353.455 277.216 352.583 277.024 351.831 276.64C351.095 276.24 350.503 275.728 350.055 275.104V277H346.695V259.24H350.055V265.648ZM357.087 270.304C357.087 269.504 356.919 268.816 356.583 268.24C356.263 267.648 355.831 267.2 355.287 266.896C354.759 266.592 354.183 266.44 353.559 266.44C352.951 266.44 352.375 266.6 351.831 266.92C351.303 267.224 350.871 267.672 350.535 268.264C350.215 268.856 350.055 269.552 350.055 270.352C350.055 271.152 350.215 271.848 350.535 272.44C350.871 273.032 351.303 273.488 351.831 273.808C352.375 274.112 352.951 274.264 353.559 274.264C354.183 274.264 354.759 274.104 355.287 273.784C355.831 273.464 356.263 273.008 356.583 272.416C356.919 271.824 357.087 271.12 357.087 270.304ZM375.321 270.064C375.321 270.544 375.289 270.976 375.225 271.36H365.505C365.585 272.32 365.921 273.072 366.513 273.616C367.105 274.16 367.833 274.432 368.697 274.432C369.945 274.432 370.833 273.896 371.361 272.824H374.985C374.601 274.104 373.865 275.16 372.777 275.992C371.689 276.808 370.353 277.216 368.769 277.216C367.489 277.216 366.337 276.936 365.313 276.376C364.305 275.8 363.513 274.992 362.937 273.952C362.377 272.912 362.097 271.712 362.097 270.352C362.097 268.976 362.377 267.768 362.937 266.728C363.497 265.688 364.281 264.888 365.289 264.328C366.297 263.768 367.457 263.488 368.769 263.488C370.033 263.488 371.161 263.76 372.153 264.304C373.161 264.848 373.937 265.624 374.481 266.632C375.041 267.624 375.321 268.768 375.321 270.064ZM371.841 269.104C371.825 268.24 371.513 267.552 370.905 267.04C370.297 266.512 369.553 266.248 368.673 266.248C367.841 266.248 367.137 266.504 366.561 267.016C366.001 267.512 365.657 268.208 365.529 269.104H371.841ZM385.141 263.512C386.725 263.512 388.005 264.016 388.981 265.024C389.957 266.016 390.445 267.408 390.445 269.2V277H387.085V269.656C387.085 268.6 386.821 267.792 386.293 267.232C385.765 266.656 385.045 266.368 384.133 266.368C383.205 266.368 382.469 266.656 381.925 267.232C381.397 267.792 381.133 268.6 381.133 269.656V277H377.773V263.704H381.133V265.36C381.581 264.784 382.149 264.336 382.837 264.016C383.541 263.68 384.309 263.512 385.141 263.512ZM392.776 270.304C392.776 268.96 393.04 267.768 393.568 266.728C394.112 265.688 394.848 264.888 395.776 264.328C396.704 263.768 397.736 263.488 398.872 263.488C399.736 263.488 400.56 263.68 401.344 264.064C402.128 264.432 402.752 264.928 403.216 265.552V259.24H406.624V277H403.216V275.032C402.8 275.688 402.216 276.216 401.464 276.616C400.712 277.016 399.84 277.216 398.848 277.216C397.728 277.216 396.704 276.928 395.776 276.352C394.848 275.776 394.112 274.968 393.568 273.928C393.04 272.872 392.776 271.664 392.776 270.304ZM403.24 270.352C403.24 269.536 403.08 268.84 402.76 268.264C402.44 267.672 402.008 267.224 401.464 266.92C400.92 266.6 400.336 266.44 399.712 266.44C399.088 266.44 398.512 266.592 397.984 266.896C397.456 267.2 397.024 267.648 396.688 268.24C396.368 268.816 396.208 269.504 396.208 270.304C396.208 271.104 396.368 271.808 396.688 272.416C397.024 273.008 397.456 273.464 397.984 273.784C398.528 274.104 399.104 274.264 399.712 274.264C400.336 274.264 400.92 274.112 401.464 273.808C402.008 273.488 402.44 273.04 402.76 272.464C403.08 271.872 403.24 271.168 403.24 270.352Z" fill="white"/>

</g> 

<path class="Page404exhaustR" d="M103.547 291.046H43.4615C30.4654 291.046 17.9194 286.039 8.86146 276.756C1.09756 268.88 -3.51578 258.809 7.68 249.358C27.3711 232.761 41.2673 249.358 43.574 262.86C43.574 262.86 56.4576 251.158 70.5789 273.268C79.0179 286.489 103.547 291.046 103.547 291.046Z" fill="white" stroke="black" stroke-width="0.562602" stroke-miterlimit="10"/>

<g class="Page404rotating">
  <path d="M233.002 379.712C256.181 379.712 274.972 360.921 274.972 337.742C274.972 314.562 256.181 295.772 233.002 295.772C209.823 295.772 191.032 314.562 191.032 337.742C191.032 360.921 209.823 379.712 233.002 379.712Z" fill="black"/>
  <path d="M233.002 358.277C244.343 358.277 253.537 349.083 253.537 337.742C253.537 326.401 244.343 317.207 233.002 317.207C221.661 317.207 212.467 326.401 212.467 337.742C212.467 349.083 221.661 358.277 233.002 358.277Z" fill="white"/>
  <path d="M233.002 344.381C236.668 344.381 239.641 341.408 239.641 337.742C239.641 334.075 236.668 331.103 233.002 331.103C229.336 331.103 226.363 334.075 226.363 337.742C226.363 341.408 229.336 344.381 233.002 344.381Z" fill="black"/>
</g>

<g class="Page404rotatingRight">
<path d="M458.999 379.712C482.179 379.712 500.969 360.921 500.969 337.742C500.969 314.562 482.179 295.772 458.999 295.772C435.82 295.772 417.029 314.562 417.029 337.742C417.029 360.921 435.82 379.712 458.999 379.712Z" fill="black"/>
<path d="M458.999 358.277C470.34 358.277 479.534 349.083 479.534 337.742C479.534 326.401 470.34 317.207 458.999 317.207C447.658 317.207 438.464 326.401 438.464 337.742C438.464 349.083 447.658 358.277 458.999 358.277Z" fill="white"/>
<path d="M458.999 344.381C462.666 344.381 465.638 341.408 465.638 337.742C465.638 334.075 462.666 331.103 458.999 331.103C455.333 331.103 452.361 334.075 452.361 337.742C452.361 341.408 455.333 344.381 458.999 344.381Z" fill="black"/>
</g>

</svg>
