<svg width="320" height="240" viewBox="0 0 320 240" fill="none" xmlns="http://www.w3.org/2000/svg"><g clip-path="url(#clip0_744_3037)"><path d="M111.649 161.974C127.89 169.113 146.26 169.003 164.001 168.767C173.308 168.649 182.937 168.461 191.411 164.605C203.191 159.241 210.841 147.727 221.176 139.937C233.043 130.975 248.232 127.111 259.738 117.695C265.338 113.115 269.872 107.37 273.026 100.859C276.179 94.3487 277.876 87.2289 277.998 79.9958C278.12 72.7626 276.664 65.5898 273.731 58.9766C270.799 52.3634 266.46 46.4687 261.018 41.7029C254.931 36.3781 247.667 32.6162 240.465 28.9172L204.299 10.304C195.824 5.94521 187.13 1.51575 177.675 0.329844C169.695 -0.667571 161.622 0.714674 153.823 2.49745C131.597 7.5238 109.544 16.1864 93.24 32.0429C79.2134 45.7083 70.056 64.0623 54.7099 76.2276C50.7831 79.3298 46.4322 82.0707 43.5734 86.1703C33.2852 100.943 43.707 119.815 57.0739 127.386C75.585 137.863 92.2426 153.453 111.649 161.974Z" fill="#DCE3EF" fill-opacity="0.25"></path><path d="M160.004 240C228.397 240 283.84 233.15 283.84 224.701C283.84 216.252 228.397 209.402 160.004 209.402C91.6109 209.402 36.1674 216.252 36.1674 224.701C36.1674 233.15 91.6109 240 160.004 240Z" fill="#0175F6"></path><path d="M160.004 240C228.397 240 283.84 233.15 283.84 224.701C283.84 216.252 228.397 209.402 160.004 209.402C91.6109 209.402 36.1674 216.252 36.1674 224.701C36.1674 233.15 91.6109 240 160.004 240Z" fill="url(#paint0_linear_744_3037)" fill-opacity="0.5"></path><path d="M92.164 75.2381C89.867 73.6803 87.2807 72.5996 84.5583 72.06C81.8359 71.5204 79.0328 71.5328 76.3153 72.0966C75.3207 72.2515 74.3809 72.6539 73.5823 73.2668C71.7209 74.8375 72.0115 77.7591 71.5167 80.1623C70.912 83.1231 68.925 85.6599 68.2104 88.5814C67.7941 90.7798 67.7702 93.0346 68.1397 95.2413C69.1861 103.946 71.2717 112.494 74.3519 120.703L65.7129 234.51C65.7129 234.51 74.5483 235.94 92.4703 237.369L94.3709 128.989L92.164 75.2381Z" fill="#FFC1A3"></path><path d="M82.3391 141.609L93.7819 187.883V121.143L88.6927 106.017L82.3391 141.609Z" fill="url(#paint1_linear_744_3037)"></path><path d="M231.975 76.2119C234.277 74.6658 236.865 73.5967 239.587 73.0679C242.31 72.5391 245.11 72.5614 247.824 73.1333C248.82 73.2918 249.761 73.6937 250.564 74.3035C252.418 75.8742 252.135 78.7958 252.622 81.2069C253.235 84.1677 255.222 86.7044 255.936 89.626C256.354 91.8218 256.375 94.0747 255.999 96.278C254.96 104.983 252.877 113.532 249.795 121.74L258.395 233.961C258.395 233.961 248.774 235.578 231.582 237.204L229.737 130.017L231.975 76.2119Z" fill="#FFC1A3"></path><path d="M243.268 138.303L239.208 159.154L230.561 177.964L229.799 137.031L243.268 138.303Z" fill="url(#paint2_linear_744_3037)"></path><path d="M237.205 38.0117H84.0825C80.4521 38.0117 77.509 40.9548 77.509 44.5852V136.182C77.509 139.813 80.4521 142.756 84.0825 142.756H237.205C240.836 142.756 243.779 139.813 243.779 136.182V44.5852C243.779 40.9548 240.836 38.0117 237.205 38.0117Z" fill="#0175F6"></path><path d="M237.205 38.0117H84.0825C80.4521 38.0117 77.509 40.9548 77.509 44.5852V136.182C77.509 139.813 80.4521 142.756 84.0825 142.756H237.205C240.836 142.756 243.779 139.813 243.779 136.182V44.5852C243.779 40.9548 240.836 38.0117 237.205 38.0117Z" fill="url(#paint3_linear_744_3037)"></path><path d="M237.205 33.81H84.0825C80.4521 33.81 77.509 36.7531 77.509 40.3835V131.981C77.509 135.611 80.4521 138.554 84.0825 138.554H237.205C240.836 138.554 243.779 135.611 243.779 131.981V40.3835C243.779 36.7531 240.836 33.81 237.205 33.81Z" fill="#0175F6"></path><path d="M92.4041 125.833C92.2856 125.833 92.1886 125.794 92.1132 125.717C92.0377 125.639 92 125.539 92 125.417V114.583C92 114.461 92.0377 114.361 92.1132 114.283C92.1886 114.206 92.2856 114.167 92.4041 114.167H96.8172C97.6902 114.167 98.4446 114.306 99.0804 114.583C99.727 114.861 100.228 115.283 100.584 115.85C100.95 116.406 101.133 117.1 101.133 117.933C101.133 118.778 100.95 119.478 100.584 120.033C100.228 120.578 99.727 120.983 99.0804 121.25C98.4446 121.517 97.6902 121.65 96.8172 121.65H94.6511V125.417C94.6511 125.539 94.6134 125.639 94.5379 125.717C94.4625 125.794 94.3655 125.833 94.247 125.833H92.4041ZM94.6026 119.583H96.7364C97.286 119.583 97.7117 119.444 98.0135 119.167C98.326 118.889 98.4823 118.472 98.4823 117.917C98.4823 117.428 98.3422 117.028 98.062 116.717C97.7926 116.406 97.3507 116.25 96.7364 116.25H94.6026V119.583Z" fill="white"></path><path d="M101.377 125.833C101.28 125.833 101.2 125.8 101.135 125.733C101.07 125.656 101.038 125.572 101.038 125.483C101.038 125.428 101.043 125.378 101.054 125.333L104.901 114.617C104.934 114.494 104.998 114.389 105.095 114.3C105.192 114.211 105.327 114.167 105.5 114.167H107.569C107.741 114.167 107.876 114.211 107.973 114.3C108.07 114.389 108.134 114.494 108.167 114.617L112.014 125.333C112.025 125.378 112.03 125.428 112.03 125.483C112.03 125.572 111.998 125.656 111.933 125.733C111.869 125.8 111.788 125.833 111.691 125.833H110.01C109.848 125.833 109.729 125.794 109.654 125.717C109.579 125.639 109.53 125.567 109.508 125.5L108.813 123.633H104.255L103.56 125.5C103.538 125.567 103.49 125.639 103.414 125.717C103.339 125.794 103.22 125.833 103.059 125.833H101.377ZM104.853 121.483H108.199L106.534 116.683L104.853 121.483Z" fill="white"></path><path d="M117.728 126C116.715 126 115.847 125.828 115.125 125.483C114.414 125.128 113.859 124.617 113.46 123.95C113.072 123.272 112.862 122.456 112.83 121.5C112.819 121.022 112.814 120.511 112.814 119.967C112.814 119.422 112.819 118.906 112.83 118.417C112.862 117.483 113.072 116.689 113.46 116.033C113.859 115.378 114.419 114.878 115.141 114.533C115.874 114.178 116.736 114 117.728 114C118.525 114 119.226 114.106 119.829 114.317C120.433 114.528 120.939 114.806 121.349 115.15C121.758 115.483 122.071 115.85 122.286 116.25C122.502 116.65 122.615 117.033 122.626 117.4C122.626 117.5 122.594 117.589 122.529 117.667C122.464 117.733 122.378 117.767 122.27 117.767H120.266C120.158 117.767 120.072 117.744 120.007 117.7C119.953 117.656 119.905 117.589 119.862 117.5C119.786 117.3 119.662 117.1 119.49 116.9C119.328 116.689 119.107 116.511 118.827 116.367C118.547 116.222 118.18 116.15 117.728 116.15C117.049 116.15 116.51 116.333 116.111 116.7C115.723 117.067 115.513 117.667 115.481 118.5C115.448 119.456 115.448 120.428 115.481 121.417C115.513 122.283 115.729 122.906 116.127 123.283C116.537 123.661 117.081 123.85 117.76 123.85C118.202 123.85 118.595 123.772 118.94 123.617C119.296 123.45 119.576 123.194 119.781 122.85C119.986 122.506 120.088 122.067 120.088 121.533V121.117H118.326C118.218 121.117 118.127 121.078 118.051 121C117.976 120.911 117.938 120.811 117.938 120.7V119.633C117.938 119.511 117.976 119.411 118.051 119.333C118.127 119.256 118.218 119.217 118.326 119.217H122.286C122.405 119.217 122.502 119.256 122.577 119.333C122.653 119.411 122.691 119.511 122.691 119.633V121.45C122.691 122.406 122.486 123.222 122.076 123.9C121.677 124.578 121.101 125.1 120.347 125.467C119.603 125.822 118.73 126 117.728 126Z" fill="white"></path><path d="M125.066 125.833C124.948 125.833 124.851 125.794 124.775 125.717C124.7 125.639 124.662 125.539 124.662 125.417V114.583C124.662 114.461 124.7 114.361 124.775 114.283C124.851 114.206 124.948 114.167 125.066 114.167H132.389C132.508 114.167 132.605 114.206 132.68 114.283C132.755 114.361 132.793 114.461 132.793 114.583V115.917C132.793 116.028 132.755 116.122 132.68 116.2C132.605 116.278 132.508 116.317 132.389 116.317H127.151V118.933H132.033C132.152 118.933 132.249 118.972 132.324 119.05C132.4 119.128 132.438 119.228 132.438 119.35V120.583C132.438 120.694 132.4 120.789 132.324 120.867C132.249 120.944 132.152 120.983 132.033 120.983H127.151V123.683H132.518C132.637 123.683 132.734 123.722 132.809 123.8C132.885 123.878 132.922 123.978 132.922 124.1V125.417C132.922 125.539 132.885 125.639 132.809 125.717C132.734 125.794 132.637 125.833 132.518 125.833H125.066Z" fill="white"></path><path d="M138.816 125.833C138.698 125.833 138.601 125.794 138.525 125.717C138.45 125.639 138.412 125.539 138.412 125.417V114.583C138.412 114.461 138.45 114.361 138.525 114.283C138.601 114.206 138.698 114.167 138.816 114.167H140.287C140.449 114.167 140.567 114.206 140.643 114.283C140.718 114.361 140.767 114.422 140.788 114.467L145.104 121.417V114.583C145.104 114.461 145.142 114.361 145.218 114.283C145.293 114.206 145.385 114.167 145.492 114.167H147.141C147.26 114.167 147.357 114.206 147.432 114.283C147.508 114.361 147.545 114.461 147.545 114.583V125.417C147.545 125.528 147.508 125.628 147.432 125.717C147.357 125.794 147.26 125.833 147.141 125.833H145.654C145.492 125.833 145.374 125.794 145.298 125.717C145.234 125.628 145.185 125.567 145.153 125.533L140.853 118.8V125.417C140.853 125.539 140.815 125.639 140.74 125.717C140.664 125.794 140.567 125.833 140.449 125.833H138.816Z" fill="white"></path><path d="M154.43 126C153.449 126 152.603 125.833 151.892 125.5C151.181 125.167 150.626 124.667 150.227 124C149.828 123.322 149.613 122.472 149.58 121.45C149.57 120.972 149.564 120.5 149.564 120.033C149.564 119.556 149.57 119.072 149.58 118.583C149.613 117.583 149.828 116.744 150.227 116.067C150.637 115.378 151.197 114.861 151.908 114.517C152.63 114.172 153.471 114 154.43 114C155.378 114 156.208 114.172 156.919 114.517C157.641 114.861 158.207 115.378 158.617 116.067C159.026 116.744 159.242 117.583 159.263 118.583C159.285 119.072 159.296 119.556 159.296 120.033C159.296 120.5 159.285 120.972 159.263 121.45C159.231 122.472 159.016 123.322 158.617 124C158.218 124.667 157.663 125.167 156.952 125.5C156.241 125.833 155.4 126 154.43 126ZM154.43 123.85C155.055 123.85 155.567 123.656 155.966 123.267C156.375 122.867 156.591 122.233 156.612 121.367C156.634 120.878 156.645 120.422 156.645 120C156.645 119.567 156.634 119.111 156.612 118.633C156.602 118.056 156.499 117.583 156.305 117.217C156.111 116.85 155.853 116.583 155.529 116.417C155.217 116.239 154.85 116.15 154.43 116.15C154.01 116.15 153.638 116.239 153.315 116.417C152.991 116.583 152.733 116.85 152.539 117.217C152.355 117.583 152.253 118.056 152.232 118.633C152.221 119.111 152.215 119.567 152.215 120C152.215 120.422 152.221 120.878 152.232 121.367C152.264 122.233 152.479 122.867 152.878 123.267C153.277 123.656 153.794 123.85 154.43 123.85Z" fill="white"></path><path d="M164.006 125.833C163.888 125.833 163.791 125.794 163.715 125.717C163.64 125.639 163.602 125.539 163.602 125.417V116.483H160.66C160.552 116.483 160.461 116.444 160.385 116.367C160.31 116.289 160.272 116.194 160.272 116.083V114.583C160.272 114.461 160.31 114.361 160.385 114.283C160.461 114.206 160.552 114.167 160.66 114.167H169.131C169.249 114.167 169.346 114.206 169.422 114.283C169.497 114.361 169.535 114.461 169.535 114.583V116.083C169.535 116.194 169.497 116.289 169.422 116.367C169.346 116.444 169.249 116.483 169.131 116.483H166.205V125.417C166.205 125.539 166.167 125.639 166.092 125.717C166.016 125.794 165.919 125.833 165.801 125.833H164.006Z" fill="white"></path><path d="M174.683 125.833C174.564 125.833 174.467 125.794 174.392 125.717C174.316 125.639 174.279 125.539 174.279 125.417V114.583C174.279 114.461 174.316 114.361 174.392 114.283C174.467 114.206 174.564 114.167 174.683 114.167H181.893C182.011 114.167 182.108 114.206 182.183 114.283C182.259 114.361 182.297 114.461 182.297 114.583V116C182.297 116.122 182.259 116.222 182.183 116.3C182.108 116.378 182.011 116.417 181.893 116.417H176.8V119.233H181.569C181.688 119.233 181.785 119.272 181.86 119.35C181.936 119.428 181.973 119.528 181.973 119.65V121.067C181.973 121.178 181.936 121.272 181.86 121.35C181.785 121.428 181.688 121.467 181.569 121.467H176.8V125.417C176.8 125.539 176.763 125.639 176.687 125.717C176.612 125.794 176.515 125.833 176.396 125.833H174.683Z" fill="white"></path><path d="M188.544 126C187.564 126 186.718 125.833 186.006 125.5C185.295 125.167 184.74 124.667 184.341 124C183.943 123.322 183.727 122.472 183.695 121.45C183.684 120.972 183.679 120.5 183.679 120.033C183.679 119.556 183.684 119.072 183.695 118.583C183.727 117.583 183.943 116.744 184.341 116.067C184.751 115.378 185.311 114.861 186.023 114.517C186.745 114.172 187.585 114 188.544 114C189.493 114 190.323 114.172 191.034 114.517C191.756 114.861 192.322 115.378 192.731 116.067C193.141 116.744 193.356 117.583 193.378 118.583C193.399 119.072 193.41 119.556 193.41 120.033C193.41 120.5 193.399 120.972 193.378 121.45C193.345 122.472 193.13 123.322 192.731 124C192.332 124.667 191.777 125.167 191.066 125.5C190.355 125.833 189.514 126 188.544 126ZM188.544 123.85C189.169 123.85 189.681 123.656 190.08 123.267C190.49 122.867 190.705 122.233 190.727 121.367C190.748 120.878 190.759 120.422 190.759 120C190.759 119.567 190.748 119.111 190.727 118.633C190.716 118.056 190.614 117.583 190.42 117.217C190.226 116.85 189.967 116.583 189.644 116.417C189.331 116.239 188.965 116.15 188.544 116.15C188.124 116.15 187.752 116.239 187.429 116.417C187.106 116.583 186.847 116.85 186.653 117.217C186.47 117.583 186.367 118.056 186.346 118.633C186.335 119.111 186.33 119.567 186.33 120C186.33 120.422 186.335 120.878 186.346 121.367C186.378 122.233 186.594 122.867 186.993 123.267C187.391 123.656 187.909 123.85 188.544 123.85Z" fill="white"></path><path d="M200.04 126C199.092 126 198.262 125.839 197.55 125.517C196.839 125.183 196.29 124.678 195.902 124C195.514 123.311 195.32 122.439 195.32 121.383V114.583C195.32 114.461 195.357 114.361 195.433 114.283C195.508 114.206 195.605 114.167 195.724 114.167H197.486C197.604 114.167 197.701 114.206 197.777 114.283C197.852 114.361 197.89 114.461 197.89 114.583V121.367C197.89 122.189 198.079 122.8 198.456 123.2C198.833 123.6 199.361 123.8 200.04 123.8C200.708 123.8 201.231 123.6 201.608 123.2C201.985 122.8 202.174 122.189 202.174 121.367V114.583C202.174 114.461 202.211 114.361 202.287 114.283C202.373 114.206 202.47 114.167 202.578 114.167H204.356C204.464 114.167 204.555 114.206 204.631 114.283C204.706 114.361 204.744 114.461 204.744 114.583V121.383C204.744 122.439 204.55 123.311 204.162 124C203.774 124.678 203.23 125.183 202.529 125.517C201.829 125.839 200.999 126 200.04 126Z" fill="white"></path><path d="M207.44 125.833C207.321 125.833 207.224 125.794 207.149 125.717C207.073 125.639 207.035 125.539 207.035 125.417V114.583C207.035 114.461 207.073 114.361 207.149 114.283C207.224 114.206 207.321 114.167 207.44 114.167H208.911C209.072 114.167 209.191 114.206 209.266 114.283C209.342 114.361 209.39 114.422 209.412 114.467L213.728 121.417V114.583C213.728 114.461 213.766 114.361 213.841 114.283C213.916 114.206 214.008 114.167 214.116 114.167H215.765C215.883 114.167 215.98 114.206 216.056 114.283C216.131 114.361 216.169 114.461 216.169 114.583V125.417C216.169 125.528 216.131 125.628 216.056 125.717C215.98 125.794 215.883 125.833 215.765 125.833H214.277C214.116 125.833 213.997 125.794 213.922 125.717C213.857 125.628 213.809 125.567 213.776 125.533L209.476 118.8V125.417C209.476 125.539 209.439 125.639 209.363 125.717C209.288 125.794 209.191 125.833 209.072 125.833H207.44Z" fill="white"></path><path d="M218.964 125.833C218.845 125.833 218.748 125.794 218.673 125.717C218.597 125.639 218.559 125.539 218.559 125.417V114.583C218.559 114.461 218.597 114.361 218.673 114.283C218.748 114.206 218.845 114.167 218.964 114.167H223.021C224.099 114.167 224.999 114.344 225.721 114.7C226.443 115.044 226.992 115.556 227.37 116.233C227.758 116.9 227.962 117.728 227.984 118.717C227.995 119.206 228 119.633 228 120C228 120.367 227.995 120.789 227.984 121.267C227.952 122.3 227.752 123.156 227.386 123.833C227.019 124.511 226.48 125.017 225.769 125.35C225.058 125.672 224.169 125.833 223.102 125.833H218.964ZM221.13 123.683H223.021C223.56 123.683 224.002 123.6 224.347 123.433C224.692 123.267 224.945 123.006 225.106 122.65C225.279 122.283 225.37 121.811 225.381 121.233C225.392 120.911 225.397 120.622 225.397 120.367C225.408 120.111 225.408 119.856 225.397 119.6C225.397 119.344 225.392 119.061 225.381 118.75C225.36 117.917 225.15 117.306 224.751 116.917C224.363 116.517 223.759 116.317 222.94 116.317H221.13V123.683Z" fill="white"></path><path d="M84.5538 73.8637C85.2276 74.1992 85.8017 74.7056 86.2187 75.3323C86.5638 76.0688 86.7332 76.8753 86.7135 77.6884L86.9491 82.754C87.0557 83.5874 86.9559 84.4343 86.6585 85.2201C86.5001 85.6078 86.2101 85.9273 85.8396 86.1226C85.4691 86.3179 85.0417 86.3765 84.6323 86.2882C84.933 87.2741 85.0303 88.3109 84.9182 89.3355C84.8062 90.3602 84.4871 91.3514 83.9804 92.2491C83.7265 92.6272 83.5281 93.0398 83.3914 93.4743C83.3262 93.9984 83.3527 94.53 83.4699 95.045C83.648 96.3156 83.5531 97.6096 83.1915 98.8407C82.8299 100.072 82.21 101.211 81.373 102.184C81.1171 102.503 80.8026 102.769 80.4463 102.969C79.9791 103.169 79.4776 103.275 78.9698 103.283L76.6608 103.48C76.5467 103.517 76.4254 103.528 76.3065 103.511C76.1875 103.495 76.074 103.451 75.9746 103.383C75.8752 103.316 75.7926 103.226 75.7333 103.122C75.6739 103.017 75.6392 102.901 75.632 102.781C73.8788 97.2197 73.0821 91.4013 73.2759 85.5735C73.3667 82.6369 73.7189 79.7143 74.3283 76.8402C74.6974 75.1595 75.4199 72.5992 77.2184 71.916C79.5431 71.0992 82.5432 72.7092 84.5538 73.8637Z" fill="#EEA886"></path><path d="M236.224 73.8637C235.55 74.1992 234.976 74.7056 234.559 75.3323C234.214 76.0688 234.044 76.8753 234.064 77.6884L233.828 82.754C233.722 83.5874 233.821 84.4343 234.119 85.2201C234.277 85.6078 234.567 85.9273 234.938 86.1226C235.308 86.3179 235.736 86.3765 236.145 86.2882C235.845 87.2739 235.747 88.31 235.858 89.3344C235.969 90.3588 236.285 91.3502 236.789 92.2491C237.049 92.6251 237.25 93.0382 237.386 93.4743C237.452 93.9988 237.423 94.5309 237.3 95.045C237.125 96.3161 237.223 97.6098 237.585 98.8405C237.948 100.071 238.568 101.211 239.404 102.184C239.66 102.503 239.975 102.769 240.331 102.969C240.798 103.169 241.3 103.275 241.808 103.283L244.14 103.511C244.254 103.549 244.376 103.559 244.495 103.543C244.613 103.526 244.727 103.482 244.826 103.415C244.926 103.347 245.008 103.258 245.068 103.153C245.127 103.049 245.162 102.932 245.169 102.812C246.922 97.2511 247.719 91.4327 247.525 85.6049C247.435 82.6678 247.081 79.7448 246.465 76.8716C246.104 75.1909 245.679 73.0862 243.897 72.4029C241.548 71.5468 238.234 72.7092 236.224 73.8637Z" fill="#EEA886"></path><path d="M117.248 100.306C116.784 100.306 116.39 100.144 116.065 99.8194C115.741 99.4954 115.579 99.0787 115.579 98.5694V90.2361H93.6693C93.2056 90.2361 92.8115 90.0741 92.4869 89.75C92.1623 89.4259 92 89.0093 92 88.5V82.875C92 82.5509 92.0696 82.2037 92.2087 81.8333C92.3478 81.463 92.5332 81.1157 92.7651 80.7917L113.144 52.875C113.747 52.088 114.605 51.6944 115.718 51.6944H124.551C125.015 51.6944 125.409 51.8565 125.733 52.1806C126.058 52.5046 126.22 52.9213 126.22 53.4306V81H132.41C132.967 81 133.384 81.162 133.662 81.4861C133.987 81.8102 134.149 82.2037 134.149 82.6667V88.5C134.149 89.0093 133.987 89.4259 133.662 89.75C133.338 90.0741 132.944 90.2361 132.48 90.2361H126.22V98.5694C126.22 99.0787 126.058 99.4954 125.733 99.8194C125.409 100.144 125.015 100.306 124.551 100.306H117.248ZM102.781 81.3472H115.787V63.0833L102.781 81.3472Z" fill="white"></path><path d="M159.605 101C156.267 101 153.392 100.537 150.981 99.6111C148.616 98.6389 146.645 97.3194 145.069 95.6528C143.538 93.9398 142.379 91.9722 141.591 89.75C140.849 87.4815 140.408 85.0741 140.269 82.5278C140.223 81.2778 140.177 79.8889 140.13 78.3611C140.13 76.787 140.13 75.213 140.13 73.6389C140.177 72.0648 140.223 70.6296 140.269 69.3333C140.362 66.787 140.803 64.4028 141.591 62.1806C142.426 59.9583 143.631 58.0139 145.208 56.3472C146.784 54.6806 148.755 53.3843 151.12 52.4583C153.531 51.4861 156.359 51 159.605 51C162.851 51 165.656 51.4861 168.021 52.4583C170.386 53.3843 172.357 54.6806 173.933 56.3472C175.51 58.0139 176.692 59.9583 177.48 62.1806C178.315 64.4028 178.802 66.787 178.941 69.3333C178.987 70.6296 179.01 72.0648 179.01 73.6389C179.057 75.213 179.057 76.787 179.01 78.3611C179.01 79.8889 178.987 81.2778 178.941 82.5278C178.802 85.0741 178.338 87.4815 177.55 89.75C176.762 91.9722 175.579 93.9398 174.003 95.6528C172.472 97.3194 170.502 98.6389 168.091 99.6111C165.726 100.537 162.897 101 159.605 101ZM159.605 91.9722C162.295 91.9722 164.265 91.0926 165.517 89.3333C166.769 87.5741 167.441 85.1898 167.534 82.1806C167.581 80.838 167.604 79.4491 167.604 78.0139C167.65 76.5787 167.65 75.1435 167.604 73.7083C167.604 72.2731 167.581 70.9306 167.534 69.6806C167.441 66.8102 166.769 64.4722 165.517 62.6667C164.265 60.8611 162.295 59.9352 159.605 59.8889C156.869 59.9352 154.876 60.8611 153.624 62.6667C152.418 64.4722 151.769 66.8102 151.676 69.6806C151.63 70.9306 151.583 72.2731 151.537 73.7083C151.537 75.1435 151.537 76.5787 151.537 78.0139C151.583 79.4491 151.63 80.838 151.676 82.1806C151.769 85.1898 152.441 87.5741 153.693 89.3333C154.945 91.0926 156.916 91.9722 159.605 91.9722Z" fill="white"></path><path d="M210.099 100.306C209.635 100.306 209.241 100.144 208.916 99.8194C208.592 99.4954 208.429 99.0787 208.429 98.5694V90.2361H186.52C186.056 90.2361 185.662 90.0741 185.338 89.75C185.013 89.4259 184.851 89.0093 184.851 88.5V82.875C184.851 82.5509 184.92 82.2037 185.059 81.8333C185.199 81.463 185.384 81.1157 185.616 80.7917L205.995 52.875C206.598 52.088 207.456 51.6944 208.568 51.6944H217.402C217.865 51.6944 218.259 51.8565 218.584 52.1806C218.909 52.5046 219.071 52.9213 219.071 53.4306V81H225.261C225.818 81 226.235 81.162 226.513 81.4861C226.838 81.8102 227 82.2037 227 82.6667V88.5C227 89.0093 226.838 89.4259 226.513 89.75C226.189 90.0741 225.794 90.2361 225.331 90.2361H219.071V98.5694C219.071 99.0787 218.909 99.4954 218.584 99.8194C218.259 100.144 217.865 100.306 217.402 100.306H210.099ZM195.632 81.3472H208.638V63.0833L195.632 81.3472Z" fill="white"></path></g><defs><linearGradient id="paint0_linear_744_3037" x1="159.25" y1="203.41" x2="161.535" y2="268.234" gradientUnits="userSpaceOnUse"><stop stop-opacity="0"></stop><stop offset="0.95"></stop></linearGradient><linearGradient id="paint1_linear_744_3037" x1="89.3367" y1="181.914" x2="87.0513" y2="91.5344" gradientUnits="userSpaceOnUse"><stop stop-opacity="0"></stop><stop offset="0.99"></stop></linearGradient><linearGradient id="paint2_linear_744_3037" x1="237.221" y1="169.458" x2="235.697" y2="112.763" gradientUnits="userSpaceOnUse"><stop stop-opacity="0"></stop><stop offset="0.95"></stop></linearGradient><linearGradient id="paint3_linear_744_3037" x1="157.844" y1="187.271" x2="161.402" y2="64.2194" gradientUnits="userSpaceOnUse"><stop stop-opacity="0"></stop><stop offset="0.99"></stop></linearGradient><clipPath id="clip0_744_3037"><rect width="318.431" height="240" fill="white" transform="translate(0.784302)"></rect></clipPath></defs></svg>