<svg width="24" style="minWidth: 24px" viewBox="0 0 27 16" fill="none" xmlns="http://www.w3.org/2000/svg">
<path d="M21.8945 7.32699C22.1768 5.8115 21.8771 4.24527 21.0552 2.94109C20.2333 1.6369 18.9497 0.690729 17.4607 0.291521C15.9717 -0.107687 14.3869 0.069447 13.0228 0.787551C11.6587 1.50565 10.6157 2.71188 10.102 4.16535C9.65661 3.78655 9.11203 3.54324 8.5327 3.46418C7.95336 3.38511 7.3635 3.47361 6.83286 3.71919C6.30223 3.96478 5.85302 4.35718 5.53836 4.85C5.2237 5.34282 5.05675 5.91545 5.05725 6.50015C5.05736 6.779 5.09535 7.05654 5.17016 7.32517C4.03492 7.35326 2.95595 7.82538 2.16493 8.64014C1.37391 9.45491 0.933898 10.5474 0.939382 11.6829C0.944865 12.8185 1.3954 13.9067 2.19426 14.7138C2.99311 15.5209 4.07659 15.9825 5.21205 15.9997H21.7852C22.3546 16.0068 22.9199 15.9018 23.4488 15.6905C23.9776 15.4792 24.4597 15.1658 24.8674 14.7682C25.2752 14.3706 25.6006 13.8966 25.8252 13.3732C26.0497 12.8499 26.169 12.2874 26.1762 11.718C26.1833 11.1485 26.0783 10.5832 25.867 10.0544C25.6557 9.5255 25.3423 9.04345 24.9447 8.63571C24.5471 8.22797 24.0731 7.90253 23.5497 7.67798C23.0264 7.45343 22.4639 7.33416 21.8945 7.32699ZM11.4989 4.36568C11.5143 4.34204 11.5313 4.31952 11.5499 4.2983C11.5918 4.25201 11.6429 4.21511 11.7001 4.19C11.7572 4.16489 11.819 4.15214 11.8814 4.1526C11.9858 4.15156 12.0874 4.18675 12.1688 4.25216C12.2502 4.31758 12.3064 4.40918 12.3279 4.51138C12.3493 4.61358 12.3347 4.72006 12.2865 4.81271C12.2383 4.90535 12.1595 4.97843 12.0635 5.0195C11.6843 5.20741 11.3772 5.5145 11.1893 5.89369C11.1325 5.6308 11.1311 5.35895 11.1854 5.09552C11.2396 4.83209 11.3483 4.58289 11.5044 4.36386L11.4989 4.36568ZM10.0893 5.13424C10.1758 5.13443 10.2606 5.15786 10.335 5.20207C10.4093 5.24628 10.4704 5.30966 10.5118 5.38557C10.6834 5.67899 10.7739 6.01273 10.7741 6.35263C10.7735 6.42323 10.7693 6.49375 10.7613 6.5639C10.5421 6.33715 10.2689 6.16983 9.96727 6.07763H9.94541C9.83701 6.04231 9.74468 5.96962 9.68491 5.87253C9.62514 5.77544 9.60182 5.66027 9.6191 5.54758C9.63639 5.43488 9.69316 5.332 9.77929 5.25729C9.86541 5.18257 9.97528 5.1409 10.0893 5.1397V5.13424ZM22.7796 13.5865C22.6466 13.7195 22.133 13.2642 21.96 13.0019C21.991 13.3225 21.8744 13.9617 21.716 13.9562C21.4173 13.9435 21.2242 13.0802 21.3372 12.4993C19.4595 11.4229 17.5508 12.3645 17.5508 12.3645C17.7858 12.3955 18.3394 12.4556 18.3249 12.7014C18.3139 12.8653 17.5964 13.3534 15.3617 13.1695C14.6587 13.765 11.8176 15.0417 9.30252 14.6265C7.4813 14.1985 6.49966 13.3516 5.98971 12.4774C5.5622 11.7029 5.39191 10.8126 5.50345 9.93498C5.52795 9.7076 5.63484 9.49705 5.80395 9.34308L5.84584 9.30666C6.89705 8.41657 8.11657 7.74704 9.43183 7.33792C11.7294 6.61066 14.191 6.58088 16.5055 7.25232C17.0123 7.398 17.5078 7.58061 17.9879 7.79869C18.2895 7.93825 18.5838 8.09326 18.8694 8.2631C19.6762 8.73719 20.3866 9.35869 20.9638 10.0952C21.291 10.5128 21.5611 10.9722 21.767 11.4612C21.7678 11.4648 21.7678 11.4685 21.767 11.4721C21.858 11.6763 21.9258 11.8902 21.9691 12.1095C22.5847 12.5066 22.9562 13.4099 22.7796 13.5865Z" fill="#007BFF"/>
<path d="M12.6627 13.0129C12.89 13.0129 13.0743 12.8286 13.0743 12.6013C13.0743 12.3739 12.89 12.1897 12.6627 12.1897C12.4354 12.1897 12.2511 12.3739 12.2511 12.6013C12.2511 12.8286 12.4354 13.0129 12.6627 13.0129Z" fill="#007BFF"/>
</svg>
