<svg xmlns="http://www.w3.org/2000/svg" width="22" viewBox="0 0 1024 1024"><path fill="currentColor" d="M1010.316 715.87a70.1 70.1 0 0 1-3.165 20.882c-1.459 19.27-3.662 29.262-8.379 39.874l-1.086 2.39-3.63 8.999c-60.354 143.856-236.513 233.037-452.329 233.037a38.788 38.788 0 1 1 0-77.576c171.38 0 308.72-62.153 366.654-157.789h-80.989a69.82 69.82 0 0 1-69.818-69.818V507.345a69.82 69.82 0 0 1 69.818-69.818h94.55c-42.947-189.781-208.928-331-406.839-331-197.85 0-363.83 141.219-406.776 331h84.806a69.82 69.82 0 0 1 69.818 69.818V715.87a69.82 69.82 0 0 1-69.818 69.818H89.802a69.82 69.82 0 0 1-69.818-69.818V507.345c0-5.337.59-10.55 1.706-15.515 21.38-259.103 234-462.91 493.475-462.91s472.033 203.745 493.382 462.786a70 70 0 0 1 1.769 15.608zM185.375 515.102H97.994c-.124 3.258-.249 6.516-.31 9.806l-.125 9.836v173.367l87.816.03zm746.93 0h-97.124v193.04h95.697l.403-14.274 1.459-93.805v-65.319c0-6.578-.155-13.126-.435-19.642"></path></svg>