<svg t="1722602358821" class="icon" viewBox="0 0 1024 1024" version="1.1" xmlns="http://www.w3.org/2000/svg" p-id="2531" width="24"><path d="M981.2205 453.334a418.963 418.963 0 0 0-9.983-59.034c-5.471-21.79-14.559-45.436-26.366-70.873-12.7-24.542-28.157-50.907-49.051-75.417-8.191-9.983-17.278-19.07-26.366-29.053 14.559-57.243-17.278-107.222-17.278-107.222-55.419-3.616-89.944 17.278-102.646 26.366-1.824-0.9-4.512-1.824-6.367-2.72-9.087-3.616-19.07-7.263-29.053-10.911-9.983-2.72-20-6.367-29.981-8.191-9.983-2.72-20.894-4.512-31.773-6.367-1.824 0-3.616-0.9-5.471-0.9C623.2375 32.7 554.2205 0 554.2205 0c-79.065 50.907-94.487 119.029-94.487 119.029a9.023 9.023 0 0 1-0.9 3.616c-4.512 0.9-8.191 2.72-12.7 3.616-5.471 1.824-11.807 3.616-17.278 6.367s-11.807 4.512-17.278 7.263c-11.807 5.471-22.686 10.911-34.525 17.278a359.042 359.042 0 0 0-32.893 20.766l1.12-0.768a10.436 10.436 0 0 1-2.72-1.824c-106.326-40.86-200.781 8.191-200.781 8.191-8.191 113.557 42.716 184.431 52.7 197.134-2.72 7.263-4.512 13.6-7.263 20.894a429.746 429.746 0 0 0-17.022 76.761l-0.256 2.3c-0.9 3.616-0.9 8.191-1.824 11.807C69.9775 540.589 40.9245 640.516 40.9245 640.516 122.7085 735 218.9875 740.475 218.9875 740.475a412.183 412.183 0 0 0 42.364 62.49l-0.576-0.7c6.367 8.191 13.6 15.455 20.894 23.646-29.981 85.4 4.512 157.169 4.512 157.169 91.767 3.616 151.7-39.964 164.433-49.947l27.261 8.191c28.157 7.263 57.243 11.807 85.4 12.7h37.245C643.2365 1015.809 719.5465 1024 719.5465 1024c53.595-57.243 57.243-112.661 57.243-125.4v-5.471c10.911-8.191 21.79-16.35 32.733-25.438 21.79-19.07 39.964-41.82 56.315-65.4 1.824-1.824 2.72-4.512 4.512-6.367 60.89 3.616 103.574-38.14 103.574-38.14-9.983-63.61-46.332-94.487-53.595-99.959l-2.682-2.686c0-3.616 0.9-7.263 0.9-11.807a162.79 162.79 0 0 0 0.9-20.894v-26.366a11.816 11.816 0 0 0-0.9-5.471l-1.824-10.911c-0.9-7.263-2.72-13.6-3.616-20.894a269.649 269.649 0 0 0-31.56-77.529l0.672 1.216a285.072 285.072 0 0 0-51.515-61.53l-0.256-0.224a250.974 250.974 0 0 0-63.8-41.18l-1.6-0.64a222.759 222.759 0 0 0-70.713-19.9l-1.056-0.1c-11.807-1.824-24.542-1.824-36.349-1.824h-18.173c-6.367 0.9-12.7 1.824-18.174 2.72a205.061 205.061 0 0 0-67.226 25.438c-20 11.839-37.245 27.261-51.8 44.508a182.449 182.449 0 0 0-32.317 54.171l-0.416 1.248c-7.263 19.07-11.807 39.964-12.7 59.034v21.79a20.328 20.328 0 0 0 0.9 7.263 154.924 154.924 0 0 0 30.269 77.625l-0.288-0.384a143.9 143.9 0 0 0 36.342 34.526 159.509 159.509 0 0 0 41.82 20q21.838 6.815 40.86 5.471h19.038c1.824 0 3.616-0.9 4.512-0.9 1.824 0 2.72-0.9 4.512-0.9 2.72-0.9 6.367-1.824 9.087-2.72 5.471-1.824 10.911-4.512 16.35-6.367a87.409 87.409 0 0 0 13.6-8.191c0.9-0.9 2.72-1.824 3.616-2.72a10.239 10.239 0 0 0 1.824-14.559v0.032a12.745 12.745 0 0 0-8.9-3.648 12.574 12.574 0 0 0-4.8 0.928l0.1-0.032c-0.9 0.9-1.824 0.9-3.616 1.824a57.787 57.787 0 0 1-11.391 4.416l-0.416 0.1c-4.512 0.9-9.087 2.72-13.6 3.616-2.72 0-4.512 0.9-7.263 0.9h-19.07c-0.928 0-2.72 0-3.616-0.9-9.983-1.824-20.894-4.512-30.877-9.087a97.355 97.355 0 0 1-28.157-19.07 114.531 114.531 0 0 1-22.686-28.157 97.755 97.755 0 0 1-11.807-34.525c-0.9-6.367-1.824-12.7-0.9-19.07v-10.041c0-3.616 0.9-6.367 1.824-9.983a133.2 133.2 0 0 1 39.036-73.561l0.032-0.032a80.44 80.44 0 0 1 17.278-13.6 103.656 103.656 0 0 1 19.07-10.911 138.273 138.273 0 0 1 20.894-7.263c7.263-1.824 14.559-3.616 21.79-3.616 3.616 0 7.263-0.9 10.911-0.9h10.879a172.674 172.674 0 0 1 69.948 21.342l-0.864-0.448c29.053 16.35 53.595 40.86 68.122 70.873a167.209 167.209 0 0 1 15.455 48.155c0.9 4.512 0.9 8.191 1.824 12.7v23.65c0 4.512-0.9 9.087-0.9 13.6-0.9 4.512-0.9 9.087-1.824 13.6l-2.72 13.6c-0.9 4.512-5.471 17.278-8.191 26.365s-15.455 33.629-26.366 48.155a221.559 221.559 0 0 1-84.056 69.4l-1.344 0.576c-17.278 7.263-34.525 13.6-52.7 16.35a134.3 134.3 0 0 1-27.261 2.72h-14.49c-4.512 0-9.983 0-14.559-0.9a313.831 313.831 0 0 1-58.139-10.911 284.356 284.356 0 0 1-54.523-21.79 298.85 298.85 0 0 1-89.5-73.945l-0.416-0.544a348.338 348.338 0 0 1-31.773-49.051c-9.087-17.278-15.455-35.453-20.894-53.595a228.439 228.439 0 0 1-9.087-55.867v-28.602a164.042 164.042 0 0 1 2.72-29.053c0.9-9.983 2.72-19.07 4.512-29.053s4.512-19.07 7.263-29.053 11.807-37.245 20-54.523c16.35-34.525 37.245-65.4 61.786-89.944a181.481 181.481 0 0 1 20-17.278 101.381 101.381 0 0 1 16.35-12.7c7.263-4.512 14.559-9.087 22.686-12.7 3.616-1.824 7.263-3.616 11.807-5.472a43.543 43.543 0 0 1 6.367-2.72 43.539 43.539 0 0 1 6.367-2.72c8.191-3.616 16.35-6.367 24.542-9.087 1.824-0.9 4.512-0.9 6.367-1.824s4.512-0.9 6.367-1.824 8.191-1.824 12.7-3.616c1.824-0.9 4.512-0.9 6.367-1.824 1.824 0 4.512-0.9 6.367-0.9s4.512-0.9 6.367-0.9l7.263-1.824c1.824 0 4.512-0.9 6.367-0.9 2.72 0 4.512-0.9 7.263-0.9 1.824 0 5.471-0.9 7.263-0.9a8.184 8.184 0 0 0 4.512-0.9h6.367a20.328 20.328 0 0 0 7.263-0.9h37.245a402.1 402.1 0 0 1 48.155 5.471 307.812 307.812 0 0 1 88.92 29.853l-1.728-0.8a328.365 328.365 0 0 1 71.299 46.708l-0.416-0.352c0.9 0.9 2.72 1.824 3.616 3.616 0.9 0.9 2.72 1.824 3.616 3.616 2.72 1.824 4.512 4.512 7.263 6.367s4.512 4.512 7.263 6.367c1.824 2.72 4.512 4.512 6.367 7.263a336.466 336.466 0 0 1 59.1 82.552l0.9 1.92c0.9 0.9 0.9 1.824 1.824 3.616 0.9 0.9 0.9 1.824 1.824 3.616s1.824 4.512 3.616 6.367c0.9 1.824 1.824 4.512 2.72 6.367s1.824 4.512 2.72 6.367c3.616 8.191 6.367 16.35 9.087 24.542 4.512 12.7 7.263 23.646 9.983 32.733a8.736 8.736 0 0 0 8.191 6.367c4.512 0 7.263-3.616 7.263-8.191-0.9-10.911-0.9-22.686-1.76-36.349z" fill="#F46800" p-id="2532"></path></svg>