<svg width="24" viewBox="0 0 25 28" fill="none" xmlns="http://www.w3.org/2000/svg"><path d="M24.4995 12.4351C24.4555 11.987 24.382 11.4727 24.2351 10.8997C24.0882 10.3341 23.8678 9.70966 23.5445 9.0632C23.2213 8.41673 22.8026 7.74823 22.259 7.09442C22.0459 6.8373 21.8108 6.58753 21.5611 6.34511C21.9357 4.85383 21.1056 3.5609 21.1056 3.5609C19.6731 3.47275 18.7622 4.00902 18.4242 4.25144C18.3655 4.22941 18.314 4.20002 18.2553 4.17798C18.0129 4.08248 17.7631 3.98698 17.4986 3.90617C17.2415 3.82537 16.977 3.7519 16.7052 3.68579C16.4334 3.61967 16.1616 3.56825 15.8825 3.52417C15.831 3.51683 15.787 3.50948 15.7355 3.50213C15.1111 1.50397 13.3186 0.666504 13.3186 0.666504C11.3131 1.93739 10.9385 3.71517 10.9385 3.71517C10.9385 3.71517 10.9311 3.7519 10.9164 3.81802C10.8062 3.8474 10.6961 3.88414 10.5859 3.91352C10.4316 3.9576 10.2773 4.01637 10.1304 4.07514C9.97612 4.13391 9.8292 4.19268 9.67493 4.25879C9.37374 4.39102 9.07254 4.53795 8.7787 4.69956C8.49219 4.86118 8.21304 5.03749 7.94123 5.22114L7.86777 5.19176C5.09091 4.13391 2.62994 5.4048 2.62994 5.4048C2.4022 8.35796 3.73921 10.2166 4.00367 10.5545C3.93756 10.7381 3.87879 10.9218 3.82002 11.1054C3.61433 11.7739 3.46005 12.4571 3.36455 13.1697C3.34986 13.2726 3.33517 13.3754 3.32782 13.4783C0.756657 14.7491 0 17.3424 0 17.3424C2.13774 19.8033 4.63545 19.9576 4.63545 19.9576L4.64279 19.9503C4.95868 20.5159 5.32599 21.0522 5.73737 21.5591C5.91368 21.7721 6.08999 21.9705 6.28099 22.1688C5.5023 24.402 6.39118 26.2533 6.39118 26.2533C8.77135 26.3414 10.3361 25.2101 10.6667 24.953C10.9017 25.0338 11.1442 25.1073 11.3866 25.166C12.1212 25.357 12.8705 25.4672 13.6198 25.4966C13.8035 25.504 13.9945 25.5113 14.1781 25.504H14.4426L14.5601 25.4966V25.504C15.6841 27.1054 17.6529 27.3332 17.6529 27.3332C19.056 25.8566 19.1368 24.3874 19.1368 24.0715V24.0494V24.0053V23.9392C19.4307 23.7335 19.7098 23.5132 19.9743 23.2707C20.5326 22.7638 21.0248 22.1835 21.4362 21.5591L21.5464 21.3828C23.1331 21.4709 24.2571 20.3984 24.2571 20.3984C23.9927 18.7455 23.0523 17.9374 22.854 17.7831C22.6556 17.6289 22.8466 17.7758 22.832 17.7684C22.8173 17.7611 22.8173 17.7537 22.8173 17.7537C22.8099 17.7464 22.7952 17.739 22.7805 17.7317C22.7879 17.6289 22.7952 17.5334 22.8026 17.4305C22.8173 17.2542 22.8173 17.0705 22.8173 16.8942V16.6592V16.6151L22.8099 16.5049L22.8026 16.358C22.8026 16.3065 22.7952 16.2625 22.7879 16.2184C22.7805 16.1743 22.7805 16.1229 22.7732 16.0788L22.7585 15.9392L22.7365 15.7997C22.7071 15.616 22.6777 15.4397 22.6336 15.256C22.4646 14.5435 22.1855 13.8676 21.8255 13.2579C21.4582 12.6481 21.0028 12.1119 20.4812 11.6564C19.9669 11.2009 19.3866 10.8336 18.7842 10.5618C18.1745 10.29 17.5427 10.1137 16.9109 10.0329C16.595 9.98882 16.2792 9.97413 15.9633 9.98147H15.7282L15.6107 9.98882C15.5666 9.98882 15.5225 9.99616 15.4858 9.99616C15.3242 10.0109 15.1625 10.0329 15.0083 10.0623C14.3765 10.1798 13.7815 10.4076 13.2599 10.7234C12.7383 11.0393 12.2828 11.4287 11.9155 11.8694C11.5482 12.3102 11.2617 12.8024 11.0634 13.3093C10.865 13.8162 10.7548 14.3451 10.7254 14.852C10.7181 14.9769 10.7181 15.1091 10.7181 15.234V15.3295L10.7254 15.4323C10.7328 15.4911 10.7328 15.5572 10.7401 15.616C10.7622 15.8731 10.8136 16.1229 10.8797 16.358C11.0193 16.8355 11.2397 17.2689 11.5115 17.6362C11.7833 18.0035 12.1139 18.3047 12.4591 18.5471C12.8044 18.7822 13.1791 18.9512 13.5464 19.0614C13.9137 19.1716 14.281 19.2156 14.6263 19.2156H14.8173C14.8393 19.2156 14.8613 19.2156 14.8834 19.2083C14.9201 19.2083 14.9568 19.2009 14.9936 19.2009C15.0009 19.2009 15.0156 19.2009 15.023 19.1936L15.0597 19.1862C15.0817 19.1862 15.1038 19.1789 15.1258 19.1789C15.1699 19.1716 15.2066 19.1642 15.2507 19.1569C15.2948 19.1495 15.3315 19.1422 15.3682 19.1275C15.449 19.1128 15.5225 19.0834 15.596 19.0614C15.7429 19.0099 15.8898 18.9512 16.0147 18.8851C16.1469 18.8189 16.2645 18.7381 16.382 18.6647C16.4114 18.6426 16.4481 18.6206 16.4775 18.5912C16.595 18.4957 16.6171 18.3194 16.5216 18.2019C16.4408 18.099 16.2938 18.0696 16.1763 18.1357L16.0882 18.1798C15.9853 18.2312 15.8825 18.2753 15.7723 18.3121C15.6621 18.3488 15.5445 18.3782 15.427 18.4002C15.3682 18.4076 15.3095 18.4149 15.2433 18.4222C15.214 18.4222 15.1846 18.4296 15.1478 18.4296H14.9715C14.9348 18.4296 14.8981 18.4296 14.8613 18.4222H14.8173C14.8026 18.4222 14.7805 18.4222 14.7658 18.4149C14.7291 18.4076 14.6997 18.4076 14.663 18.4002C14.3912 18.3635 14.1194 18.2827 13.8623 18.1651C13.5978 18.0476 13.348 17.886 13.1203 17.6803C12.8926 17.4746 12.6942 17.2322 12.5399 16.953C12.3857 16.6739 12.2755 16.3653 12.2241 16.0421C12.202 15.8805 12.1873 15.7115 12.1947 15.5499C12.1947 15.5058 12.202 15.4617 12.202 15.4177V15.3589C12.202 15.3368 12.2094 15.3148 12.2094 15.2928C12.2167 15.2046 12.2314 15.1165 12.2461 15.0283C12.371 14.3231 12.7236 13.6325 13.2672 13.1109C13.4068 12.9787 13.5537 12.8612 13.708 12.751C13.8623 12.6408 14.0312 12.5453 14.2075 12.4645C14.3838 12.3837 14.5601 12.3176 14.7511 12.2661C14.9348 12.2147 15.1258 12.1853 15.3242 12.1633C15.4197 12.1559 15.5152 12.1486 15.618 12.1486H15.8457L15.9265 12.1559C16.1396 12.1706 16.3453 12.2 16.551 12.2514C16.9624 12.3396 17.3664 12.4939 17.741 12.6996C18.4904 13.1183 19.1295 13.7648 19.5188 14.5435C19.7172 14.9328 19.8567 15.3515 19.9229 15.785C19.9376 15.8952 19.9523 16.0053 19.9596 16.1155L19.9669 16.1963L19.9743 16.2772V16.593C19.9743 16.6445 19.9669 16.7326 19.9669 16.784C19.9596 16.9016 19.9449 17.0265 19.9302 17.144C19.9155 17.2615 19.8935 17.3791 19.8714 17.4966C19.8494 17.6142 19.82 17.7317 19.7906 17.8419C19.7319 18.0696 19.6584 18.2974 19.5702 18.5251C19.3939 18.9659 19.1589 19.3919 18.8797 19.7813C18.314 20.56 17.5427 21.1918 16.6612 21.5958C16.2204 21.7941 15.7576 21.9411 15.2801 22.0145C15.045 22.0586 14.8026 22.0806 14.5601 22.088H14.1928C14.0606 22.088 13.9357 22.0806 13.8035 22.066C13.2893 22.0292 12.7824 21.9337 12.2828 21.7941C11.7906 21.6546 11.3131 21.4562 10.8577 21.2211C9.95409 20.7363 9.13866 20.0751 8.50689 19.2744C8.191 18.8777 7.91185 18.4443 7.68411 17.9962C7.45638 17.548 7.27273 17.0705 7.1405 16.593C7.00826 16.1082 6.92746 15.616 6.89073 15.1165L6.88338 15.021V14.6022V14.5508V14.3671C6.89073 14.1247 6.91276 13.8676 6.94215 13.6178C6.97153 13.3681 7.01561 13.1109 7.06703 12.8612C7.11846 12.6114 7.17723 12.3616 7.25069 12.1119C7.39027 11.6197 7.56657 11.1422 7.77227 10.6941C8.191 9.79782 8.73462 8.99708 9.38843 8.35796C9.55005 8.19635 9.71901 8.04942 9.89532 7.9025C10.0716 7.76292 10.2553 7.63069 10.4463 7.50581C10.6299 7.38092 10.8283 7.27073 11.0266 7.16788C11.1221 7.11646 11.225 7.06504 11.3278 7.02096L11.4821 6.95484L11.6364 6.88873C11.8421 6.80057 12.0551 6.72711 12.2755 6.66099C12.3269 6.6463 12.3857 6.63161 12.4371 6.60957C12.4885 6.59488 12.5473 6.58019 12.5987 6.56549C12.7089 6.53611 12.8191 6.50672 12.9293 6.48469C12.9807 6.46999 13.0395 6.46265 13.0983 6.44796C13.157 6.43326 13.2084 6.42592 13.2672 6.41122C13.326 6.40388 13.3774 6.38919 13.4362 6.38184L13.517 6.36715L13.6051 6.35245C13.6639 6.34511 13.7153 6.33776 13.7741 6.33042C13.8402 6.32307 13.899 6.31572 13.9651 6.30838C14.0165 6.30103 14.1047 6.29369 14.1561 6.28634C14.1928 6.27899 14.2369 6.27899 14.2736 6.27165L14.3545 6.2643L14.3912 6.25695H14.4353C14.5014 6.24961 14.5601 6.24961 14.6263 6.24226L14.7218 6.23492H14.7952C14.8466 6.23492 14.9054 6.22757 14.9568 6.22757C15.1699 6.22022 15.3903 6.22022 15.6033 6.22757C16.0294 6.24226 16.4481 6.29369 16.8522 6.36715C17.6676 6.52142 18.4316 6.77853 19.1295 7.1238C19.8274 7.46173 20.4444 7.88046 20.9881 8.33593C21.0248 8.36531 21.0542 8.3947 21.0909 8.42408C21.1203 8.45346 21.157 8.48285 21.1864 8.51223C21.2525 8.571 21.3113 8.62977 21.3774 8.68854C21.4435 8.74731 21.5023 8.80608 21.5611 8.86485C21.6198 8.92362 21.6786 8.98239 21.7374 9.04851C21.9651 9.29093 22.1781 9.53335 22.3691 9.78313C22.7511 10.2753 23.0597 10.7749 23.3021 11.245L23.3462 11.3332L23.3903 11.4213C23.4197 11.4801 23.449 11.5389 23.4711 11.5976C23.5005 11.6564 23.5225 11.7078 23.5519 11.7666C23.5739 11.8254 23.6033 11.8768 23.6253 11.9356C23.7135 12.1559 23.8017 12.369 23.8678 12.5673C23.978 12.8906 24.0588 13.1771 24.1249 13.4268C24.1469 13.5297 24.2424 13.5958 24.3453 13.5811C24.4555 13.5738 24.5363 13.4856 24.5363 13.3754C24.5436 13.1109 24.5363 12.7951 24.4995 12.4351V12.4351Z" fill="url(#paint0_linear_4634_15502)"></path><defs><linearGradient id="paint0_linear_4634_15502" x1="12.2664" y1="-0.179263" x2="13.2103" y2="23.9879" gradientUnits="userSpaceOnUse"><stop stop-color="#F05A28"></stop><stop offset="1" stop-color="#FBCA0A"></stop></linearGradient></defs></svg>