<svg width="24" viewBox="0 0 22 28" fill="none" xmlns="http://www.w3.org/2000/svg"><path d="M1.93104 9.10798C2.81347 9.10798 3.52882 8.38119 3.52882 7.48465C3.52882 6.58812 2.81347 5.86133 1.93104 5.86133C1.0486 5.86133 0.333252 6.58812 0.333252 7.48465C0.333252 8.38119 1.0486 9.10798 1.93104 9.10798Z" fill="#509EE3"></path><path d="M1.93104 13.6529C2.81347 13.6529 3.52882 12.9261 3.52882 12.0296C3.52882 11.133 2.81347 10.4062 1.93104 10.4062C1.0486 10.4062 0.333252 11.133 0.333252 12.0296C0.333252 12.9261 1.0486 13.6529 1.93104 13.6529Z" fill="#509EE3"></path><path opacity="0.2" d="M6.40467 9.10798C7.2871 9.10798 8.00245 8.38119 8.00245 7.48465C8.00245 6.58812 7.2871 5.86133 6.40467 5.86133C5.52224 5.86133 4.80688 6.58812 4.80688 7.48465C4.80688 8.38119 5.52224 9.10798 6.40467 9.10798Z" fill="#509EE3"></path><path d="M6.40467 13.6973C7.2871 13.6973 8.00245 12.9705 8.00245 12.074C8.00245 11.1775 7.2871 10.4507 6.40467 10.4507C5.52224 10.4507 4.80688 11.1775 4.80688 12.074C4.80688 12.9705 5.52224 13.6973 6.40467 13.6973Z" fill="#509EE3"></path><path opacity="0.2" d="M10.8783 9.10798C11.7607 9.10798 12.4761 8.38119 12.4761 7.48465C12.4761 6.58812 11.7607 5.86133 10.8783 5.86133C9.99587 5.86133 9.28052 6.58812 9.28052 7.48465C9.28052 8.38119 9.99587 9.10798 10.8783 9.10798Z" fill="#509EE3"></path><path opacity="0.2" d="M10.8783 3.91315C11.7607 3.91315 12.4761 3.18636 12.4761 2.28983C12.4761 1.39329 11.7607 0.666504 10.8783 0.666504C9.99587 0.666504 9.28052 1.39329 9.28052 2.28983C9.28052 3.18636 9.99587 3.91315 10.8783 3.91315Z" fill="#509EE3"></path><path opacity="0.2" d="M10.8783 13.6973C11.7607 13.6973 12.4761 12.9705 12.4761 12.074C12.4761 11.1775 11.7607 10.4507 10.8783 10.4507C9.99587 10.4507 9.28052 11.1775 9.28052 12.074C9.28052 12.9705 9.99587 13.6973 10.8783 13.6973Z" fill="#509EE3"></path><path opacity="0.2" d="M15.3519 9.10798C16.2344 9.10798 16.9497 8.38119 16.9497 7.48465C16.9497 6.58812 16.2344 5.86133 15.3519 5.86133C14.4695 5.86133 13.7542 6.58812 13.7542 7.48465C13.7542 8.38119 14.4695 9.10798 15.3519 9.10798Z" fill="#509EE3"></path><path d="M19.8258 9.10798C20.7082 9.10798 21.4236 8.38119 21.4236 7.48465C21.4236 6.58812 20.7082 5.86133 19.8258 5.86133C18.9434 5.86133 18.228 6.58812 18.228 7.48465C18.228 8.38119 18.9434 9.10798 19.8258 9.10798Z" fill="#509EE3"></path><path d="M15.3519 13.6973C16.2344 13.6973 16.9497 12.9705 16.9497 12.074C16.9497 11.1775 16.2344 10.4507 15.3519 10.4507C14.4695 10.4507 13.7542 11.1775 13.7542 12.074C13.7542 12.9705 14.4695 13.6973 15.3519 13.6973Z" fill="#509EE3"></path><path d="M19.8258 13.6973C20.7082 13.6973 21.4236 12.9705 21.4236 12.074C21.4236 11.1775 20.7082 10.4507 19.8258 10.4507C18.9434 10.4507 18.228 11.1775 18.228 12.074C18.228 12.9705 18.9434 13.6973 19.8258 13.6973Z" fill="#509EE3"></path><path d="M1.93104 18.1983C2.81347 18.1983 3.52882 17.4715 3.52882 16.575C3.52882 15.6784 2.81347 14.9517 1.93104 14.9517C1.0486 14.9517 0.333252 15.6784 0.333252 16.575C0.333252 17.4715 1.0486 18.1983 1.93104 18.1983Z" fill="#509EE3"></path><path opacity="0.2" d="M6.40467 18.2427C7.2871 18.2427 8.00245 17.516 8.00245 16.6194C8.00245 15.7229 7.2871 14.9961 6.40467 14.9961C5.52224 14.9961 4.80688 15.7229 4.80688 16.6194C4.80688 17.516 5.52224 18.2427 6.40467 18.2427Z" fill="#509EE3"></path><path d="M10.8783 18.2427C11.7607 18.2427 12.4761 17.516 12.4761 16.6194C12.4761 15.7229 11.7607 14.9961 10.8783 14.9961C9.99587 14.9961 9.28052 15.7229 9.28052 16.6194C9.28052 17.516 9.99587 18.2427 10.8783 18.2427Z" fill="#509EE3"></path><path opacity="0.2" d="M15.3519 18.2427C16.2344 18.2427 16.9497 17.516 16.9497 16.6194C16.9497 15.7229 16.2344 14.9961 15.3519 14.9961C14.4695 14.9961 13.7542 15.7229 13.7542 16.6194C13.7542 17.516 14.4695 18.2427 15.3519 18.2427Z" fill="#509EE3"></path><path d="M19.8258 18.2427C20.7082 18.2427 21.4236 17.516 21.4236 16.6194C21.4236 15.7229 20.7082 14.9961 19.8258 14.9961C18.9434 14.9961 18.228 15.7229 18.228 16.6194C18.228 17.516 18.9434 18.2427 19.8258 18.2427Z" fill="#509EE3"></path><path d="M1.93104 22.7437C2.81347 22.7437 3.52882 22.0169 3.52882 21.1204C3.52882 20.2239 2.81347 19.4971 1.93104 19.4971C1.0486 19.4971 0.333252 20.2239 0.333252 21.1204C0.333252 22.0169 1.0486 22.7437 1.93104 22.7437Z" fill="#509EE3"></path><path opacity="0.2" d="M6.40467 22.7877C7.2871 22.7877 8.00245 22.0609 8.00245 21.1643C8.00245 20.2678 7.2871 19.541 6.40467 19.541C5.52224 19.541 4.80688 20.2678 4.80688 21.1643C4.80688 22.0609 5.52224 22.7877 6.40467 22.7877Z" fill="#509EE3"></path><path opacity="0.2" d="M10.8783 22.7877C11.7607 22.7877 12.4761 22.0609 12.4761 21.1643C12.4761 20.2678 11.7607 19.541 10.8783 19.541C9.99587 19.541 9.28052 20.2678 9.28052 21.1643C9.28052 22.0609 9.99587 22.7877 10.8783 22.7877Z" fill="#509EE3"></path><path opacity="0.2" d="M10.8783 27.3331C11.7607 27.3331 12.4761 26.6063 12.4761 25.7097C12.4761 24.8132 11.7607 24.0864 10.8783 24.0864C9.99587 24.0864 9.28052 24.8132 9.28052 25.7097C9.28052 26.6063 9.99587 27.3331 10.8783 27.3331Z" fill="#509EE3"></path><path opacity="0.2" d="M15.3519 22.7877C16.2344 22.7877 16.9497 22.0609 16.9497 21.1643C16.9497 20.2678 16.2344 19.541 15.3519 19.541C14.4695 19.541 13.7542 20.2678 13.7542 21.1643C13.7542 22.0609 14.4695 22.7877 15.3519 22.7877Z" fill="#509EE3"></path><path d="M19.8258 22.7877C20.7082 22.7877 21.4236 22.0609 21.4236 21.1643C21.4236 20.2678 20.7082 19.541 19.8258 19.541C18.9434 19.541 18.228 20.2678 18.228 21.1643C18.228 22.0609 18.9434 22.7877 19.8258 22.7877Z" fill="#509EE3"></path></svg>