<svg t="1722594652138" class="icon" viewBox="0 0 1024 1024" version="1.1" xmlns="http://www.w3.org/2000/svg" p-id="11227" width="24"><path d="M591.6 516.1l-1.4-0.8-47.5-17.4V367.6c14.9 2.1 27 6.9 36 14.1l0.2 0.2c11.8 9.2 19.4 26 22.7 50l43.6-6c-4.9-35.7-18-62.1-39.1-78.6-16.6-13.2-37.9-21.3-63.4-24V270h-44v53.4c-24.6 2.6-45 9.8-62.2 22-26.8 18.4-40.4 45.2-40.4 79.5 0 38.3 18.7 68.7 53.9 87.8l1.4 0.8 47.3 17.3v130.4c-14.8-2.1-26.9-6.9-35.9-14.1l-0.2-0.2c-11.8-9.2-19.4-26-22.7-50l-43.6 6c4.9 35.7 18 62.1 39.1 78.6 16.6 13.2 37.9 21.2 63.3 24v53.2h44v-53.3c24.7-2.6 45.2-9.8 62.4-22 26.8-18.4 40.4-45.2 40.4-79.5 0-38.3-18.7-68.7-53.9-87.8z m-121.9-42.9c-20.4-11.4-29.5-26.4-29.5-48.3 0-19.9 6.6-33.2 21.4-43.4l0.3-0.2c9.9-7 22-11.5 36.8-13.7v116.2l-29-10.6zM580 647.3l-0.3 0.2c-9.9 7.1-22.1 11.6-37 13.7V544.9l29.2 10.7c20.4 11.4 29.5 26.4 29.5 48.3 0 19.9-6.6 33.2-21.4 43.4z" fill="#070002" p-id="11228"></path><path d="M934.8 339.4c-22.6-53.5-55-101.6-96.3-142.9-41.3-41.2-89.4-73.7-142.9-96.3-55.4-23.4-114.3-35.3-175-35.3s-119.6 11.8-175 35.3c-53.5 22.6-101.7 55-142.9 96.3s-73.7 89.4-96.3 142.9c-23.4 55.4-35.3 114.4-35.3 175S83 633.9 106.5 689.5c22.6 53.5 55 101.6 96.3 142.9 41.3 41.2 89.4 73.7 142.9 96.3 55.4 23.4 114.3 35.3 175 35.3s119.6-11.9 174.9-35.4c53.5-22.6 101.6-55 142.9-96.3 41.2-41.3 73.7-89.4 96.3-142.9 23.4-55.4 35.3-114.3 35.3-175s-11.8-119.6-35.3-175z m-40.4 332.8c-20.4 48.3-49.6 91.6-86.9 128.9-37.2 37.2-80.6 66.5-128.9 86.9-50 21.2-103.1 31.9-157.9 31.9S412.8 909.1 362.8 888c-48.3-20.4-91.6-49.6-128.9-86.9-37.2-37.2-66.5-80.6-86.9-128.9-21.2-50-31.9-103.1-31.9-157.9s10.8-107.9 31.9-157.9c20.4-48.3 49.6-91.6 86.9-128.9 37.2-37.2 80.6-66.5 128.9-86.9 50-21.2 103.1-31.9 157.9-31.9s107.9 10.8 157.9 31.9c48.3 20.4 91.6 49.6 128.9 86.9 37.2 37.2 66.5 80.6 86.9 128.9 21.2 50 31.9 103.1 31.9 157.9 0 54.8-10.8 107.9-31.9 157.9z" fill="#070002" p-id="11229"></path></svg>