<svg t="1718087775161" class="icon" viewBox="0 0 1024 1024" version="1.1" xmlns="http://www.w3.org/2000/svg" p-id="13152" width="18" height="18"><path d="M252.24 630.2c0 51.8-42.32 94.12-94.12 94.12S64 682 64 630.2c0-51.8 42.32-94.12 94.12-94.12h94.12v94.12z m47.44 0c0-51.8 42.32-94.12 94.12-94.12s94.12 42.32 94.12 94.12v235.68c0 51.8-42.32 94.12-94.12 94.12s-94.12-42.32-94.12-94.12V630.2z m94.12-377.96c-51.8 0-94.12-42.32-94.12-94.12S342 64 393.8 64s94.12 42.32 94.12 94.12v94.12H393.8z m0 47.44c51.8 0 94.12 42.32 94.12 94.12s-42.32 94.12-94.12 94.12H158.12C106.32 487.92 64 445.6 64 393.8s42.32-94.12 94.12-94.12H393.8z m377.96 94.12c0-51.8 42.32-94.12 94.12-94.12 51.8 0 94.12 42.32 94.12 94.12s-42.32 94.12-94.12 94.12h-94.12V393.8z m-47.44 0c0 51.8-42.32 94.12-94.12 94.12-51.8 0-94.12-42.32-94.12-94.12V158.12c0-51.8 42.32-94.12 94.12-94.12 51.8 0 94.12 42.32 94.12 94.12V393.8zM630.2 771.76c51.8 0 94.12 42.32 94.12 94.12 0 51.8-42.32 94.12-94.12 94.12-51.8 0-94.12-42.32-94.12-94.12v-94.12h94.12z m0-47.44c-51.8 0-94.12-42.32-94.12-94.12 0-51.8 42.32-94.12 94.12-94.12h235.68c51.8 0 94.12 42.32 94.12 94.12 0 51.8-42.32 94.12-94.12 94.12H630.2z" p-id="13153" fill="currentColor"></path></svg>