<svg t="1722593673710" class="icon" viewBox="0 0 1024 1024" version="1.1" xmlns="http://www.w3.org/2000/svg" p-id="8074" width="18" height="18"><path d="M938.666667 1024H85.333333a85.589333 85.589333 0 0 1-85.333333-85.333333V85.333333a85.589333 85.589333 0 0 1 85.333333-85.333333h853.333334a85.589333 85.589333 0 0 1 85.333333 85.333333v853.333334a85.589333 85.589333 0 0 1-85.333333 85.333333z m42.666666-938.666667a42.666667 42.666667 0 0 0-42.666666-42.666666H85.333333a42.666667 42.666667 0 0 0-42.666666 42.666666v853.333334a42.666667 42.666667 0 0 0 42.666666 42.666666h853.333334a42.666667 42.666667 0 0 0 42.666666-42.666666V85.333333z m-106.666666 597.333334h-426.666667a21.333333 21.333333 0 0 1 0-42.666667h426.666667a21.333333 21.333333 0 0 1 0 42.666667z m0-341.333334h-426.666667a21.333333 21.333333 0 0 1 0-42.666666h426.666667a21.333333 21.333333 0 0 1 0 42.666666zM258.986667 417.706667a19.968 19.968 0 0 1-16.213334 8.96 18.432 18.432 0 0 1-13.226666-5.546667L130.986667 296.106667a10.410667 10.410667 0 0 1-1.28-13.653334 7.125333 7.125333 0 0 1 11.093333-1.706666l98.986667 79.786666a4.266667 4.266667 0 0 0 6.826666-0.853333l123.306667-143.36a7.466667 7.466667 0 0 1 11.52-0.853333 10.88 10.88 0 0 1 0.853333 13.653333zM234.666667 554.666667A106.666667 106.666667 0 1 1 128 661.333333 106.666667 106.666667 0 0 1 234.666667 554.666667z m0 170.666666A64 64 0 1 0 170.666667 661.333333 64 64 0 0 0 234.666667 725.333333z" fill="currentColor" p-id="8075"></path></svg>