<svg xmlns="http://www.w3.org/2000/svg" width="960" height="520" viewBox="0 0 960 520" role="img" aria-labelledby="title desc">
  <title id="title">TPC-H SF1000 Warehouse Size Benchmark</title>
  <desc id="desc">Total runtime for 22 TPC-H SF1000 queries by Databend Cloud Warehouse size: Small 1173.32 seconds, Medium 537.93 seconds, Large 285.96 seconds.</desc>
  <rect width="960" height="520" fill="#ffffff"/>
  <text x="480" y="46" text-anchor="middle" font-family="Inter, Arial, sans-serif" font-size="28" font-weight="700" fill="#111827">TPC-H SF1000 (1TB) Warehouse Size Benchmark</text>
  <text x="480" y="78" text-anchor="middle" font-family="Inter, Arial, sans-serif" font-size="15" fill="#6b7280">Total runtime for 22 queries, lower is better</text>

  <line x1="120" y1="420" x2="860" y2="420" stroke="#d1d5db" stroke-width="2"/>
  <line x1="120" y1="120" x2="120" y2="420" stroke="#d1d5db" stroke-width="2"/>

  <g font-family="Inter, Arial, sans-serif" font-size="13" fill="#6b7280">
    <text x="106" y="424" text-anchor="end">0</text>
    <text x="106" y="348" text-anchor="end">300</text>
    <text x="106" y="272" text-anchor="end">600</text>
    <text x="106" y="196" text-anchor="end">900</text>
    <text x="106" y="120" text-anchor="end">1200s</text>
  </g>

  <g stroke="#eef2f7" stroke-width="1">
    <line x1="120" y1="344" x2="860" y2="344"/>
    <line x1="120" y1="268" x2="860" y2="268"/>
    <line x1="120" y1="192" x2="860" y2="192"/>
    <line x1="120" y1="116" x2="860" y2="116"/>
  </g>

  <rect x="205" y="124" width="120" height="296" rx="8" fill="#1d4ed8"/>
  <rect x="420" y="284" width="120" height="136" rx="8" fill="#2563eb"/>
  <rect x="635" y="348" width="120" height="72" rx="8" fill="#60a5fa"/>

  <g font-family="Inter, Arial, sans-serif" text-anchor="middle">
    <text x="265" y="108" font-size="18" font-weight="700" fill="#111827">1173.32s</text>
    <text x="480" y="268" font-size="18" font-weight="700" fill="#111827">537.93s</text>
    <text x="695" y="332" font-size="18" font-weight="700" fill="#111827">285.96s</text>

    <text x="265" y="454" font-size="17" font-weight="600" fill="#111827">Small</text>
    <text x="480" y="454" font-size="17" font-weight="600" fill="#111827">Medium</text>
    <text x="695" y="454" font-size="17" font-weight="600" fill="#111827">Large</text>

    <text x="265" y="480" font-size="14" fill="#6b7280">1.00x</text>
    <text x="480" y="480" font-size="14" fill="#6b7280">2.18x vs Small</text>
    <text x="695" y="480" font-size="14" fill="#6b7280">4.10x vs Small</text>
  </g>

  <text x="120" y="500" font-family="Inter, Arial, sans-serif" font-size="13" fill="#9ca3af">Databend Cloud · TPC-H SF1000 · 22 queries</text>
</svg>
